<svg width="238" height="238" viewBox="0 0 238 238" fill="none" xmlns="http://www.w3.org/2000/svg">
<path d="M216.364 0H21.6364C9.68227 0 0 9.68227 0 21.6364V216.364C0 228.318 9.68227 238 21.6364 238H216.364C228.318 238 238 228.318 238 216.364V21.6364C238 9.68227 228.307 0 216.364 0ZM202.181 102.491C200.775 102.621 199.357 102.708 197.929 102.708C181.756 102.708 167.541 94.3995 159.265 81.8179C159.265 114.803 159.265 152.342 159.265 152.969C159.265 182.016 135.714 205.556 106.678 205.556C77.6421 205.545 54.0909 181.994 54.0909 152.958C54.0909 123.911 77.6421 100.371 106.678 100.371C107.782 100.371 108.853 100.468 109.924 100.533V126.454C108.842 126.324 107.792 126.129 106.678 126.129C91.8572 126.129 79.8382 138.148 79.8382 152.969C79.8382 167.79 91.8464 179.809 106.678 179.809C121.51 179.809 134.6 168.125 134.6 153.304C134.6 152.709 134.859 32.4654 134.859 32.4654H159.622C161.948 54.6102 179.831 72.0924 202.181 73.6935V102.491Z" fill="#22223B"/>
</svg>
