<svg width="546" height="610" viewBox="0 0 546 610" fill="none" xmlns="http://www.w3.org/2000/svg">
<path d="M324.207 306.302C306.832 305.068 293.478 320.724 282.541 331.953C269.296 344.49 257.442 325.62 248.608 317.63C241.317 310.339 231.598 306.318 221.265 306.318C172.207 308.219 174.15 370.307 205.572 394.891L272.739 452.464L339.9 394.891C371.296 370.307 373.291 308.203 324.207 306.302Z" fill="#CAADA7"/>
<path d="M535.379 594.823C543.296 585.573 546.749 573.385 544.879 561.349L484.218 173.109C481.041 152.729 463.749 137.932 443.119 137.932H383.66V110.203C378.129 -36.651 167.4 -36.8177 161.811 110.203V137.932H102.353C81.7229 137.932 64.4313 152.729 61.2542 173.109L0.592715 561.349C-3.80312 585.724 16.8844 609.974 41.6917 609.365H503.78C515.957 609.365 527.478 604.068 535.379 594.823ZM189.541 110.203C193.035 0.244802 352.452 0.286469 355.931 110.203V137.932H189.541V110.203ZM357.957 415.927L281.765 481.234C276.561 485.682 268.91 485.682 263.707 481.234L187.52 415.927C135.978 374.219 145.895 280.719 221.265 278.573C241.301 278.349 259.535 287.75 272.739 302.547L277.254 298.026C317.317 256.234 391.759 286.99 390.593 344.974C390.593 372.276 378.697 398.151 357.957 415.927Z" fill="#CAADA7"/>
</svg>
