<svg width="310" height="310" viewBox="0 0 310 310" fill="none" xmlns="http://www.w3.org/2000/svg">
<path d="M60.8044 277.468C58.5024 276.561 56.8515 274.747 55.0378 273.189C46.3183 265.749 38.3893 257.611 31.4834 248.403C24.7868 239.474 19.1133 230.057 14.2536 220.035C9.85891 210.99 6.69662 201.503 4.18539 191.807C2.86001 186.715 1.90668 181.483 1.30212 176.205C1.1161 174.6 1.1161 172.973 0.767321 171.392C0.441791 170.624 0.813825 169.764 0.441791 169.02L0.32553 166.462C-0.0930086 165.113 0.488295 163.672 0 162.323V143.326C0.441791 142.443 -0.0232522 141.443 0.32553 140.536C0.372034 139.815 0.395287 139.094 0.441791 138.374C0.860329 137.653 0.441791 136.792 0.790573 136.048C1.92993 125.12 4.46441 114.517 8.09175 104.17C13.835 87.7769 22.043 72.7327 32.7855 59.0837C37.0872 53.6195 41.6911 48.3877 46.6671 43.5978C57.0143 33.6459 68.4311 25.1123 81.1732 18.3924C96.4034 10.3705 112.447 4.76669 129.514 2.1857C132.746 1.69741 135.955 1.23236 139.187 0.767321C139.955 0.465043 140.815 0.837077 141.559 0.465043C142.698 0.418539 143.861 0.372034 145 0.32553C146.814 -0.0930086 148.674 0.488295 150.488 0C153.232 0.186017 155.975 0.186017 158.696 0C160.51 0.488295 162.393 -0.0930086 164.207 0.32553C165.23 0.372034 166.23 0.395287 167.253 0.441791C168.136 0.883582 169.136 0.418539 170.02 0.767321C170.601 0.813825 171.182 0.837077 171.764 0.883582C172.484 1.32537 173.321 0.883581 174.066 1.23236C180.204 2.46473 186.436 3.2553 192.528 4.8597C203.061 7.64996 213.245 11.3238 223.011 16.137C235.079 22.1128 246.147 29.6 256.285 38.4823C272.352 52.5731 285.002 69.2681 294.163 88.5442C300.534 101.937 304.998 115.958 307.091 130.677C307.533 133.816 308.021 136.978 308.486 140.117C308.835 141.024 308.393 142.024 308.812 142.931C308.858 144.094 308.905 145.233 308.928 146.396C309.347 148.209 308.765 150.069 309.254 151.883C309.254 154.929 309.254 157.975 309.254 161.021C308.789 162.23 309.323 163.509 308.928 164.718C308.882 165.439 308.858 166.137 308.812 166.857C308.393 167.601 308.812 168.439 308.486 169.183C305.998 188.133 299.953 205.921 290.954 222.732C284.746 234.312 277.398 245.124 269.097 255.285C262.703 263.098 255.936 270.585 248.449 277.398C247.473 276.422 247.798 275.166 247.798 274.003C247.775 259.912 247.821 245.798 247.775 231.708C247.752 223.709 245.984 216.012 242.799 208.688C236.893 195.016 227.476 184.413 214.501 177.088C205.595 172.043 196.016 169.369 185.738 168.904C167.09 168.067 148.465 168.601 129.817 168.555C116.633 168.508 103.96 171.02 92.6598 178.228C74.4766 189.807 64.0597 206.34 61.5252 227.778C61.3857 229.034 61.4554 230.313 61.4554 231.591C61.4554 245.775 61.4554 259.936 61.4554 274.12C61.4554 275.282 61.7809 276.538 60.7811 277.514L60.8044 277.468Z" fill="#D81159"/>
<path d="M60.8035 277.467C60.8035 262.4 60.7337 247.333 60.85 232.265C60.943 218.151 65.5702 205.548 74.0339 194.341C84.0091 181.157 97.1931 172.926 113.33 169.391C118.376 168.299 123.515 167.996 128.63 167.973C145.999 167.833 163.392 167.833 180.785 167.95C195.108 168.043 208.478 171.507 220.29 179.948C235.218 190.644 244.449 204.944 247.634 223.104C248.193 226.336 248.495 229.591 248.495 232.87C248.495 247.728 248.495 262.563 248.495 277.421C242.914 281.862 236.915 285.722 230.73 289.303C219.453 295.813 207.525 300.766 195.015 304.231C189.086 305.881 183.063 307.207 176.925 308.021C175.553 308.207 174.158 308.253 172.809 308.555C172.042 308.881 171.205 308.486 170.437 308.881C169.879 308.927 169.321 308.951 168.763 308.997C167.391 309.416 165.95 308.858 164.601 309.323C163.159 309.369 161.718 309.393 160.276 309.439C156.556 309.672 152.835 309.672 149.115 309.439L144.372 309.323C143.139 308.881 141.837 309.369 140.605 308.997C140.024 308.951 139.465 308.927 138.884 308.881C138.001 308.416 137.001 308.927 136.117 308.532C127.653 307.695 119.399 305.719 111.237 303.44C101.239 300.673 91.6823 296.697 82.521 291.86C75.0803 287.931 68.0349 283.327 61.3383 278.188C61.129 278.025 61.0127 277.723 60.85 277.467H60.8035Z" fill="#22223B"/>
<path d="M200.108 114.47C200.457 138.606 179.809 160.393 153.674 159.858C129.189 159.347 108.774 139.536 108.89 114.098C109.006 89.0092 128.515 68.7333 154.395 68.5705C180.251 68.4078 200.318 89.2882 200.108 114.447V114.47Z" fill="#957A63"/>
</svg>
