<svg width="241" height="241" viewBox="0 0 241 241" fill="none" xmlns="http://www.w3.org/2000/svg">
<path d="M47.2743 215.826C45.4846 215.121 44.201 213.711 42.7909 212.5C36.0116 206.715 29.847 200.387 24.4778 193.228C19.2713 186.286 14.8602 178.965 11.0819 171.173C7.66513 164.141 5.2065 156.765 3.25406 149.226C2.22361 145.267 1.48241 141.199 1.01238 137.096C0.86775 135.848 0.86775 134.583 0.596578 133.353C0.343484 132.757 0.632735 132.088 0.343484 131.51L0.253094 129.521C-0.0723125 128.472 0.379641 127.352 0 126.303V111.533C0.343484 110.846 -0.0180781 110.069 0.253094 109.364C0.28925 108.803 0.307328 108.243 0.343484 107.683C0.668891 107.122 0.343484 106.453 0.614656 105.875C1.50048 97.378 3.471 89.1344 6.29119 81.0896C10.7565 68.3445 17.1381 56.648 25.4902 46.0361C28.8346 41.7878 32.4141 37.7202 36.2828 33.9961C44.3276 26.2587 53.2039 19.624 63.1107 14.3994C74.9519 8.16245 87.4258 3.80563 100.695 1.79895C103.208 1.41931 105.703 1.05775 108.216 0.696188C108.812 0.461172 109.481 0.750422 110.06 0.461172C110.945 0.425016 111.849 0.388859 112.735 0.352703C114.145 0.0272968 115.592 0.47925 117.002 0.0996094C119.135 0.244234 121.268 0.244234 123.383 0.0996094C124.793 0.47925 126.258 0.0272968 127.668 0.352703C128.463 0.388859 129.241 0.406938 130.036 0.443094C130.723 0.786578 131.5 0.425016 132.187 0.696188C132.639 0.732344 133.091 0.750422 133.543 0.786578C134.104 1.13006 134.754 0.786578 135.333 1.05775C140.106 2.01589 144.95 2.63055 149.687 3.87794C157.876 6.04731 165.795 8.90366 173.387 12.6458C182.77 17.2919 191.375 23.1131 199.257 30.0189C211.749 40.9743 221.584 53.9544 228.706 68.9411C233.66 79.3541 237.131 90.2552 238.758 101.699C239.101 104.139 239.481 106.598 239.843 109.038C240.114 109.743 239.77 110.521 240.096 111.226C240.132 112.13 240.168 113.016 240.186 113.92C240.511 115.33 240.059 116.776 240.439 118.186C240.439 120.554 240.439 122.922 240.439 125.291C240.078 126.231 240.493 127.225 240.186 128.165C240.15 128.725 240.132 129.268 240.096 129.828C239.77 130.407 240.096 131.058 239.843 131.636C237.908 146.37 233.208 160.2 226.212 173.27C221.385 182.273 215.672 190.679 209.218 198.579C204.247 204.654 198.986 210.475 193.165 215.772C192.406 215.012 192.659 214.036 192.659 213.132C192.641 202.177 192.677 191.204 192.641 180.248C192.622 174.029 191.249 168.045 188.772 162.351C184.18 151.721 176.858 143.477 166.771 137.783C159.847 133.86 152.399 131.781 144.408 131.419C129.909 130.768 115.429 131.184 100.93 131.148C90.6799 131.112 80.8273 133.064 72.0413 138.668C57.9042 147.671 49.8052 160.525 47.8347 177.193C47.7263 178.169 47.7805 179.163 47.7805 180.158C47.7805 191.185 47.7805 202.195 47.7805 213.223C47.7805 214.127 48.0336 215.103 47.2562 215.862L47.2743 215.826Z" fill="#4A4E69"/>
<path d="M47.2744 215.826C47.2744 204.112 47.2202 192.397 47.3106 180.683C47.3829 169.709 50.9805 159.911 57.5609 151.197C65.3164 140.947 75.5667 134.547 88.1129 131.799C92.0359 130.95 96.0312 130.715 100.008 130.697C113.513 130.588 127.035 130.588 140.558 130.678C151.694 130.751 162.089 133.444 171.272 140.007C182.878 148.323 190.056 159.441 192.532 173.56C192.966 176.073 193.201 178.604 193.201 181.153C193.201 192.705 193.201 204.238 193.201 215.79C188.862 219.243 184.198 222.244 179.389 225.028C170.622 230.09 161.347 233.941 151.621 236.634C147.011 237.918 142.329 238.948 137.557 239.581C136.49 239.726 135.405 239.762 134.357 239.997C133.76 240.25 133.109 239.943 132.513 240.25C132.079 240.286 131.645 240.304 131.211 240.34C130.145 240.666 129.024 240.232 127.975 240.594C126.854 240.63 125.734 240.648 124.613 240.684C121.72 240.865 118.828 240.865 115.935 240.684L112.247 240.594C111.289 240.25 110.277 240.63 109.319 240.34C108.867 240.304 108.433 240.286 107.981 240.25C107.294 239.888 106.516 240.286 105.829 239.979C99.2491 239.328 92.8313 237.791 86.4859 236.02C78.7123 233.868 71.2822 230.777 64.1594 227.017C58.3744 223.962 52.8967 220.382 47.6902 216.387C47.5275 216.26 47.4371 216.025 47.3106 215.826H47.2744Z" fill="#9A8C98"/>
<path d="M115.899 240.647C118.791 240.647 121.684 240.647 124.576 240.647C121.684 241.117 118.791 241.117 115.899 240.647Z" fill="#9A8C98"/>
<path d="M127.704 0.334898C126.276 0.334898 124.83 0.515679 123.419 0.0818039C124.848 0.154116 126.294 -0.279759 127.704 0.334898Z" fill="#9A8C98"/>
<path d="M240.457 118.168C240.005 116.776 240.204 115.33 240.204 113.902C240.783 115.294 240.385 116.74 240.457 118.168Z" fill="#9A8C98"/>
<path d="M117.038 0.0818732C115.628 0.49767 114.2 0.353045 112.771 0.334967C114.163 -0.243533 115.61 0.154186 117.038 0.0818732Z" fill="#9A8C98"/>
<path d="M127.957 240.558C129.024 240.196 130.108 240.286 131.193 240.304C130.144 240.883 129.042 240.503 127.957 240.558Z" fill="#9A8C98"/>
<path d="M109.282 240.322C110.258 240.322 111.253 240.213 112.211 240.575C111.235 240.521 110.222 240.9 109.282 240.322Z" fill="#9A8C98"/>
<path d="M240.204 128.147C240.186 127.189 240.059 126.213 240.457 125.273C240.385 126.231 240.783 127.225 240.204 128.147Z" fill="#9A8C98"/>
<path d="M105.811 239.96C106.552 239.906 107.276 239.888 107.963 240.231C107.239 240.177 106.48 240.502 105.811 239.96Z" fill="#9A8C98"/>
<path d="M240.114 111.208C239.734 110.503 239.825 109.762 239.861 109.021C240.385 109.707 240.078 110.467 240.114 111.208Z" fill="#9A8C98"/>
<path d="M132.241 0.678302C131.5 0.714458 130.777 0.786771 130.09 0.425208C130.813 0.479443 131.572 0.154036 132.241 0.678302Z" fill="#9A8C98"/>
<path d="M110.096 0.442797C109.517 0.786281 108.885 0.713969 108.252 0.677812C108.812 0.189703 109.481 0.460875 110.096 0.442797Z" fill="#9A8C98"/>
<path d="M135.369 1.03988C134.754 1.07603 134.14 1.11219 133.579 0.768703C134.176 0.804859 134.827 0.533687 135.369 1.03988Z" fill="#9A8C98"/>
<path d="M239.861 131.618C239.824 131.004 239.77 130.371 240.114 129.811C240.077 130.425 240.349 131.076 239.861 131.618Z" fill="#9A8C98"/>
<path d="M132.495 240.213C133.073 239.888 133.706 239.924 134.339 239.96C133.778 240.448 133.127 240.195 132.495 240.213Z" fill="#9A8C98"/>
<path d="M155.58 89.0986C155.852 107.864 139.798 124.803 119.478 124.387C100.442 123.989 84.5695 108.587 84.6599 88.8093C84.7503 69.303 99.9179 53.5389 120.039 53.4124C140.142 53.2858 155.743 69.52 155.58 89.0805V89.0986Z" fill="#BD8A58"/>
</svg>
