<svg width="394" height="334" viewBox="0 0 394 334" fill="none" xmlns="http://www.w3.org/2000/svg">
<path d="M350.465 20.5208C351.459 20.4567 352.42 20.3926 353.413 20.3285C354.439 19.7837 355.625 20.3285 356.65 19.8798C357.451 19.8157 358.221 19.7837 359.022 19.7196C360.015 19.1427 361.201 19.7196 362.194 19.2709C363.156 19.2068 364.149 19.1427 365.111 19.0786C366.136 18.5338 367.322 19.0786 368.379 18.63C369.148 18.5659 369.95 18.5338 370.719 18.4697C371.712 17.8929 372.898 18.4697 373.923 18.0211C376.776 17.7647 379.596 17.5083 382.448 17.2199C383.473 16.6431 384.627 17.2199 385.653 16.7713C389.883 16.3226 392.222 13.855 393.184 9.84911C393.472 8.8236 393.472 7.83015 393.184 6.80464C392.671 2.67058 390.235 0.299105 386.069 0.0427293C384.146 -0.0534116 382.192 0.0427293 380.269 0.0427293C379.275 0.619575 378.09 0.0427293 377.064 0.491387C376.263 0.555481 375.462 0.587528 374.693 0.651622C373.699 1.26051 372.545 0.651622 371.52 1.10028C368.7 1.58098 365.88 2.09374 363.028 1.90145C362.002 2.4783 360.848 1.90145 359.823 2.35011C359.022 2.41421 358.253 2.44625 357.451 2.51035C356.458 3.08719 355.272 2.51035 354.279 2.959C351.459 3.43971 348.671 3.92041 345.786 3.76018C344.761 4.30498 343.575 3.76018 342.55 4.20884C341.78 4.27293 340.979 4.30498 340.21 4.36907C339.217 4.94592 338.031 4.36907 337.006 4.81773C336.204 4.88182 335.403 4.91387 334.634 4.97796C333.641 5.58686 332.487 4.97796 331.461 5.42662C330.5 5.49072 329.507 5.55481 328.545 5.6189C327.52 6.1637 326.334 5.6189 325.276 6.06756C324.507 6.13166 323.738 6.1637 322.937 6.2278C321.911 6.80464 320.758 6.2278 319.732 6.67645C318.931 6.74055 318.162 6.7726 317.361 6.83669C316.367 7.41354 315.182 6.83669 314.188 7.28535C309.541 7.83015 305.055 8.75951 302.267 13.0859C299.991 16.611 299.671 20.7451 298.774 24.6869C296.787 33.2755 294.96 41.8961 293.037 50.4847C292.973 50.7731 292.685 50.9654 292.493 51.2218C291.339 51.8307 290.057 51.5102 288.871 51.5102C197.762 51.5102 106.653 51.5102 15.544 51.5102C14.3262 51.5102 13.0764 51.3179 11.8586 51.7025C5.67356 53.3369 1.76384 57.1184 0.610153 63.5599C0.321732 64.7776 0.321732 65.9954 0.610153 67.2132C4.96852 86.7298 9.32689 106.246 13.6853 125.763C19.2294 150.535 24.7414 175.308 30.3496 200.08C32.1763 208.124 37.6883 212.29 46.3409 212.29C115.113 212.29 183.886 212.29 252.658 212.29H256.728C255.094 219.276 253.684 226.07 251.889 232.8C250.703 237.19 247.371 239.37 242.788 239.498C241.602 240.011 240.352 239.754 239.135 239.754C172.637 239.754 106.108 239.754 39.6111 239.754C38.3933 239.754 37.1435 239.562 35.9257 239.946C30.3496 243.151 28.7473 246.324 30.3816 250.939C31.6315 254.432 35.1566 256.739 38.9061 256.515C39.9316 256.451 40.9571 256.515 41.9826 256.515C112.518 256.515 183.021 256.515 253.556 256.515C262.304 256.515 264.58 254.656 266.503 245.907C270.188 229.339 273.873 212.771 277.591 196.202C281.052 180.724 284.577 165.277 288.102 149.798C291.403 135.313 294.768 120.86 298.005 106.375C301.53 90.6075 304.927 74.8083 308.452 59.0092C310.887 48.0171 313.515 37.057 315.823 26.0008C316.207 24.11 316.848 23.8536 318.386 24.0459C319.38 23.4691 320.566 24.0459 321.591 23.5973C322.552 23.5332 323.514 23.4691 324.507 23.405C325.533 22.8602 326.719 23.405 327.776 22.9563C328.545 22.8922 329.346 22.8602 330.115 22.7961C331.109 22.2192 332.295 22.7961 333.32 22.3474L341.813 21.5463C342.838 20.9694 343.992 21.5463 345.049 21.0976C345.85 21.0335 346.652 21.0015 347.421 20.9374C348.414 20.3285 349.568 20.9374 350.593 20.4887L350.465 20.5208Z" fill="#F9F5E3"/>
<path d="M229.555 333.364C242.47 332.402 254.167 319.872 256.09 308.367C257.628 299.041 256.314 290.357 250.706 282.697C236.797 263.79 207.442 265.745 196.354 286.767C186.067 306.252 197.925 329.71 219.748 333.332C223.017 333.62 226.286 333.652 229.555 333.332V333.364Z" fill="#F9F5E3"/>
<path d="M74.064 333.362C87.3314 331.087 95.952 323.075 99.4771 310.481C104.444 292.791 95.1508 276.351 78.9352 271.319C59.8993 265.391 41.2481 276.383 37.2422 295.483C33.4928 313.429 46.1513 330.542 63.5847 333.394C67.0778 333.683 70.5389 333.715 74.032 333.394L74.064 333.362Z" fill="#F9F5E3"/>
<path d="M11.7953 51.7666C58.0388 51.7666 104.282 51.7666 150.526 51.7986C196.673 51.7986 242.821 51.7986 288.968 51.7986C290.122 51.7986 291.404 52.3434 292.429 51.2858C200.07 51.2858 107.711 51.2858 15.3524 51.2858C14.1667 51.2858 12.8848 50.8692 11.7953 51.7986V51.7666Z" fill="#F9F5E3"/>
<path d="M35.8639 239.979C50.8618 239.979 65.8918 239.883 80.8897 239.883C133.511 239.883 186.163 239.883 238.784 239.883C240.098 239.883 241.444 240.203 242.726 239.53C241.508 239.53 240.258 239.466 239.041 239.466C172.608 239.466 106.175 239.466 39.7736 239.466C38.4918 239.466 37.0817 239.017 35.896 239.979H35.8639Z" fill="#F9F5E3"/>
<path d="M74.0635 333.363C70.5704 333.363 67.1093 333.363 63.6162 333.363C67.1093 334.196 70.5704 334.228 74.0635 333.363Z" fill="#F9F5E3"/>
<path d="M229.555 333.363C226.286 333.363 223.017 333.363 219.748 333.363C223.017 334.164 226.286 334.164 229.555 333.363Z" fill="#F9F5E3"/>
<path d="M0.577148 67.2769C0.577148 66.0591 0.577148 64.8413 0.577148 63.6235C-0.191975 64.8413 -0.191975 66.0591 0.577148 67.2769Z" fill="#F9F5E3"/>
<path d="M319.67 6.70812C320.76 6.77221 321.882 6.86835 322.875 6.25946C321.785 6.32355 320.632 5.84285 319.67 6.70812Z" fill="#F9F5E3"/>
<path d="M325.247 6.09945C326.368 6.16355 327.49 6.29173 328.516 5.65079C327.426 5.68284 326.24 5.20214 325.247 6.09945Z" fill="#F9F5E3"/>
<path d="M321.496 23.597C320.406 23.5329 319.316 23.4367 318.291 24.0456C319.381 23.9815 320.534 24.4622 321.496 23.597Z" fill="#F9F5E3"/>
<path d="M327.65 22.956C326.529 22.8919 325.407 22.7638 324.382 23.4047C325.471 23.3727 326.657 23.8534 327.65 22.956Z" fill="#F9F5E3"/>
<path d="M314.127 7.31737C315.217 7.38146 316.306 7.4776 317.3 6.86871C316.21 6.9328 315.089 6.4521 314.127 7.31737Z" fill="#F9F5E3"/>
<path d="M288.648 68.5265H285.155C200.744 68.5265 116.332 68.5906 31.9209 68.3983C23.4926 68.3983 19.1984 74.5513 20.8968 81.9542C28.6201 115.443 35.8947 149.029 43.3616 182.582C45.2844 191.138 50.8606 195.593 59.6094 195.593C125.53 195.593 191.418 195.593 257.338 195.625C259.325 195.625 260.447 195.336 260.959 193.093C270.093 152.041 279.29 110.989 288.456 69.9686C288.552 69.5841 288.552 69.1995 288.648 68.5585V68.5265Z" fill="#F9F5E3"/>
<path d="M224.107 283.915C214.493 284.108 206.673 292.248 206.802 301.926C206.93 311.636 215.39 319.872 224.908 319.584C234.586 319.295 242.534 311.123 242.438 301.605C242.309 291.671 234.105 283.723 224.139 283.915H224.107Z" fill="#F9F5E3"/>
<path d="M68.71 283.915C58.9037 283.883 50.8599 291.862 50.7638 301.669C50.6997 311.283 58.9357 319.583 68.6459 319.583C78.1638 319.583 86.2717 311.475 86.3678 301.861C86.4639 292.055 78.4843 283.915 68.6779 283.883L68.71 283.915Z" fill="#F9F5E3"/>
</svg>
