<svg width="380" height="328" viewBox="0 0 380 328" fill="none" xmlns="http://www.w3.org/2000/svg">
<path d="M129.373 138.195C88.8828 138.195 48.393 138.195 7.94066 138.195C4.97616 138.195 1.82403 138.382 0.510647 134.968C-0.615113 132.003 0.0978679 129.451 2.87474 127.575C18.5603 116.918 34.2835 106.261 49.9315 95.5284C71.5461 80.7059 93.0857 65.7708 114.738 50.9858C132.262 39.0152 150.049 27.4574 167.311 15.1116C173.69 10.571 180.557 6.70592 186.599 1.60247C189.451 -0.799147 193.091 -0.348845 196.355 1.9402C247.765 37.8895 299.212 73.8012 350.622 109.675C358.69 115.304 366.871 120.783 374.938 126.449C376.364 127.425 377.903 128.363 378.804 129.977C380.83 133.504 378.766 137.782 374.638 138.12C371.674 138.345 368.709 138.195 365.745 138.195C327.356 138.195 288.93 138.195 250.542 138.195C249.454 136.243 250.054 134.142 250.054 132.116C249.979 120.408 249.942 108.737 250.054 97.0294C250.054 94.2901 249.566 93.1643 246.452 93.1643C208.589 93.2769 170.688 93.2394 132.825 93.2394C131.962 93.2394 131.024 93.1268 130.236 93.6521C129.298 97.7049 129.936 101.833 129.823 105.96C129.523 116.693 130.311 127.462 129.41 138.195H129.373Z" fill="#F9F5E3"/>
<path d="M319.625 303.794C319.738 302.03 319.888 300.267 319.888 298.503C319.888 252.122 319.963 205.74 319.813 159.321C319.813 155.381 320.751 154.18 324.691 154.481C329.269 154.856 333.885 154.668 338.463 154.518C341.09 154.443 342.253 155.269 342.065 158.083C341.878 160.898 342.028 163.712 342.028 166.526C342.028 216.923 342.028 267.319 342.028 317.716C342.028 321.131 341.652 324.17 338.463 326.159C337.037 326.722 335.536 326.459 334.072 326.459C237.932 326.459 141.792 326.459 45.6526 326.459C44.1891 326.459 42.6881 326.722 41.2621 326.159C38.6353 325.821 38.185 323.72 37.8848 321.694C37.6597 320.23 37.7722 318.729 37.7722 317.266C37.7722 264.805 37.8098 212.345 37.6597 159.884C37.6597 155.794 38.3351 153.993 42.8382 154.481C46.9284 154.931 51.1313 154.818 55.2591 154.481C59.0866 154.18 59.9122 155.681 59.9122 159.284C59.7996 200.187 59.8371 241.089 59.8371 281.992C59.8371 289.234 60.0248 296.477 60.0998 303.756C61.0004 304.469 62.0887 304.207 63.1018 304.207C92.1089 304.207 121.116 304.207 150.123 304.207C151.136 304.207 152.225 304.469 153.125 303.756C153.2 289.272 153.313 274.749 153.388 260.265C153.388 251.821 153.538 243.378 153.388 234.935C153.013 217.223 165.508 200.937 184.571 198.535C186.11 197.935 187.836 198.648 189.375 197.935C189.712 197.935 190.05 197.935 190.425 197.935C191.964 198.648 193.652 197.935 195.229 198.535C210.239 201.8 220.596 210.131 224.874 225.291C225.962 229.156 226.45 233.059 226.412 237.074C226.375 257.675 226.412 278.277 226.412 298.878C226.412 300.492 226.562 302.105 226.637 303.756C227.538 304.469 228.626 304.207 229.639 304.207C258.646 304.207 287.653 304.207 316.661 304.207C317.674 304.207 318.762 304.469 319.663 303.756L319.625 303.794Z" fill="#F9F5E3"/>
<path d="M206.598 150.616C195.453 150.616 184.346 150.616 173.201 150.616C172.338 149.978 172.563 149.04 172.563 148.177C172.825 137.745 172 127.275 172.976 116.843C184.233 116.093 195.528 116.168 206.823 116.843C207.349 128.138 207.762 139.396 206.598 150.654V150.616Z" fill="#F9F5E3"/>
<path d="M41.2631 326.159C140.33 326.159 239.434 326.159 338.501 326.159C337.113 327.473 335.387 326.91 333.811 326.91C237.858 326.91 141.869 326.91 45.9163 326.91C44.3402 326.91 42.614 327.473 41.2256 326.159H41.2631Z" fill="#F9F5E3"/>
<path d="M130.197 93.6529C131.398 92.302 132.974 92.9775 134.363 92.9775C171.588 92.9399 208.813 92.9775 246 92.8649C249.415 92.8649 250.503 93.6529 250.466 97.2178C250.278 110.84 250.466 124.499 250.466 138.158C248.852 136.92 249.49 135.156 249.49 133.617C249.453 122.06 249.265 110.464 249.565 98.9065C249.678 94.4785 248.214 93.5779 244.049 93.5779C206.073 93.728 168.135 93.6529 130.16 93.6529H130.197Z" fill="#F9F5E3"/>
<path d="M153.162 303.757C152.525 304.995 151.324 304.47 150.386 304.47C121.228 304.47 92.0712 304.47 62.8765 304.47C61.9384 304.47 60.7751 304.995 60.0996 303.757C91.0955 303.757 122.129 303.757 153.125 303.757H153.162Z" fill="#F9F5E3"/>
<path d="M319.625 303.794C318.949 305.032 317.786 304.506 316.848 304.506C287.691 304.506 258.534 304.506 229.339 304.506C228.401 304.506 227.237 305.069 226.562 303.794C257.558 303.794 288.591 303.794 319.587 303.794H319.625Z" fill="#F9F5E3"/>
<path d="M129.373 138.194C129.449 124.91 129.524 111.626 129.636 98.342C129.636 96.766 129.073 95.0773 130.199 93.6514C130.199 107.123 130.237 120.595 130.199 134.029C130.199 135.455 130.687 137.031 129.336 138.194H129.373Z" fill="#F9F5E3"/>
<path d="M206.602 150.616C206.677 139.358 206.752 128.101 206.827 116.843C207.915 117.706 207.69 118.945 207.69 120.108C207.69 129.076 207.69 138.082 207.69 147.051C207.69 148.327 208.103 149.753 206.602 150.616Z" fill="#F9F5E3"/>
<path d="M172.974 116.843C173.049 128.101 173.125 139.358 173.2 150.616C172.036 150.053 172.111 149.002 172.111 147.952C172.111 138.383 172.111 128.776 172.111 119.207C172.111 118.307 172.186 117.444 173.012 116.843H172.974Z" fill="#F9F5E3"/>
<path d="M206.788 116.805C195.493 116.805 184.236 116.805 172.94 116.805C173.541 115.979 174.404 115.904 175.305 115.904C184.986 115.904 194.705 115.904 204.387 115.904C205.287 115.904 206.15 115.979 206.751 116.767L206.788 116.805Z" fill="#F9F5E3"/>
<circle cx="190.146" cy="232.06" r="37.1788" fill="#F9F5E3"/>
<path d="M152.967 229.724H227.324V303.656H152.967V229.724Z" fill="#F9F5E3"/>
</svg>
