<svg width="263" height="315" viewBox="0 0 263 315" fill="none" xmlns="http://www.w3.org/2000/svg">
<path d="M120.265 127.421C120.418 124.378 122.026 122.857 125.088 122.857C130.168 122.857 135.249 122.857 140.329 122.842C141.119 124.78 140.215 126.861 140.846 128.813C140.875 130.478 140.903 132.143 140.932 133.807C141.406 135.156 140.746 136.606 141.305 137.941C141.334 139.003 141.363 140.05 141.377 141.113C141.822 142.146 141.219 143.308 141.75 144.342C141.779 145.246 141.808 146.15 141.836 147.054C142.267 147.93 141.693 148.949 142.209 149.81C142.54 157.904 143.716 165.884 145.553 173.763C149.486 190.656 155.557 206.874 161.513 223.12C167.239 238.749 173.353 254.221 179.683 269.621C184.72 281.863 189.944 294.033 195.097 306.233C195.456 307.065 195.714 307.955 196.144 308.744C196.776 309.936 195.987 309.993 195.183 310.079C194.465 310.495 193.59 309.964 192.872 310.467L183.314 311.457C182.596 311.873 181.721 311.342 181.003 311.844C180.4 311.873 179.797 311.902 179.195 311.93C178.463 312.332 177.602 311.816 176.884 312.304C175.98 312.332 175.076 312.361 174.171 312.39C173.282 312.806 172.277 312.261 171.402 312.763C170.497 312.792 169.593 312.82 168.689 312.849C167.971 313.236 167.096 312.734 166.393 313.222C165.488 313.251 164.584 313.28 163.666 313.308C162.776 313.724 161.771 313.179 160.896 313.667C159.231 313.696 157.58 313.724 155.916 313.753C154.882 314.198 153.72 313.595 152.686 314.126C150.261 314.155 147.835 314.184 145.41 314.212C142.683 314.7 139.884 313.997 137.158 314.586C133.082 314.586 129.02 314.586 124.944 314.586C122.217 313.997 119.433 314.715 116.706 314.212C115.041 314.184 113.376 314.155 111.726 314.126C110.233 313.581 108.626 314.212 107.133 313.753C106.071 313.724 105.023 313.696 103.961 313.667C102.942 313.136 101.78 313.739 100.746 313.294C99.6844 313.265 98.6367 313.236 97.5746 313.208C96.6992 312.705 95.6945 313.251 94.8047 312.835C92.2213 312.648 89.6523 312.476 87.069 312.289C86.1935 311.787 85.1888 312.332 84.299 311.916C82.0314 311.73 79.7638 311.557 77.4962 311.371C76.7786 310.897 75.9031 311.399 75.1711 310.998C73.3484 310.825 71.5401 310.639 69.7174 310.467C68.8562 309.95 67.8372 310.51 66.9618 310.093C63.9622 309.806 64.0627 309.835 65.2539 307.065C68.4974 299.502 71.6692 291.909 74.798 284.303C79.5341 272.778 84.3277 261.282 88.8917 249.686C93.4987 237.974 98.0196 226.234 102.296 214.38C105.655 205.08 108.884 195.736 111.783 186.293C114.28 178.169 116.275 169.931 117.266 161.464C117.682 157.89 118.141 154.316 118.557 150.728C119.045 150.011 118.529 149.15 118.93 148.418L119.017 145.705C119.519 144.83 118.959 143.825 119.39 142.935C119.418 141.873 119.447 140.826 119.476 139.763C120.021 138.587 119.39 137.281 119.849 136.089C119.878 134.726 119.906 133.377 119.935 132.013C120.48 130.506 119.849 128.913 120.308 127.406L120.265 127.421Z" fill="#F9F5E3"/>
<path d="M90.5866 24.244C90.6153 23.0384 90.644 21.8329 90.6727 20.613C91.2181 19.4361 90.5866 18.1301 91.0459 16.9388C91.0746 15.7333 91.1033 14.5277 91.132 13.3221C91.6773 12.1309 91.0459 10.8249 91.5051 9.63365L91.5912 6.01693C92.1079 4.98359 91.5195 3.82107 91.9644 2.78773C92.3088 1.76873 91.3042 0.118249 93.6005 0.0464891C98.1645 -0.0970312 98.4084 -0.0683271 98.8821 2.60115C99.7862 7.68177 100.733 12.7767 101.666 17.8574C102.097 18.575 101.552 19.4504 102.054 20.1537C102.427 23.5982 104.034 26.3825 107.005 28.0904C114.598 32.439 122.262 36.6585 129.911 40.9211C130.169 41.0646 130.485 41.079 130.772 41.1507C131.705 41.4952 132.652 41.5095 133.585 41.1507C141.393 36.7733 149.243 32.4677 157.008 28.0043C160.467 26.0093 161.787 22.6509 162.39 18.8189C163.323 12.9059 164.514 7.03593 165.547 1.13724C165.676 0.376586 166.007 0.0895452 166.738 0.103897C167.341 0.118249 167.958 0.103897 168.561 0.103897C171.001 0.103897 172.293 1.30947 172.436 3.72061C172.896 4.91183 172.264 6.21786 172.809 7.40908C172.838 8.61465 172.867 9.82022 172.896 11.0258C173.355 12.217 172.723 13.523 173.269 14.6999C173.297 15.9055 173.326 17.1111 173.355 18.331C173.814 19.5222 173.183 20.8282 173.728 22.0051C173.757 23.2107 173.785 24.4306 173.814 25.6362C174.245 26.6839 173.656 27.832 174.187 28.8654C173.699 31.5492 175.235 33.6733 176.182 35.9409C178.22 40.8493 179.641 45.9012 180.201 51.1971C180.459 53.0055 180.473 54.8138 180.201 56.6366C179.612 62.8797 176.785 68.1038 173.139 73.0696C169.953 77.4039 167.513 82.2119 165.533 87.2207C164.988 87.6082 164.356 87.4504 163.768 87.4504C142.684 87.4504 121.587 87.4504 100.504 87.4504C99.9728 87.4504 99.4418 87.5221 98.9251 87.3068C96.0117 82.5276 94.1028 77.1887 90.7301 72.6534C88.7926 70.0557 86.7546 67.5441 85.6064 64.4154C82.8508 56.9954 83.5541 49.6041 85.5921 42.1984C86.4101 39.1988 87.5727 36.3284 88.9935 33.5872C89.9264 31.7932 90.4431 29.9418 90.2421 27.9181C90.8019 26.7413 90.156 25.4352 90.6153 24.244H90.5866Z" fill="#F9F5E3"/>
<path d="M111.266 146.538C111.237 147.442 111.209 148.346 111.18 149.25C110.692 149.968 111.209 150.829 110.807 151.561C109.386 167.951 104.894 183.595 99.5549 199.066C91.9483 221.111 83.3801 242.782 74.6397 264.382C70.9513 273.496 67.0906 282.552 63.3591 291.651C62.9715 292.598 62.7563 293.158 61.4789 292.943C51.9348 291.335 42.4338 289.484 33.0476 287.116C30.2776 286.413 27.5507 285.566 24.7808 284.863C22.9868 284.403 23.8335 283.399 24.3215 282.667C27.6655 277.83 31.1531 273.08 34.4541 268.214C41.3717 258.024 48.2464 247.806 55.0349 237.53C64.0479 223.91 72.9175 210.189 81.3421 196.196C86.6955 187.298 91.8765 178.299 96.1965 168.855C99.9998 160.545 102.598 151.776 105.339 143.079C107.291 136.908 108.941 130.65 110.491 124.364C110.649 123.747 110.721 122.699 111.869 122.914C112.874 123.115 112.558 123.976 112.558 124.593C112.587 126.416 112.558 128.239 112.558 130.062C112.012 131.411 112.658 132.86 112.185 134.209C112.156 135.415 112.127 136.62 112.099 137.84C111.568 138.859 112.17 140.022 111.725 141.055L111.639 144.213C111.166 144.93 111.654 145.791 111.28 146.523L111.266 146.538Z" fill="#F9F5E3"/>
<path d="M149.114 142.849C149.085 141.643 149.057 140.438 149.028 139.232C148.597 138.184 149.186 137.036 148.655 136.003C148.626 134.496 148.597 132.989 148.569 131.482C148.081 129.674 148.77 127.779 148.196 125.971C148.54 124.98 147.492 123.215 148.942 123.029C150.592 122.813 150.162 124.765 150.434 125.77C155.214 143.466 159.95 161.176 168.661 177.466C174.747 188.833 181.406 199.855 188.238 210.777C198.815 227.684 209.852 244.289 221.018 260.794C226.141 268.372 231.452 275.849 236.776 283.527C234.365 284.604 231.897 284.862 229.514 285.293C222.553 286.556 215.593 287.732 208.618 288.866C205.13 289.44 201.628 289.885 198.126 290.33C197.179 290.445 196.519 290.215 196.045 289.082C189.659 273.768 183.401 258.397 177.359 242.925C170.685 225.847 164.169 208.725 158.472 191.301C155.3 181.57 152.602 171.711 150.98 161.592C150.836 160.703 150.894 159.77 150.851 158.866C150.42 158.148 150.965 157.272 150.463 156.569C150.291 154.589 150.104 152.622 149.932 150.642C149.53 149.91 150.033 149.034 149.559 148.317C149.53 147.413 149.502 146.523 149.473 145.619C149.042 144.729 149.602 143.71 149.1 142.834L149.114 142.849Z" fill="#F9F5E3"/>
<path d="M162.003 122.857C164.371 122.125 165.519 123.732 166.596 125.928C172.279 137.51 178.58 148.748 185.842 159.411C192.099 168.625 199.089 177.294 206.293 185.776C214.144 195.004 221.951 204.276 229.903 213.418C235.629 219.991 241.599 226.349 247.412 232.865C252.306 238.362 257.157 243.887 262.338 249.126C263.558 250.36 262.927 250.791 261.778 251.379C254.502 255.125 255.004 260.048 247.412 263.047C245.647 263.736 235.701 262.301 233.964 263.047C232.701 263.593 232.012 263.191 231.309 262.157C224.808 252.499 218.048 243.012 211.819 233.166C202.461 218.384 192.602 203.946 183.789 188.819C176.197 175.787 169.165 162.511 164.73 148.03C162.434 140.553 160.41 132.989 158.315 125.44C157.597 122.871 157.683 122.842 160.496 122.842C160.884 122.842 161.257 122.842 162.017 122.842L162.003 122.857Z" fill="#F9F5E3"/>
<path d="M28.4847 261.655C28.0398 261.554 27.5949 261.511 27.1787 261.353C18.754 258.239 10.2863 255.239 2.09133 251.536C-0.621205 250.302 -0.578149 250.058 1.54595 247.79C7.17195 241.763 12.8267 235.749 18.3665 229.635C24.5523 222.804 30.738 215.958 36.7228 208.954C45.6498 198.52 54.6341 188.143 63.3171 177.494C73.0047 165.625 81.5729 153.067 88.9355 139.634C91.6911 134.596 94.4036 129.53 97.1449 124.463C97.8625 123.143 101.379 122.138 102.498 122.985C103.259 123.574 102.599 124.32 102.455 124.837C100.862 130.821 99.2259 136.806 97.4749 142.748C94.2027 153.899 90.2415 164.778 84.6299 174.997C78.9465 185.359 72.8612 195.492 66.575 205.509C57.5476 219.89 48.2188 234.07 38.7177 248.135C36.0052 252.153 33.307 256.186 30.5658 260.176C30.0921 260.88 29.7621 261.956 28.4847 261.669V261.655Z" fill="#F9F5E3"/>
<path d="M99.7998 114.948C99.7998 109.322 99.8859 103.696 99.7998 98.0843C99.7711 96.4481 100.159 95.8453 101.924 95.8453C121.83 95.9027 141.736 95.9027 161.643 95.8453C163.25 95.8453 163.709 96.319 163.695 97.912C163.609 103.61 163.666 109.308 163.681 115.005C163.064 115.479 162.36 115.264 161.7 115.264C141.722 115.264 121.73 115.264 101.752 115.264C101.106 115.264 100.374 115.551 99.8141 114.948H99.7998Z" fill="#F9F5E3"/>
<path d="M98.9092 87.2927C120.121 87.2927 141.334 87.2927 162.56 87.2784C163.551 87.2784 164.541 87.221 165.517 87.1923C164.871 87.9816 163.967 87.6659 163.178 87.6659C142.482 87.6802 121.772 87.6802 101.076 87.6659C100.344 87.6659 99.5407 87.9099 98.9092 87.2927Z" fill="#F9F5E3"/>
<path d="M99.8015 114.948C100.404 114.992 101.007 115.092 101.61 115.092C121.846 115.092 142.068 115.092 162.305 115.092C162.764 115.092 163.209 115.049 163.668 115.02C163.037 115.838 162.132 115.508 161.343 115.508C141.58 115.523 121.832 115.523 102.069 115.508C101.294 115.508 100.361 115.881 99.7871 114.948H99.8015Z" fill="#F9F5E3"/>
<path d="M137.157 314.557C139.884 313.796 142.654 314.284 145.41 314.184C142.697 315.045 139.913 314.37 137.157 314.557Z" fill="#F9F5E3"/>
<path d="M116.692 314.184C119.434 314.284 122.218 313.796 124.93 314.557C122.189 314.37 119.405 315.059 116.692 314.184Z" fill="#F9F5E3"/>
<path d="M140.847 128.813C140.014 126.875 140.703 124.809 140.33 122.842C141.464 124.751 140.603 126.832 140.847 128.813Z" fill="#F9F5E3"/>
<path d="M180.172 56.6069C180.172 54.7985 180.172 52.9902 180.172 51.1675C180.803 52.9758 180.818 54.7985 180.172 56.6069Z" fill="#F9F5E3"/>
<path d="M148.195 125.971C148.956 127.765 148.496 129.645 148.568 131.482C147.75 129.688 148.353 127.808 148.195 125.971Z" fill="#F9F5E3"/>
<path d="M120.267 127.42C120.195 128.956 120.654 130.535 119.893 132.027C120.023 130.492 119.463 128.913 120.267 127.42Z" fill="#F9F5E3"/>
<path d="M107.118 313.725C108.654 313.797 110.233 313.352 111.711 314.098C110.175 313.969 108.596 314.529 107.118 313.725Z" fill="#F9F5E3"/>
<path d="M112.172 134.223C112.215 132.831 111.827 131.41 112.545 130.075C112.416 131.453 112.976 132.903 112.172 134.223Z" fill="#F9F5E3"/>
<path d="M141.304 137.941C140.572 136.621 140.974 135.2 140.931 133.808C141.735 135.128 141.161 136.563 141.304 137.941Z" fill="#F9F5E3"/>
<path d="M119.806 136.09C119.749 137.324 120.151 138.601 119.433 139.764C119.577 138.544 119.017 137.238 119.806 136.09Z" fill="#F9F5E3"/>
<path d="M90.587 24.2434C90.5296 25.4777 90.9315 26.755 90.2139 27.9175C90.3574 26.6976 89.7977 25.4059 90.587 24.2434Z" fill="#F9F5E3"/>
<path d="M173.714 21.9764C172.996 20.8139 173.384 19.5365 173.341 18.3022C174.13 19.4648 173.57 20.7564 173.714 21.9764Z" fill="#F9F5E3"/>
<path d="M91.045 16.9385C90.9876 18.1728 91.3895 19.4501 90.6719 20.6126C90.8154 19.3927 90.2557 18.0866 91.045 16.9385Z" fill="#F9F5E3"/>
<path d="M173.253 14.6716C172.535 13.509 172.923 12.2317 172.88 10.9974C173.669 12.16 173.11 13.4516 173.253 14.6716Z" fill="#F9F5E3"/>
<path d="M91.504 9.61926C91.4466 10.8535 91.8485 12.1309 91.1309 13.3077C91.2744 12.0878 90.7147 10.7818 91.504 9.61926Z" fill="#F9F5E3"/>
<path d="M172.796 7.37976C172.078 6.21724 172.48 4.92556 172.422 3.69128C173.226 4.8538 172.666 6.14548 172.796 7.37976Z" fill="#F9F5E3"/>
<path d="M91.9642 2.77295C91.9211 3.8637 92.2943 4.99751 91.591 6.00216C91.7058 4.92575 91.1892 3.77759 91.9642 2.77295Z" fill="#F9F5E3"/>
<path d="M174.157 28.8363C173.468 27.8173 173.827 26.6835 173.784 25.6071C174.545 26.6117 174.042 27.7599 174.157 28.8363Z" fill="#F9F5E3"/>
<path d="M148.655 136.003C149.343 137.022 148.985 138.156 149.028 139.233C148.267 138.228 148.769 137.08 148.655 136.003Z" fill="#F9F5E3"/>
<path d="M111.712 141.069C111.755 139.993 111.382 138.859 112.086 137.855C111.971 138.931 112.473 140.079 111.712 141.069Z" fill="#F9F5E3"/>
<path d="M141.768 144.342C141.064 143.337 141.423 142.203 141.395 141.113C142.17 142.117 141.653 143.265 141.768 144.342Z" fill="#F9F5E3"/>
<path d="M152.673 314.098C153.678 313.409 154.812 313.768 155.903 313.725C154.898 314.485 153.75 313.969 152.673 314.098Z" fill="#F9F5E3"/>
<path d="M100.72 313.279C101.796 313.322 102.93 312.964 103.935 313.652C102.858 313.523 101.71 314.04 100.72 313.279Z" fill="#F9F5E3"/>
<path d="M142.224 149.809C141.564 148.963 141.866 147.987 141.851 147.054C142.583 147.886 142.124 148.891 142.224 149.809Z" fill="#F9F5E3"/>
<path d="M66.9492 310.078C67.8821 310.093 68.858 309.791 69.7048 310.452C68.7863 310.351 67.7816 310.796 66.9492 310.078Z" fill="#F9F5E3"/>
<path d="M84.2866 311.902C85.2195 311.916 86.2098 311.615 87.0566 312.275C86.1237 312.174 85.1334 312.634 84.2866 311.902Z" fill="#F9F5E3"/>
<path d="M171.389 312.734C172.235 312.073 173.226 312.375 174.159 312.36C173.312 313.092 172.307 312.633 171.389 312.734Z" fill="#F9F5E3"/>
<path d="M94.7905 312.82C95.7234 312.835 96.6993 312.533 97.5605 313.193C96.6419 313.093 95.6373 313.538 94.7905 312.82Z" fill="#F9F5E3"/>
<path d="M133.585 41.1219C132.653 41.7821 131.72 41.7821 130.772 41.1219C131.705 41.1219 132.638 41.1219 133.585 41.1219Z" fill="#F9F5E3"/>
<path d="M160.883 313.638C161.744 312.992 162.72 313.294 163.653 313.279C162.806 313.997 161.801 313.552 160.883 313.638Z" fill="#F9F5E3"/>
<path d="M149.114 142.85C149.774 143.711 149.473 144.687 149.487 145.634C148.755 144.787 149.2 143.782 149.114 142.85Z" fill="#F9F5E3"/>
<path d="M119.348 142.935C119.333 143.868 119.635 144.858 118.975 145.705C119.075 144.772 118.616 143.782 119.348 142.935Z" fill="#F9F5E3"/>
<path d="M118.888 148.417C118.888 149.207 119.132 150.039 118.515 150.728C118.586 149.953 118.213 149.106 118.888 148.417Z" fill="#F9F5E3"/>
<path d="M149.573 148.331C150.176 149.034 149.946 149.867 149.946 150.656C149.272 149.967 149.645 149.12 149.573 148.331Z" fill="#F9F5E3"/>
<path d="M110.808 151.576C110.808 150.786 110.564 149.954 111.181 149.265C111.11 150.04 111.483 150.887 110.808 151.576Z" fill="#F9F5E3"/>
<path d="M150.463 156.584C151.08 157.273 150.85 158.091 150.85 158.881C150.161 158.206 150.534 157.359 150.463 156.584Z" fill="#F9F5E3"/>
<path d="M192.858 310.452C193.547 309.85 194.379 310.093 195.169 310.065C194.494 310.754 193.633 310.366 192.858 310.452Z" fill="#F9F5E3"/>
<path d="M75.1577 310.983C75.9471 310.983 76.7795 310.754 77.4827 311.356C76.6934 311.285 75.8466 311.672 75.1577 310.983Z" fill="#F9F5E3"/>
<path d="M180.989 311.829C181.678 311.212 182.51 311.442 183.299 311.442C182.625 312.131 181.764 311.743 180.989 311.829Z" fill="#F9F5E3"/>
<path d="M176.87 312.275C177.559 311.672 178.391 311.902 179.181 311.902C178.492 312.576 177.645 312.203 176.87 312.275Z" fill="#F9F5E3"/>
<path d="M166.379 313.193C167.068 312.59 167.886 312.82 168.676 312.82C168.001 313.495 167.154 313.121 166.379 313.193Z" fill="#F9F5E3"/>
<path d="M102.054 20.1387C101.423 19.4642 101.681 18.6174 101.652 17.8424C102.341 18.517 101.968 19.3637 102.054 20.1387Z" fill="#F9F5E3"/>
<path d="M111.267 146.537C111.267 145.748 111.023 144.915 111.625 144.226C111.554 145.001 111.927 145.848 111.267 146.537Z" fill="#F9F5E3"/>
</svg>
