<svg width="355" height="320" viewBox="0 0 355 320" fill="none" xmlns="http://www.w3.org/2000/svg">
<path d="M278.785 1.17953C284.096 2.3761 289.496 3.33918 294.661 5.1778C304.759 8.76748 313.865 14.0207 321.978 21.0833C338.817 35.7339 347.952 54.7038 352.942 76.0084C353.73 79.3354 354.168 82.75 354.781 86.1354C355.073 90.0461 355.073 93.9568 354.781 97.8675C352.797 116.575 346.055 133.677 337.125 150.049C329.303 164.408 320.081 177.804 310.158 190.732C303.329 199.604 296.062 208.097 288.678 216.531C277.121 229.694 264.922 242.184 252.373 254.384C237.839 268.509 222.838 282.109 207.312 295.154C198.032 302.946 188.722 310.68 179.178 318.152C177.894 319.144 177.136 319.436 175.647 318.297C167.884 312.461 160.413 306.273 153.029 299.999C147.192 295.037 141.268 290.193 135.489 285.144C130.878 281.116 126.384 276.914 121.86 272.77C116.578 267.925 111.266 263.11 106.13 258.119C98.3668 250.531 90.5454 242.972 83.1326 235.063C74.0562 225.374 65.1258 215.568 56.5747 205.354C48.8409 196.073 41.4864 186.53 34.4238 176.753C29.0538 169.311 24.2676 161.49 19.7732 153.464C15.5123 145.847 11.6016 138.054 8.36208 129.97C4.83077 121.098 1.9707 111.993 1.09516 102.391C0.657398 101.457 1.18272 100.377 0.686583 99.4727C0.628214 98.1885 0.599029 96.9336 0.54066 95.6495C0.248816 93.0521 0.248816 90.4547 0.54066 87.8281C0.920058 76.7088 4.04279 66.2024 8.21616 56.0462C12.5646 45.4523 18.6058 35.8506 26.5148 27.3871C37.1379 16.0344 49.6872 8.06706 64.6296 3.80613C70.2039 2.23017 75.8948 1.38383 81.5858 0.595846C86.051 0.304002 90.5454 0.304002 95.0106 0.595846C114.126 2.5512 131.112 9.43873 145.879 21.9588C160.063 33.9828 169.46 49.1587 175.968 66.3192C176.143 66.7569 176.348 67.1655 176.435 67.6325C176.581 68.3037 176.756 69.0333 177.486 69.0917C178.507 69.2084 178.215 68.1578 178.39 67.6616C182.33 56.7175 187.525 46.4446 194.588 37.1347C202.876 26.2198 212.916 17.4061 225.056 10.8979C236.088 5.00269 247.879 1.82159 260.253 0.566661C264.718 0.274817 269.212 0.274817 273.678 0.566661C274.407 0.595846 275.137 0.654215 275.866 0.683399C276.742 1.26709 277.822 0.654215 278.726 1.15035L278.785 1.17953Z" fill="#F9F5E3"/>
<path d="M273.707 0.590985C269.242 0.590985 264.747 0.590985 260.282 0.590985C264.747 -0.196995 269.242 -0.196995 273.707 0.590985Z" fill="#F9F5E3"/>
<path d="M95.0415 0.590985C90.5763 0.590985 86.0819 0.590985 81.6167 0.590985C86.0819 -0.196995 90.5763 -0.196995 95.0415 0.590985Z" fill="#F9F5E3"/>
<path d="M0.569096 87.8257C0.569096 90.4231 0.569096 93.0205 0.569096 95.6471C-0.189699 93.0497 -0.189699 90.4523 0.569096 87.8257Z" fill="#F9F5E3"/>
<path d="M278.785 1.17562C277.793 1.17562 276.801 1.37991 275.925 0.708665C276.888 0.796219 277.939 0.329268 278.785 1.17562Z" fill="#F9F5E3"/>
<path d="M0.714348 99.438C1.35641 100.343 1.1813 101.364 1.12293 102.356C0.305766 101.481 0.743533 100.43 0.714348 99.438Z" fill="#F9F5E3"/>
</svg>
