<svg width="217" height="218" viewBox="0 0 217 218" fill="none" xmlns="http://www.w3.org/2000/svg">
<path d="M101.948 56.8256C106.221 56.8256 110.52 56.8256 114.793 56.8256C115.436 57.1088 116.157 56.8256 116.826 57.0315C127.174 57.7523 137.291 59.7086 147.098 63.055C159.119 67.1479 170.162 73.0426 180.047 81.0481C188.773 88.1012 195.852 96.5959 201.644 106.172C202.493 107.562 202.442 108.977 201.644 110.393C199.533 114.126 197.113 117.652 194.462 121.024C191.064 125.323 187.306 129.287 183.213 132.917C177.782 137.73 171.861 141.823 165.58 145.427C159.171 149.082 152.427 151.991 145.425 154.256C138.217 156.573 130.855 158.375 123.288 159.044C121.022 159.25 118.783 159.507 116.543 159.739C115.977 159.919 115.359 159.713 114.819 159.971C110.546 159.971 106.273 159.971 101.974 159.971C101.407 159.713 100.815 159.945 100.249 159.739C94.8177 159.405 89.3863 158.787 84.0579 157.68C79.1156 156.65 74.2247 155.312 69.4368 153.664C64.9321 152.12 60.5046 150.421 56.2831 148.259C50.8002 145.453 45.446 142.364 40.4779 138.631C35.8703 135.182 31.5715 131.398 27.6073 127.254C22.7422 122.183 18.5979 116.545 15.1485 110.419C14.3248 108.926 14.4278 107.381 15.2515 105.966C17.7227 101.718 20.6057 97.7542 23.7461 93.9702C26.1401 91.0872 28.5597 88.2557 31.3141 85.7845C35.1238 82.3867 39.0107 79.0918 43.258 76.2088C48.2003 72.8624 53.3486 69.9536 58.7285 67.4053C67.6864 63.158 77.082 60.4294 86.7865 58.6532C91.1367 57.8553 95.5127 57.3662 99.9145 57.0315C100.584 56.7999 101.305 57.083 101.974 56.7999L101.948 56.8256Z" fill="#22223B"/>
<path d="M112.194 214.566C111.628 216.599 110.366 217.655 108.616 217.964C106.505 218.324 104.626 215.93 104.652 213.871C104.755 206.406 104.703 198.941 104.703 191.476C104.703 189.082 104.703 186.662 104.703 184.268C104.703 181.952 105.759 180.51 107.689 180.175C109.645 179.841 111.344 180.973 112.039 183.084C112.117 183.316 112.142 183.599 112.194 183.856C112.374 184.423 112.271 184.989 112.271 185.555C112.271 194.668 112.271 203.754 112.271 212.867C112.271 213.433 112.348 213.999 112.194 214.566Z" fill="#22223B"/>
<path d="M112.194 32.9612C112.014 34.171 111.55 35.2264 110.521 35.9471C108.05 37.6203 105.115 36.0244 104.858 33.5789C104.678 31.9315 104.781 30.2583 104.781 28.5851C104.781 20.4767 104.781 12.3424 104.781 4.23392C104.781 3.66761 104.678 3.1013 104.883 2.535C105.707 0.424214 106.531 -0.0906109 108.873 0.0123542C110.547 0.0895779 111.628 1.09349 112.22 3.15279C112.4 3.92502 112.297 4.69726 112.297 5.4695C112.297 14.0413 112.297 22.6389 112.297 31.2108C112.297 31.7771 112.374 32.3434 112.22 32.9097L112.194 32.9612Z" fill="#22223B"/>
<path d="M60.7878 44.8799C59.6809 47.3768 57.776 48.2005 55.4851 47.3253C54.2752 46.862 53.9148 45.7809 53.5287 44.7255C50.7229 37.415 47.9429 30.0787 45.1628 22.7424C44.8282 21.8158 44.545 20.8376 44.9311 19.8337C45.446 18.4951 46.141 17.2338 47.8399 17.311C50.2853 17.414 51.4694 18.0318 52.2417 20.0654C54.8673 27.067 57.4671 34.1201 60.067 41.1217C60.2987 41.7395 60.5303 42.3573 60.7878 43.0008C60.9422 43.6186 60.9165 44.2364 60.7878 44.8799Z" fill="#22223B"/>
<path d="M171.399 195.799C171.399 197.601 170.241 199.171 168.722 199.454C166.946 199.789 164.861 198.708 164.217 196.983C163.11 193.997 162.081 191.011 160.999 187.999C159.378 183.52 157.705 179.067 156.134 174.588C155.233 171.988 155.928 169.852 157.859 169.363C160.176 168.771 162.235 169.568 163.187 172.323C165.684 179.453 168.207 186.558 170.781 193.637C171.039 194.357 171.476 195.027 171.373 195.799H171.399Z" fill="#22223B"/>
<path d="M171.398 21.3769C171.501 22.4066 171.012 23.3075 170.677 24.2084C168.129 31.1328 165.529 38.0315 162.929 44.9559C162.131 47.0924 160.381 48.0191 158.373 47.3756C156.314 46.732 155.181 44.6985 155.928 42.6134C157.318 38.6493 158.862 34.7624 160.329 30.8239C161.668 27.2717 162.981 23.7194 164.319 20.1671C164.937 18.4939 166.816 17.6187 168.901 17.9533C170.291 18.185 171.449 19.7295 171.424 21.4026L171.398 21.3769Z" fill="#22223B"/>
<path d="M60.7114 173.483C60.4797 175.182 59.4243 177.164 58.6778 179.223C56.6185 184.886 54.4305 190.524 52.294 196.161C51.496 198.272 50.2089 199.044 47.9694 199.199C46.1161 199.327 44.4944 197.113 45.0349 195.183C46.7081 189.391 49.1793 183.908 51.1871 178.219C51.9593 176.031 52.7573 173.869 53.6068 171.707C54.276 170.059 56.464 168.978 58.1887 169.39C59.553 169.725 60.7114 171.346 60.7114 173.457V173.483Z" fill="#22223B"/>
<path d="M0.141577 53.0384C1.22271 49.7692 4.26018 49.0742 6.86004 51.3909C11.3648 55.3808 15.921 59.3192 20.4772 63.2576C21.9959 64.5704 22.3048 66.9129 21.0692 68.4059C19.499 70.285 17.311 70.5939 15.6378 69.2296C12.2142 66.3981 8.94509 63.3606 5.54724 60.5033C4.3374 59.4994 3.33349 58.2381 1.91772 57.4144C0.939556 56.8223 0.296024 55.8184 0.115836 54.6343C-0.0386119 54.1195 -0.0386119 53.6047 0.115836 53.0641L0.141577 53.0384Z" fill="#22223B"/>
<path d="M0.42434 162.182C0.758976 160.226 2.35493 159.144 3.66774 158.012C5.21221 156.673 6.73095 155.309 8.24968 153.945C10.5664 151.86 12.8059 149.646 15.2513 147.664C16.5898 146.583 18.2888 146.377 19.8847 147.226C21.2748 147.973 21.8925 149.234 21.8411 150.83C21.8153 151.731 21.4292 152.4 20.8114 152.992C16.8215 156.776 12.7029 160.457 8.53284 164.035C8.01801 164.473 7.52893 164.962 7.06558 165.451C5.2637 167.382 1.5827 167.536 0.450081 163.701C0.269892 163.186 0.321375 162.671 0.42434 162.156V162.182Z" fill="#22223B"/>
<path d="M216.29 164.062C215.287 166.816 211.863 167.974 208.98 165.143C205.634 161.874 202.133 158.759 198.632 155.67C197.757 154.898 196.83 154.151 196.006 153.302C194.385 151.603 194.23 149.492 195.646 147.948C197.036 146.429 199.301 146.3 201 147.767C204.578 150.856 208.131 153.997 211.657 157.137C213.304 158.604 215.209 159.84 216.29 161.874C216.445 162.594 216.445 163.341 216.29 164.062Z" fill="#22223B"/>
<path d="M216.291 54.9182C215.004 57.2349 212.764 58.5735 210.911 60.2724C207.899 63.0525 204.707 65.6523 201.67 68.4066C199.353 70.5174 197.397 70.5174 195.621 68.2779C194.308 66.6047 195.003 64.1851 197.088 62.6406C198.272 61.7396 199.276 60.607 200.408 59.6289C203.703 56.8488 206.818 53.8628 210.01 50.9541C211.554 49.564 215.081 49.4611 216.317 52.7045C216.471 53.4252 216.497 54.1717 216.317 54.8925L216.291 54.9182Z" fill="#22223B"/>
<path d="M64.3142 108.049C64.1598 85.68 82.1014 65.679 105.655 64.3404C131.988 62.8217 151.526 83.3117 152.581 106.093C153.765 131.602 134.15 151.603 110.494 152.556C84.727 153.611 64.2113 133.25 64.3142 108.075V108.049Z" fill="#F9F5E3"/>
<path d="M73.8898 69.7729C51.186 89.954 50.6454 126.558 74.0442 147.203C71.3671 146.688 69.0504 145.787 66.7852 144.86C48.6376 137.447 34.0166 125.734 23.231 109.311C22.7419 108.591 22.7162 108.102 23.2053 107.381C35.3294 89.1818 51.8038 76.6973 72.5512 69.8758C72.9631 69.7471 73.3235 69.5412 73.8898 69.7729Z" fill="#F9F5E3"/>
<path d="M142.593 147.046C167.099 124.728 164.473 89.0253 142.542 69.7194C143.829 69.462 144.833 70.054 145.837 70.4144C165.76 77.4675 181.668 89.7203 193.406 107.327C193.87 108.022 193.999 108.46 193.484 109.232C181.282 127.586 164.731 140.173 143.777 146.943C143.417 147.046 143.108 147.226 142.593 147.072V147.046Z" fill="#F9F5E3"/>
<path d="M82.9252 108.254C82.8737 94.1996 94.4058 82.6932 108.512 82.7447C122.67 82.7962 134.022 94.1738 134.047 108.332C134.073 122.335 122.618 133.893 108.666 133.944C94.3543 133.97 82.9767 122.618 82.9252 108.254Z" fill="#22223B"/>
</svg>
