<svg width="793" height="259" viewBox="0 0 793 259" fill="none" xmlns="http://www.w3.org/2000/svg">
<path d="M91.344 87.4332L89.8002 107.632C87.5702 111.32 84.7398 114.622 81.3091 117.538C77.9641 120.368 73.9758 122.641 69.3443 124.357C64.7985 125.986 59.5666 126.801 53.6485 126.801C44.7286 126.715 36.7949 124.743 29.8476 120.883C22.9003 117.023 17.454 111.62 13.5086 104.673C9.64902 97.6397 7.71922 89.363 7.71922 79.8426C7.71922 70.4938 9.64902 62.3457 13.5086 55.3984C17.3682 48.3653 22.7717 42.919 29.719 39.0594C36.752 35.114 44.9859 33.1413 54.4205 33.1413C60.7674 33.1413 66.471 33.999 71.5314 35.7144C76.6775 37.344 81.1375 39.4025 84.9114 41.8898L87.4844 60.0299H86.3266C84.4396 52.4823 80.58 46.7786 74.7477 42.919C68.9154 38.9736 62.1397 37.0009 54.4205 37.0009C46.8728 37.0009 40.3115 38.8021 34.7365 42.4044C29.2472 45.9209 24.9588 50.8955 21.8711 57.3282C18.8692 63.6751 17.3682 71.137 17.3682 79.7139C17.3682 88.2908 18.8692 95.7956 21.8711 102.228C24.9588 108.661 29.2044 113.678 34.6078 117.281C40.097 120.883 46.4439 122.77 53.6485 122.942C59.7381 122.942 65.356 121.827 70.5022 119.597C75.7341 117.281 80.1083 113.55 83.6248 108.404C87.1414 103.172 89.3714 96.1816 90.3148 87.4332H91.344ZM177.769 47.8078V125H169.535V47.8078H177.769ZM122.062 47.8078V125H113.828V47.8078H122.062ZM170.822 84.9887V88.8483H120.647V84.9887H170.822ZM114.214 116.766V125H104.823V123.713C104.823 123.713 105.08 123.713 105.594 123.713C106.109 123.713 106.366 123.713 106.366 123.713C108.425 123.713 110.14 123.027 111.513 121.655C112.971 120.283 113.742 118.653 113.828 116.766H114.214ZM121.676 116.766H122.062C122.062 118.653 122.791 120.283 124.249 121.655C125.707 123.027 127.466 123.713 129.524 123.713C129.524 123.713 129.781 123.713 130.296 123.713C130.811 123.713 131.068 123.713 131.068 123.713V125H121.676V116.766ZM121.676 56.0417V47.8078H131.068V49.0944C131.068 49.0944 130.811 49.0944 130.296 49.0944C129.781 49.0944 129.524 49.0944 129.524 49.0944C127.466 49.0944 125.707 49.7805 124.249 51.1528C122.791 52.4394 122.062 54.069 122.062 56.0417H121.676ZM114.214 56.0417H113.828C113.742 54.069 112.971 52.4394 111.513 51.1528C110.14 49.7805 108.425 49.0944 106.366 49.0944C106.366 49.0944 106.109 49.0944 105.594 49.0944C105.08 49.0944 104.823 49.0944 104.823 49.0944V47.8078H114.214V56.0417ZM169.921 116.766V125H160.53V123.713C160.53 123.713 160.787 123.713 161.301 123.713C161.816 123.713 162.073 123.713 162.073 123.713C164.132 123.713 165.847 123.027 167.22 121.655C168.678 120.283 169.449 118.653 169.535 116.766H169.921ZM177.383 116.766H177.769C177.855 118.653 178.584 120.283 179.956 121.655C181.414 123.027 183.173 123.713 185.231 123.713C185.231 123.713 185.488 123.713 186.003 123.713C186.518 123.713 186.775 123.713 186.775 123.713V125H177.383V116.766ZM177.383 56.0417V47.8078H186.775V49.0944C186.775 49.0944 186.518 49.0944 186.003 49.0944C185.488 49.0944 185.231 49.0944 185.231 49.0944C183.173 49.0944 181.414 49.7805 179.956 51.1528C178.584 52.4394 177.855 54.069 177.769 56.0417H177.383ZM169.921 56.0417H169.535C169.449 54.069 168.678 52.4394 167.22 51.1528C165.847 49.7805 164.132 49.0944 162.073 49.0944C162.073 49.0944 161.816 49.0944 161.301 49.0944C160.787 49.0944 160.53 49.0944 160.53 49.0944V47.8078H169.921V56.0417ZM219.465 47.8078V125H211.36V47.8078H219.465ZM211.746 116.766V125H200.81V123.713C200.81 123.713 201.11 123.713 201.711 123.713C202.311 123.713 202.611 123.713 202.611 123.713C205.013 123.713 207.028 123.027 208.658 121.655C210.373 120.283 211.274 118.653 211.36 116.766H211.746ZM219.079 116.766H219.465C219.551 118.653 220.408 120.283 222.038 121.655C223.753 123.027 225.812 123.713 228.213 123.713C228.213 123.713 228.471 123.713 228.985 123.713C229.586 123.713 229.886 123.713 229.886 123.713L230.015 125H219.079V116.766ZM219.079 56.0417V47.8078H230.015L229.886 49.0944C229.886 49.0944 229.586 49.0944 228.985 49.0944C228.471 49.0944 228.213 49.0944 228.213 49.0944C225.812 49.0944 223.753 49.7805 222.038 51.1528C220.408 52.4394 219.551 54.069 219.465 56.0417H219.079ZM211.746 56.0417H211.36C211.274 54.069 210.373 52.4394 208.658 51.1528C207.028 49.7805 205.013 49.0944 202.611 49.0944C202.526 49.0944 202.182 49.0944 201.582 49.0944C201.067 49.0944 200.81 49.0944 200.81 49.0944V47.8078H211.746V56.0417ZM320.752 92.5793L319.337 110.205C317.107 113.636 314.191 116.595 310.589 119.082C306.987 121.569 302.913 123.499 298.367 124.871C293.821 126.158 289.018 126.801 283.958 126.801C275.295 126.715 267.747 125.043 261.315 121.784C254.968 118.524 250.079 113.893 246.648 107.889C243.217 101.885 241.502 94.7235 241.502 86.4039C241.502 77.9986 243.217 70.794 246.648 64.7901C250.079 58.7863 254.968 54.1548 261.315 50.8955C267.747 47.6363 275.295 46.0067 283.958 46.0067C289.275 46.0067 294.636 46.6929 300.039 48.0652C305.443 49.4375 310.117 51.3673 314.062 53.8546L316.893 71.9947H315.735C313.848 64.104 310.031 58.4432 304.285 55.0124C298.624 51.5817 291.805 49.8663 283.829 49.8663C277.053 49.8663 271.178 51.3673 266.203 54.3692C261.315 57.2853 257.498 61.488 254.753 66.9772C252.094 72.3807 250.765 78.8562 250.765 86.4039C250.765 93.7801 252.094 100.213 254.753 105.702C257.498 111.105 261.357 115.308 266.332 118.31C271.307 121.226 277.182 122.727 283.958 122.813C290.39 122.813 296.18 121.784 301.326 119.725C306.558 117.581 310.803 114.279 314.062 109.819C317.322 105.359 319.166 99.6124 319.595 92.5793H320.752Z" fill="#22223B"/>
<path d="M444.913 34.9425V125H436.551V34.9425H444.913ZM383.931 34.9425V125H375.569V34.9425H383.931ZM437.709 78.5561V82.4157H382.645V78.5561H437.709ZM375.955 115.608V125H365.663V123.713C365.663 123.713 365.92 123.713 366.435 123.713C367.035 123.713 367.335 123.713 367.335 123.713C369.565 123.713 371.452 122.942 372.996 121.398C374.626 119.768 375.483 117.838 375.569 115.608H375.955ZM375.955 44.3342H375.569C375.483 42.1042 374.626 40.2173 372.996 38.6734C371.452 37.0438 369.565 36.229 367.335 36.229C367.335 36.229 367.035 36.229 366.435 36.229C365.92 36.229 365.663 36.229 365.663 36.229V34.9425H375.955V44.3342ZM383.545 115.608H383.931C384.017 117.838 384.832 119.768 386.376 121.398C388.005 122.942 389.935 123.713 392.165 123.713C392.165 123.713 392.423 123.713 392.937 123.713C393.452 123.713 393.752 123.713 393.838 123.713V125H383.545V115.608ZM383.545 44.3342V34.9425H393.838V36.229C393.752 36.229 393.452 36.229 392.937 36.229C392.423 36.229 392.165 36.229 392.165 36.229C389.935 36.229 388.005 37.0438 386.376 38.6734C384.832 40.2173 384.017 42.1042 383.931 44.3342H383.545ZM436.937 115.608V125H426.644V123.713C426.73 123.713 427.03 123.713 427.545 123.713C428.06 123.713 428.317 123.713 428.317 123.713C430.547 123.713 432.477 122.942 434.106 121.398C435.736 119.768 436.551 117.838 436.551 115.608H436.937ZM436.937 44.3342H436.551C436.551 42.1042 435.736 40.2173 434.106 38.6734C432.477 37.0438 430.547 36.229 428.317 36.229C428.317 36.229 428.06 36.229 427.545 36.229C427.03 36.229 426.73 36.229 426.644 36.229V34.9425H436.937V44.3342ZM444.527 115.608H444.913C444.999 117.838 445.814 119.768 447.358 121.398C448.987 122.942 450.917 123.713 453.147 123.713C453.147 123.713 453.404 123.713 453.919 123.713C454.519 123.713 454.82 123.713 454.82 123.713V125H444.527V115.608ZM444.527 44.3342V34.9425H454.82V36.229C454.82 36.229 454.519 36.229 453.919 36.229C453.404 36.229 453.147 36.229 453.147 36.229C450.917 36.229 448.987 37.0438 447.358 38.6734C445.814 40.2173 444.999 42.1042 444.913 44.3342H444.527ZM505.828 46.0067L541.207 124.228H531.044L503.641 57.4569L505.828 46.0067ZM480.998 115.608C480.054 118.181 480.183 120.197 481.383 121.655C482.584 123.027 483.957 123.713 485.5 123.713H486.53V125H461.957V123.713C461.957 123.713 462.128 123.713 462.471 123.713C462.814 123.713 462.986 123.713 462.986 123.713C464.787 123.713 466.631 123.113 468.518 121.912C470.405 120.626 472.035 118.524 473.407 115.608H480.998ZM505.828 46.0067L506.728 54.8838L477.267 124.614H469.161L499.652 59.258C499.652 59.258 499.867 58.7434 500.296 57.7142C500.81 56.6849 501.368 55.4413 501.968 53.9832C502.654 52.4394 503.255 50.9384 503.769 49.4803C504.284 48.0223 504.584 46.8644 504.67 46.0067H505.828ZM521.009 95.0237V98.8833H486.916V95.0237H521.009ZM527.57 115.608H537.348C538.634 118.524 540.221 120.626 542.108 121.912C543.995 123.113 545.796 123.713 547.511 123.713C547.511 123.713 547.683 123.713 548.026 123.713C548.369 123.713 548.541 123.713 548.541 123.713V125H522.167V123.713H523.196C524.654 123.713 525.983 123.027 527.184 121.655C528.385 120.197 528.514 118.181 527.57 115.608ZM579.048 126.801L543.668 48.5798H553.832L581.235 115.351L579.048 126.801ZM579.048 126.801L578.147 117.924L607.609 48.1938H615.714L585.223 113.55C585.223 113.55 584.966 114.064 584.451 115.094C584.022 116.123 583.465 117.409 582.779 118.953C582.178 120.411 581.621 121.869 581.106 123.328C580.591 124.786 580.291 125.943 580.206 126.801H579.048ZM603.878 57.1996C604.821 54.6265 604.693 52.6538 603.492 51.2815C602.291 49.8234 600.919 49.0944 599.375 49.0944H598.474V47.8078H622.919V49.0944C622.919 49.0944 622.747 49.0944 622.404 49.0944C622.061 49.0944 621.889 49.0944 621.889 49.0944C620.088 49.0944 618.244 49.7377 616.357 51.0242C614.47 52.225 612.841 54.2834 611.468 57.1996H603.878ZM557.305 57.1996H547.527C546.241 54.2834 544.654 52.225 542.767 51.0242C540.88 49.7377 539.079 49.0944 537.364 49.0944C537.364 49.0944 537.192 49.0944 536.849 49.0944C536.506 49.0944 536.335 49.0944 536.335 49.0944V47.8078H562.709V49.0944H561.679C560.221 49.0944 558.892 49.8234 557.691 51.2815C556.576 52.6538 556.447 54.6265 557.305 57.1996ZM646.859 47.8078V125H638.625V47.8078H646.859ZM681.467 121.012L681.21 125H646.602V121.012H681.467ZM675.42 84.4741V88.3337H646.602V84.4741H675.42ZM681.338 47.8078V51.7961H646.602V47.8078H681.338ZM688.672 106.603L681.596 125H662.04L666.414 121.012C670.703 121.012 674.134 120.411 676.707 119.211C679.366 117.924 681.51 116.209 683.139 114.064C684.769 111.834 686.184 109.347 687.385 106.603H688.672ZM675.42 88.0764V95.4097H674.005V93.7372C674.005 92.2791 673.576 91.0355 672.719 90.0062C671.861 88.8912 670.531 88.3337 668.73 88.3337V88.0764H675.42ZM675.42 77.3982V84.7314H668.73V84.4741C670.531 84.4741 671.861 83.9595 672.719 82.9303C673.576 81.8153 674.005 80.5287 674.005 79.0707V77.3982H675.42ZM681.338 51.4101V60.2872H679.923V58.3574C679.923 56.5563 679.323 55.0124 678.122 53.7259C677.007 52.4394 675.463 51.7961 673.49 51.7961V51.4101H681.338ZM681.338 45.7494V49.0944L666.672 47.8078C669.331 47.8078 672.161 47.5934 675.163 47.1646C678.165 46.65 680.223 46.1782 681.338 45.7494ZM638.883 116.766L640.555 125H629.362V123.713C629.362 123.713 629.662 123.713 630.263 123.713C630.863 123.713 631.163 123.713 631.163 123.713C633.308 123.713 635.066 123.027 636.438 121.655C637.811 120.283 638.54 118.653 638.625 116.766H638.883ZM638.883 55.913H638.625C638.54 53.9403 637.811 52.3107 636.438 51.0242C635.066 49.7377 633.308 49.0944 631.163 49.0944C631.163 49.0944 630.863 49.0944 630.263 49.0944C629.662 49.0944 629.362 49.0944 629.362 49.0944V47.8078H640.555L638.883 55.913ZM706.413 45.878L777.687 113.035L778.973 126.801L707.699 59.258L706.413 45.878ZM706.67 117.023V125H697.021V123.713C697.021 123.713 697.364 123.713 698.05 123.713C698.822 123.713 699.208 123.713 699.208 123.713C701.181 123.713 702.853 123.07 704.226 121.784C705.598 120.497 706.284 118.91 706.284 117.023H706.67ZM712.073 117.023C712.073 118.91 712.76 120.497 714.132 121.784C715.59 123.07 717.262 123.713 719.149 123.713C719.149 123.713 719.492 123.713 720.179 123.713C720.951 123.713 721.336 123.713 721.336 123.713V125H711.687V117.023H712.073ZM706.413 45.878L711.945 53.0826L712.073 125H706.284V61.9597C706.284 57.5855 706.07 53.8117 705.641 50.6382C705.298 47.4648 705.126 45.878 705.126 45.878H706.413ZM778.973 47.8078V110.333C778.973 113.078 779.059 115.737 779.231 118.31C779.402 120.797 779.574 122.856 779.745 124.485C780.003 126.029 780.131 126.801 780.131 126.801H778.973L773.313 119.983V47.8078H778.973ZM778.587 55.7844V47.8078H788.236V49.0944C788.236 49.0944 787.85 49.0944 787.078 49.0944C786.392 49.0944 786.049 49.0944 786.049 49.0944C784.162 49.0944 782.49 49.7377 781.032 51.0242C779.659 52.3107 778.973 53.8975 778.973 55.7844H778.587ZM773.313 55.7844C773.227 53.8975 772.498 52.3107 771.125 51.0242C769.753 49.7377 768.081 49.0944 766.108 49.0944C766.108 49.0944 765.722 49.0944 764.95 49.0944C764.264 49.0944 763.921 49.0944 763.921 49.0944V47.8078H773.57V55.7844H773.313Z" fill="#F9F5E3"/>
<path d="M375.409 178.896H396.745C402.662 178.896 407.25 180.308 410.507 183.131C413.764 185.9 415.393 189.673 415.393 194.45C415.393 197.925 414.497 200.856 412.706 203.245C410.914 205.634 408.39 207.154 405.133 207.805C409.15 208.348 412.299 209.922 414.579 212.528C416.859 215.08 417.999 218.256 417.999 222.056C417.999 232.914 411.864 238.343 399.595 238.343H375.409V234.108L380.54 233.538V183.782L375.409 183.131V178.896ZM387.054 183.375V233.864H399.432C407.521 233.864 411.566 229.928 411.566 222.056C411.566 218.31 410.371 215.406 407.983 213.343C405.594 211.28 402.201 210.248 397.804 210.248H392.185V205.769H397.804C405.241 205.769 408.96 201.996 408.96 194.45C408.96 191.084 407.874 188.397 405.703 186.388C403.585 184.38 400.464 183.375 396.338 183.375H387.054ZM432.621 214.646C432.621 206.991 434.331 201.073 437.751 196.893C441.225 192.713 446.111 190.623 452.409 190.623C458.761 190.623 463.81 192.876 467.555 197.382C471.301 201.833 473.174 207.887 473.174 215.541C473.174 223.142 471.437 229.032 467.963 233.212C464.488 237.393 459.575 239.483 453.223 239.483C446.926 239.483 441.904 237.257 438.158 232.805C434.466 228.299 432.621 222.246 432.621 214.646ZM466.741 215.46C466.741 209.325 465.465 204.494 462.914 200.965C460.362 197.382 456.915 195.59 452.572 195.59C448.229 195.59 444.863 197.246 442.474 200.558C440.14 203.869 438.972 208.565 438.972 214.646C438.972 220.726 440.248 225.558 442.8 229.141C445.406 232.724 448.853 234.515 453.142 234.515C457.431 234.515 460.769 232.859 463.158 229.548C465.547 226.236 466.741 221.54 466.741 215.46ZM529.778 194.287V229.548C529.778 232.534 530.972 234.027 533.361 234.027C534.718 234.027 535.831 233.864 536.7 233.538L537.514 238.424C535.288 239.13 533.198 239.483 531.244 239.483C526.846 239.483 524.295 237.393 523.589 233.212C517.943 237.393 512.541 239.483 507.384 239.483C502.281 239.483 498.671 238.315 496.553 235.981C494.436 233.592 493.377 229.901 493.377 224.906V196.649L487.677 195.997V191.763H497.042C498.888 191.763 499.811 192.604 499.811 194.287V224.906C499.811 228.326 500.408 230.796 501.602 232.317C502.851 233.837 504.968 234.597 507.954 234.597C513.111 234.597 518.269 232.479 523.426 228.245V196.649L518.54 195.997V191.763H527.335C528.964 191.763 529.778 192.604 529.778 194.287ZM549.825 196.242V191.763H556.909V181.177L563.342 179.711V191.763H572.219V196.242H563.342V229.548C563.342 232.479 564.537 233.945 566.925 233.945C568.5 233.945 570.02 233.647 571.486 233.049L572.219 238.017C569.667 238.994 567.088 239.483 564.482 239.483C561.931 239.483 560.031 238.75 558.782 237.284C557.534 235.764 556.909 233.375 556.909 230.118V196.242H549.825ZM597.344 194.287V229.548C597.344 232.534 598.538 234.027 600.927 234.027C601.85 234.027 602.963 233.864 604.266 233.538L605.08 238.424C602.854 239.13 600.574 239.483 598.24 239.483C593.408 239.483 590.992 236.415 590.992 230.281V196.649L586.106 195.997V191.763H594.901C596.53 191.763 597.344 192.604 597.344 194.287ZM594.249 184.19C593.164 184.19 592.186 183.782 591.318 182.968C590.504 182.154 590.096 181.204 590.096 180.118C590.096 178.978 590.504 178.001 591.318 177.186C592.186 176.318 593.164 175.883 594.249 175.883C595.39 175.883 596.367 176.318 597.181 177.186C597.995 178.001 598.403 178.978 598.403 180.118C598.403 181.204 597.995 182.154 597.181 182.968C596.367 183.782 595.39 184.19 594.249 184.19ZM636.099 239.483C633.113 239.483 630.48 238.75 628.2 237.284C625.974 235.818 624.237 233.891 622.988 231.502C620.491 226.616 619.242 221.133 619.242 215.053C619.242 209.352 620.681 204.032 623.558 199.092C625.024 196.54 627.087 194.504 629.747 192.984C632.462 191.41 635.61 190.623 639.194 190.623C645.98 190.623 650.703 193.636 653.363 199.662V194.206C653.363 192.577 654.204 191.763 655.887 191.763H662.809V195.997L657.109 196.649V257.317L650.676 256.828V232.072C646.658 237.013 641.799 239.483 636.099 239.483ZM650.676 211.063C650.676 205.579 649.59 201.643 647.418 199.255C645.301 196.812 642.532 195.59 639.112 195.59C634.769 195.59 631.43 197.355 629.096 200.883C626.761 204.358 625.594 209.081 625.594 215.053C625.594 220.156 626.463 224.58 628.2 228.326C629.069 230.281 630.372 231.828 632.109 232.968C633.846 234.054 635.909 234.597 638.298 234.597C642.858 234.597 646.984 232.127 650.676 227.186V211.063ZM719.104 194.287V229.548C719.104 232.534 720.298 234.027 722.687 234.027C724.044 234.027 725.157 233.864 726.025 233.538L726.84 238.424C724.614 239.13 722.524 239.483 720.569 239.483C716.172 239.483 713.62 237.393 712.915 233.212C707.269 237.393 701.867 239.483 696.709 239.483C691.606 239.483 687.996 238.315 685.879 235.981C683.762 233.592 682.703 229.901 682.703 224.906V196.649L677.003 195.997V191.763H686.367C688.213 191.763 689.136 192.604 689.136 194.287V224.906C689.136 228.326 689.733 230.796 690.928 232.317C692.176 233.837 694.294 234.597 697.279 234.597C702.437 234.597 707.594 232.479 712.752 228.245V196.649L707.866 195.997V191.763H716.661C718.289 191.763 719.104 192.604 719.104 194.287ZM779.459 216.437H747.375C747.375 222.463 748.895 227.159 751.935 230.525C754.324 233.185 757.581 234.515 761.707 234.515C765.887 234.515 770.366 233.294 775.144 230.851L777.179 235.574C771.696 238.18 766.81 239.483 762.521 239.483C758.287 239.483 754.785 238.804 752.017 237.447C749.302 236.035 747.158 234.162 745.583 231.828C742.543 227.105 741.023 221.757 741.023 215.786C741.023 208.837 742.489 203.001 745.42 198.278C746.941 195.889 749.004 194.016 751.609 192.659C754.27 191.301 757.364 190.623 760.893 190.623C766.702 190.623 771.235 192.604 774.492 196.567C777.804 200.53 779.459 205.824 779.459 212.447V216.437ZM773.026 211.877C773.026 206.937 771.94 203.001 769.769 200.069C767.597 197.083 764.476 195.59 760.404 195.59C756.332 195.59 753.265 197.137 751.202 200.232C749.139 203.326 747.918 207.208 747.538 211.877H773.026Z" fill="#22223B"/>
</svg>
