<svg width="580" height="189" viewBox="0 0 580 189" fill="none" xmlns="http://www.w3.org/2000/svg">
<path d="M66.7678 64.5406L65.6393 79.3047C64.0093 82.0005 61.9405 84.4142 59.4327 86.5457C56.9877 88.6146 54.0725 90.2759 50.6871 91.5298C47.3644 92.721 43.5401 93.3165 39.2143 93.3165C32.6943 93.2539 26.8952 91.8119 21.8171 88.9907C16.739 86.1696 12.758 82.2199 9.87411 77.1418C7.05294 72.001 5.64235 65.9512 5.64235 58.9923C5.64235 52.1587 7.05294 46.2029 9.87411 41.1248C12.6953 35.984 16.6449 32.003 21.723 29.1818C26.8639 26.298 32.8824 24.856 39.7786 24.856C44.4178 24.856 48.5869 25.483 52.2858 26.7368C56.0473 27.928 59.3074 29.4326 62.0658 31.2507L63.9466 44.5102H63.1003C61.721 38.9933 58.8999 34.8242 54.6367 32.003C50.3736 29.1192 45.4209 27.6772 39.7786 27.6772C34.2616 27.6772 29.4656 28.9938 25.3906 31.6269C21.3782 34.1973 18.2436 37.8335 15.9867 42.5354C13.7924 47.1747 12.6953 52.6289 12.6953 58.8982C12.6953 65.1675 13.7924 70.6531 15.9867 75.3551C18.2436 80.057 21.3469 83.7246 25.2965 86.3577C29.3089 88.9907 33.9481 90.37 39.2143 90.4954C43.6655 90.4954 47.7719 89.6804 51.5335 88.0504C55.3577 86.3577 58.555 83.6305 61.1254 79.8689C63.6959 76.0447 65.3259 70.9352 66.0155 64.5406H66.7678ZM129.94 35.5765V92H123.922V35.5765H129.94ZM89.2211 35.5765V92H83.2026V35.5765H89.2211ZM124.862 62.7538V65.575H88.1867V62.7538H124.862ZM83.4847 85.9815V92H76.6199V91.0596C76.6199 91.0596 76.8079 91.0596 77.1841 91.0596C77.5603 91.0596 77.7483 91.0596 77.7483 91.0596C79.253 91.0596 80.5068 90.5581 81.5099 89.555C82.5757 88.5519 83.1399 87.3607 83.2026 85.9815H83.4847ZM88.939 85.9815H89.2211C89.2211 87.3607 89.754 88.5519 90.8198 89.555C91.8856 90.5581 93.1708 91.0596 94.6754 91.0596C94.6754 91.0596 94.8635 91.0596 95.2396 91.0596C95.6158 91.0596 95.8038 91.0596 95.8038 91.0596V92H88.939V85.9815ZM88.939 41.595V35.5765H95.8038V36.5169C95.8038 36.5169 95.6158 36.5169 95.2396 36.5169C94.8635 36.5169 94.6754 36.5169 94.6754 36.5169C93.1708 36.5169 91.8856 37.0184 90.8198 38.0215C89.754 38.9619 89.2211 40.1531 89.2211 41.595H88.939ZM83.4847 41.595H83.2026C83.1399 40.1531 82.5757 38.9619 81.5099 38.0215C80.5068 37.0184 79.253 36.5169 77.7483 36.5169C77.7483 36.5169 77.5603 36.5169 77.1841 36.5169C76.8079 36.5169 76.6199 36.5169 76.6199 36.5169V35.5765H83.4847V41.595ZM124.204 85.9815V92H117.339V91.0596C117.339 91.0596 117.527 91.0596 117.903 91.0596C118.279 91.0596 118.467 91.0596 118.467 91.0596C119.972 91.0596 121.226 90.5581 122.229 89.555C123.295 88.5519 123.859 87.3607 123.922 85.9815H124.204ZM129.658 85.9815H129.94C130.003 87.3607 130.536 88.5519 131.539 89.555C132.605 90.5581 133.89 91.0596 135.394 91.0596C135.394 91.0596 135.582 91.0596 135.959 91.0596C136.335 91.0596 136.523 91.0596 136.523 91.0596V92H129.658V85.9815ZM129.658 41.595V35.5765H136.523V36.5169C136.523 36.5169 136.335 36.5169 135.959 36.5169C135.582 36.5169 135.394 36.5169 135.394 36.5169C133.89 36.5169 132.605 37.0184 131.539 38.0215C130.536 38.9619 130.003 40.1531 129.94 41.595H129.658ZM124.204 41.595H123.922C123.859 40.1531 123.295 38.9619 122.229 38.0215C121.226 37.0184 119.972 36.5169 118.467 36.5169C118.467 36.5169 118.279 36.5169 117.903 36.5169C117.527 36.5169 117.339 36.5169 117.339 36.5169V35.5765H124.204V41.595ZM160.418 35.5765V92H154.493V35.5765H160.418ZM154.775 85.9815V92H146.782V91.0596C146.782 91.0596 147.001 91.0596 147.44 91.0596C147.879 91.0596 148.098 91.0596 148.098 91.0596C149.854 91.0596 151.327 90.5581 152.518 89.555C153.772 88.5519 154.43 87.3607 154.493 85.9815H154.775ZM160.135 85.9815H160.418C160.48 87.3607 161.107 88.5519 162.298 89.555C163.552 90.5581 165.057 91.0596 166.812 91.0596C166.812 91.0596 167 91.0596 167.376 91.0596C167.815 91.0596 168.035 91.0596 168.035 91.0596L168.129 92H160.135V85.9815ZM160.135 41.595V35.5765H168.129L168.035 36.5169C168.035 36.5169 167.815 36.5169 167.376 36.5169C167 36.5169 166.812 36.5169 166.812 36.5169C165.057 36.5169 163.552 37.0184 162.298 38.0215C161.107 38.9619 160.48 40.1531 160.418 41.595H160.135ZM154.775 41.595H154.493C154.43 40.1531 153.772 38.9619 152.518 38.0215C151.327 37.0184 149.854 36.5169 148.098 36.5169C148.036 36.5169 147.785 36.5169 147.346 36.5169C146.97 36.5169 146.782 36.5169 146.782 36.5169V35.5765H154.775V41.595ZM234.454 68.3021L233.419 81.1855C231.789 83.6932 229.658 85.8561 227.024 87.6742C224.391 89.4923 221.413 90.9029 218.091 91.906C214.768 92.8464 211.257 93.3165 207.558 93.3165C201.226 93.2539 195.709 92.0313 191.007 89.649C186.368 87.2667 182.795 83.8813 180.287 79.4928C177.779 75.1043 176.525 69.8695 176.525 63.7883C176.525 57.6444 177.779 52.3782 180.287 47.9897C182.795 43.6012 186.368 40.2158 191.007 37.8334C195.709 35.4511 201.226 34.26 207.558 34.26C211.445 34.26 215.364 34.7615 219.313 35.7646C223.263 36.7677 226.68 38.1783 229.564 39.9963L231.632 53.2559H230.786C229.407 47.4881 226.617 43.3504 222.417 40.8427C218.279 38.335 213.295 37.0811 207.464 37.0811C202.512 37.0811 198.217 38.1783 194.581 40.3725C191.007 42.5041 188.218 45.576 186.211 49.5883C184.268 53.538 183.296 58.2713 183.296 63.7883C183.296 69.1798 184.268 73.8818 186.211 77.8941C188.218 81.8438 191.039 84.9157 194.675 87.11C198.311 89.2415 202.606 90.3386 207.558 90.4013C212.26 90.4013 216.492 89.649 220.254 88.1444C224.078 86.5771 227.181 84.1634 229.564 80.9034C231.946 77.6434 233.294 73.4429 233.607 68.3021H234.454Z" fill="#FFBC42"/>
<path d="M325.209 26.1726V92H319.096V26.1726H325.209ZM280.634 26.1726V92H274.522V26.1726H280.634ZM319.942 58.0519V60.873H279.694V58.0519H319.942ZM274.804 85.1351V92H267.281V91.0596C267.281 91.0596 267.469 91.0596 267.845 91.0596C268.284 91.0596 268.503 91.0596 268.503 91.0596C270.133 91.0596 271.512 90.4954 272.641 89.3669C273.832 88.1757 274.459 86.7652 274.522 85.1351H274.804ZM274.804 33.0375H274.522C274.459 31.4074 273.832 30.0282 272.641 28.8997C271.512 27.7086 270.133 27.113 268.503 27.113C268.503 27.113 268.284 27.113 267.845 27.113C267.469 27.113 267.281 27.113 267.281 27.113V26.1726H274.804V33.0375ZM280.352 85.1351H280.634C280.697 86.7652 281.292 88.1757 282.421 89.3669C283.612 90.4954 285.023 91.0596 286.653 91.0596C286.653 91.0596 286.841 91.0596 287.217 91.0596C287.593 91.0596 287.812 91.0596 287.875 91.0596V92H280.352V85.1351ZM280.352 33.0375V26.1726H287.875V27.113C287.812 27.113 287.593 27.113 287.217 27.113C286.841 27.113 286.653 27.113 286.653 27.113C285.023 27.113 283.612 27.7086 282.421 28.8997C281.292 30.0282 280.697 31.4074 280.634 33.0375H280.352ZM319.378 85.1351V92H311.855V91.0596C311.918 91.0596 312.137 91.0596 312.513 91.0596C312.89 91.0596 313.078 91.0596 313.078 91.0596C314.708 91.0596 316.118 90.4954 317.309 89.3669C318.501 88.1757 319.096 86.7652 319.096 85.1351H319.378ZM319.378 33.0375H319.096C319.096 31.4074 318.501 30.0282 317.309 28.8997C316.118 27.7086 314.708 27.113 313.078 27.113C313.078 27.113 312.89 27.113 312.513 27.113C312.137 27.113 311.918 27.113 311.855 27.113V26.1726H319.378V33.0375ZM324.927 85.1351H325.209C325.271 86.7652 325.867 88.1757 326.995 89.3669C328.187 90.4954 329.597 91.0596 331.227 91.0596C331.227 91.0596 331.415 91.0596 331.791 91.0596C332.23 91.0596 332.45 91.0596 332.45 91.0596V92H324.927V85.1351ZM324.927 33.0375V26.1726H332.45V27.113C332.45 27.113 332.23 27.113 331.791 27.113C331.415 27.113 331.227 27.113 331.227 27.113C329.597 27.113 328.187 27.7086 326.995 28.8997C325.867 30.0282 325.271 31.4074 325.209 33.0375H324.927ZM369.734 34.26L395.595 91.4358H388.166L368.135 42.6294L369.734 34.26ZM351.584 85.1351C350.895 87.0159 350.989 88.4892 351.867 89.555C352.744 90.5581 353.747 91.0596 354.876 91.0596H355.628V92H337.667V91.0596C337.667 91.0596 337.792 91.0596 338.043 91.0596C338.294 91.0596 338.419 91.0596 338.419 91.0596C339.736 91.0596 341.083 90.6208 342.463 89.7431C343.842 88.8027 345.033 87.2667 346.036 85.1351H351.584ZM369.734 34.26L370.392 40.7487L348.857 91.7179H342.933L365.22 43.946C365.22 43.946 365.377 43.5698 365.69 42.8175C366.066 42.0652 366.474 41.1562 366.913 40.0904C367.414 38.9619 367.853 37.8648 368.229 36.799C368.606 35.7332 368.825 34.8869 368.888 34.26H369.734ZM380.831 70.0889V72.9101H355.91V70.0889H380.831ZM385.627 85.1351H392.774C393.714 87.2667 394.874 88.8027 396.253 89.7431C397.632 90.6208 398.949 91.0596 400.203 91.0596C400.203 91.0596 400.328 91.0596 400.579 91.0596C400.83 91.0596 400.955 91.0596 400.955 91.0596V92H381.677V91.0596H382.429C383.495 91.0596 384.467 90.5581 385.344 89.555C386.222 88.4892 386.316 87.0159 385.627 85.1351ZM423.254 93.3165L397.393 36.1407H404.822L424.853 84.9471L423.254 93.3165ZM423.254 93.3165L422.596 86.8278L444.131 35.8586H450.055L427.768 83.6305C427.768 83.6305 427.58 84.0067 427.204 84.759C426.89 85.5113 426.483 86.4517 425.981 87.5802C425.542 88.6459 425.135 89.7117 424.759 90.7775C424.383 91.8433 424.163 92.6896 424.1 93.3165H423.254ZM441.404 42.4414C442.093 40.5606 441.999 39.1187 441.121 38.1156C440.244 37.0498 439.241 36.5169 438.112 36.5169H437.454V35.5765H455.321V36.5169C455.321 36.5169 455.196 36.5169 454.945 36.5169C454.694 36.5169 454.569 36.5169 454.569 36.5169C453.253 36.5169 451.905 36.9871 450.525 37.9275C449.146 38.8052 447.955 40.3098 446.952 42.4414H441.404ZM407.361 42.4414H400.214C399.274 40.3098 398.114 38.8052 396.735 37.9275C395.356 36.9871 394.039 36.5169 392.785 36.5169C392.785 36.5169 392.66 36.5169 392.409 36.5169C392.158 36.5169 392.033 36.5169 392.033 36.5169V35.5765H411.311V36.5169H410.559C409.493 36.5169 408.521 37.0498 407.644 38.1156C406.829 39.1187 406.734 40.5606 407.361 42.4414ZM472.821 35.5765V92H466.802V35.5765H472.821ZM498.117 89.0848L497.929 92H472.633V89.0848H498.117ZM493.697 62.3777V65.1988H472.633V62.3777H493.697ZM498.023 35.5765V38.4917H472.633V35.5765H498.023ZM503.383 78.5524L498.211 92H483.917L487.115 89.0848C490.249 89.0848 492.757 88.6459 494.638 87.7682C496.581 86.8278 498.149 85.574 499.34 84.0067C500.531 82.3767 501.565 80.5586 502.443 78.5524H503.383ZM493.697 65.0108V70.371H492.663V69.1485C492.663 68.0827 492.35 67.1737 491.723 66.4214C491.096 65.6063 490.124 65.1988 488.807 65.1988V65.0108H493.697ZM493.697 57.2055V62.5657H488.807V62.3777C490.124 62.3777 491.096 62.0015 491.723 61.2492C492.35 60.4342 492.663 59.4938 492.663 58.428V57.2055H493.697ZM498.023 38.2096V44.6983H496.989V43.2877C496.989 41.9712 496.55 40.8427 495.672 39.9023C494.857 38.9619 493.729 38.4917 492.287 38.4917V38.2096H498.023ZM498.023 34.0719V36.5169L487.303 35.5765C489.246 35.5765 491.315 35.4198 493.509 35.1063C495.704 34.7302 497.208 34.3853 498.023 34.0719ZM466.99 85.9815L468.213 92H460.031V91.0596C460.031 91.0596 460.251 91.0596 460.69 91.0596C461.129 91.0596 461.348 91.0596 461.348 91.0596C462.915 91.0596 464.201 90.5581 465.204 89.555C466.207 88.5519 466.74 87.3607 466.802 85.9815H466.99ZM466.99 41.501H466.802C466.74 40.059 466.207 38.8679 465.204 37.9275C464.201 36.9871 462.915 36.5169 461.348 36.5169C461.348 36.5169 461.129 36.5169 460.69 36.5169C460.251 36.5169 460.031 36.5169 460.031 36.5169V35.5765H468.213L466.99 41.501ZM516.351 34.1659L568.449 83.2544L569.389 93.3165L517.292 43.946L516.351 34.1659ZM516.539 86.1696V92H509.486V91.0596C509.486 91.0596 509.737 91.0596 510.239 91.0596C510.803 91.0596 511.085 91.0596 511.085 91.0596C512.527 91.0596 513.75 90.5894 514.753 89.649C515.756 88.7086 516.257 87.5488 516.257 86.1696H516.539ZM520.489 86.1696C520.489 87.5488 520.991 88.7086 521.994 89.649C523.059 90.5894 524.282 91.0596 525.661 91.0596C525.661 91.0596 525.912 91.0596 526.414 91.0596C526.978 91.0596 527.26 91.0596 527.26 91.0596V92H520.207V86.1696H520.489ZM516.351 34.1659L520.395 39.4321L520.489 92H516.257V45.9208C516.257 42.7235 516.101 39.965 515.787 37.6454C515.536 35.3257 515.411 34.1659 515.411 34.1659H516.351ZM569.389 35.5765V81.2795C569.389 83.2857 569.452 85.2292 569.577 87.11C569.703 88.9281 569.828 90.4327 569.954 91.6238C570.142 92.7523 570.236 93.3165 570.236 93.3165H569.389L565.252 88.3325V35.5765H569.389ZM569.107 41.4069V35.5765H576.16V36.5169C576.16 36.5169 575.878 36.5169 575.314 36.5169C574.812 36.5169 574.562 36.5169 574.562 36.5169C573.182 36.5169 571.96 36.9871 570.894 37.9275C569.891 38.8679 569.389 40.0277 569.389 41.4069H569.107ZM565.252 41.4069C565.189 40.0277 564.656 38.8679 563.653 37.9275C562.65 36.9871 561.427 36.5169 559.985 36.5169C559.985 36.5169 559.703 36.5169 559.139 36.5169C558.638 36.5169 558.387 36.5169 558.387 36.5169V35.5765H565.44V41.4069H565.252Z" fill="#F9F5E3"/>
<path d="M274.405 131.288H290C294.325 131.288 297.678 132.32 300.059 134.384C302.44 136.407 303.631 139.165 303.631 142.657C303.631 145.197 302.976 147.34 301.667 149.086C300.357 150.832 298.512 151.943 296.131 152.419C299.067 152.816 301.369 153.967 303.036 155.872C304.702 157.737 305.536 160.058 305.536 162.836C305.536 170.772 301.051 174.74 292.083 174.74H274.405V171.645L278.155 171.229V134.86L274.405 134.384V131.288ZM282.917 134.562V171.467H291.964C297.877 171.467 300.833 168.59 300.833 162.836C300.833 160.098 299.96 157.975 298.214 156.467C296.468 154.959 293.988 154.205 290.774 154.205H286.667V150.931H290.774C296.21 150.931 298.928 148.173 298.928 142.657C298.928 140.197 298.135 138.233 296.547 136.765C295 135.296 292.718 134.562 289.702 134.562H282.917ZM316.223 157.419C316.223 151.824 317.473 147.499 319.973 144.443C322.513 141.388 326.084 139.86 330.687 139.86C335.33 139.86 339.021 141.507 341.759 144.8C344.497 148.054 345.866 152.479 345.866 158.074C345.866 163.629 344.596 167.935 342.056 170.991C339.517 174.046 335.925 175.574 331.283 175.574C326.68 175.574 323.009 173.947 320.271 170.693C317.572 167.399 316.223 162.975 316.223 157.419ZM341.164 158.014C341.164 153.53 340.231 149.999 338.366 147.419C336.501 144.8 333.981 143.491 330.806 143.491C327.632 143.491 325.172 144.701 323.426 147.122C321.719 149.542 320.866 152.975 320.866 157.419C320.866 161.864 321.799 165.395 323.664 168.014C325.568 170.633 328.088 171.943 331.223 171.943C334.358 171.943 336.798 170.733 338.545 168.312C340.291 165.891 341.164 162.459 341.164 158.014ZM387.24 142.538V168.312C387.24 170.494 388.113 171.586 389.859 171.586C390.851 171.586 391.665 171.467 392.3 171.229L392.895 174.8C391.268 175.316 389.74 175.574 388.312 175.574C385.097 175.574 383.232 174.046 382.716 170.991C378.589 174.046 374.641 175.574 370.871 175.574C367.141 175.574 364.502 174.721 362.955 173.014C361.407 171.268 360.633 168.57 360.633 164.919V144.264L356.467 143.788V140.693H363.312C364.661 140.693 365.336 141.308 365.336 142.538V164.919C365.336 167.419 365.772 169.225 366.645 170.336C367.558 171.447 369.105 172.002 371.288 172.002C375.058 172.002 378.828 170.455 382.597 167.36V144.264L379.026 143.788V140.693H385.455C386.645 140.693 387.24 141.308 387.24 142.538ZM401.893 143.967V140.693H407.072V132.955L411.774 131.884V140.693H418.262V143.967H411.774V168.312C411.774 170.455 412.647 171.526 414.393 171.526C415.544 171.526 416.655 171.308 417.726 170.871L418.262 174.502C416.397 175.217 414.512 175.574 412.607 175.574C410.742 175.574 409.353 175.038 408.441 173.967C407.528 172.856 407.072 171.11 407.072 168.729V143.967H401.893ZM436.627 142.538V168.312C436.627 170.494 437.5 171.586 439.246 171.586C439.921 171.586 440.735 171.467 441.687 171.229L442.282 174.8C440.655 175.316 438.989 175.574 437.282 175.574C433.75 175.574 431.985 173.332 431.985 168.848V144.264L428.413 143.788V140.693H434.842C436.032 140.693 436.627 141.308 436.627 142.538ZM434.366 135.157C433.572 135.157 432.858 134.86 432.223 134.265C431.627 133.669 431.33 132.975 431.33 132.181C431.33 131.348 431.627 130.634 432.223 130.038C432.858 129.403 433.572 129.086 434.366 129.086C435.199 129.086 435.913 129.403 436.508 130.038C437.104 130.634 437.401 131.348 437.401 132.181C437.401 132.975 437.104 133.669 436.508 134.265C435.913 134.86 435.199 135.157 434.366 135.157ZM464.955 175.574C462.773 175.574 460.848 175.038 459.182 173.967C457.555 172.895 456.285 171.487 455.372 169.741C453.547 166.169 452.634 162.161 452.634 157.717C452.634 153.55 453.686 149.661 455.789 146.05C456.86 144.185 458.368 142.697 460.313 141.586C462.297 140.435 464.598 139.86 467.217 139.86C472.178 139.86 475.63 142.062 477.574 146.467V142.479C477.574 141.288 478.19 140.693 479.42 140.693H484.479V143.788L480.313 144.264V188.609L475.61 188.252V170.157C472.674 173.768 469.122 175.574 464.955 175.574ZM475.61 154.8C475.61 150.792 474.817 147.915 473.229 146.169C471.682 144.384 469.658 143.491 467.158 143.491C463.983 143.491 461.543 144.78 459.836 147.36C458.13 149.899 457.277 153.352 457.277 157.717C457.277 161.447 457.912 164.681 459.182 167.419C459.817 168.848 460.769 169.979 462.039 170.812C463.309 171.606 464.817 172.002 466.563 172.002C469.896 172.002 472.912 170.197 475.61 166.586V154.8ZM525.628 142.538V168.312C525.628 170.494 526.501 171.586 528.247 171.586C529.239 171.586 530.052 171.467 530.687 171.229L531.282 174.8C529.655 175.316 528.127 175.574 526.699 175.574C523.485 175.574 521.62 174.046 521.104 170.991C516.977 174.046 513.028 175.574 509.259 175.574C505.528 175.574 502.89 174.721 501.342 173.014C499.794 171.268 499.021 168.57 499.021 164.919V144.264L494.854 143.788V140.693H501.699C503.048 140.693 503.723 141.308 503.723 142.538V164.919C503.723 167.419 504.159 169.225 505.032 170.336C505.945 171.447 507.493 172.002 509.675 172.002C513.445 172.002 517.215 170.455 520.985 167.36V144.264L517.413 143.788V140.693H523.842C525.032 140.693 525.628 141.308 525.628 142.538ZM569.745 158.729H546.292C546.292 163.133 547.403 166.566 549.626 169.026C551.372 170.971 553.753 171.943 556.768 171.943C559.824 171.943 563.098 171.05 566.59 169.264L568.078 172.717C564.07 174.621 560.499 175.574 557.364 175.574C554.268 175.574 551.709 175.078 549.685 174.086C547.701 173.054 546.134 171.685 544.983 169.979C542.761 166.526 541.65 162.618 541.65 158.252C541.65 153.173 542.721 148.907 544.864 145.455C545.975 143.709 547.483 142.34 549.388 141.348C551.332 140.356 553.594 139.86 556.173 139.86C560.419 139.86 563.733 141.308 566.114 144.205C568.534 147.102 569.745 150.971 569.745 155.812V158.729ZM565.042 155.395C565.042 151.784 564.249 148.907 562.661 146.764C561.074 144.582 558.792 143.491 555.816 143.491C552.84 143.491 550.598 144.622 549.09 146.884C547.582 149.145 546.689 151.983 546.411 155.395H565.042Z" fill="#FFBC42"/>
</svg>
