<svg width="706" height="488" viewBox="0 0 706 488" fill="none" xmlns="http://www.w3.org/2000/svg">
<circle cx="243.645" cy="243.645" r="243.645" fill="#22223B"/>
<circle cx="243.645" cy="243.645" r="243.645" fill="#22223B"/>
<path d="M189.53 114.811L192.691 113.704C193.972 113.321 195.254 113.023 196.535 112.683C198.457 112.343 200.422 111.96 202.345 111.619C202.729 111.279 203.199 111.279 203.412 111.662C203.626 112.087 203.242 112.428 202.857 112.64C196.962 115.577 190.726 117.96 185.258 121.492C170.777 130.897 159.714 143.578 151.17 158.473C140.577 176.985 135.878 196.858 136.775 218.093C137.245 229.583 139.722 240.648 142.969 251.585C148.308 269.373 157.151 285.544 166.078 301.715C176.672 320.908 187.052 340.228 195.04 360.697C196.193 363.676 197.347 366.655 198.543 369.634C199.226 371.294 199.312 372.272 196.962 372.187C188.504 371.889 190.427 373.719 187.308 365.804C180.602 348.696 172.614 332.227 163.686 316.141C156.894 303.928 150.017 291.715 143.738 279.203C135.835 263.543 129.812 247.201 127.292 229.754C125.113 214.731 125.412 199.794 129.47 185.028C133.614 169.835 140.833 156.303 150.658 144.047C159.927 132.471 171.162 123.279 184.575 116.811C185.301 116.47 186.027 116.173 186.753 115.832C187.65 115.407 188.59 115.194 189.487 114.811H189.53Z" fill="#D3B99E"/>
<path d="M245.275 367.506C245.659 368.995 246.001 370.527 246.385 372.017C243.95 372.953 241.387 372.442 238.91 372.357C237.329 372.315 237.287 370.527 236.817 369.336C236.432 368.485 236.048 367.676 235.663 366.825C235.236 365.974 235.108 364.995 234.596 364.187C234.254 363.293 233.912 362.399 233.528 361.506C233.015 360.229 232.46 358.995 231.904 357.761C231.392 356.527 230.836 355.25 230.324 354.016C229.854 353.122 229.64 352.143 229.256 351.25C228.914 350.569 228.53 349.888 228.188 349.207C227.633 347.973 227.163 346.739 226.565 345.547C222.08 336.781 217.594 328.014 213.109 319.248C212.554 318.312 212.041 317.418 211.614 316.397C211.401 316.099 211.187 315.801 211.016 315.503C210.375 314.652 210.076 313.631 209.436 312.822C209.051 312.099 208.709 311.418 208.325 310.694C207.727 309.843 207.385 308.822 206.744 308.013C204.779 304.439 202.772 300.906 200.807 297.332C200.209 296.481 199.91 295.459 199.226 294.651L198.116 292.523C197.432 291.587 197.048 290.438 196.535 289.416C195.254 287.076 194.015 284.693 192.733 282.352C192.178 281.756 192.135 280.948 191.666 280.31C191.281 279.544 190.897 278.82 190.512 278.054C189.871 277.075 189.487 275.969 188.974 274.948C188.462 273.841 187.949 272.777 187.394 271.671C186.881 270.862 186.839 269.841 186.283 269.075C186.112 268.692 185.941 268.309 185.771 267.926C185.215 266.692 184.703 265.415 184.147 264.181C183.592 262.734 183.079 261.33 182.524 259.883C182.097 259.032 181.926 258.053 181.456 257.202L179.833 252.393C179.278 251.329 179.107 250.18 178.808 249.031C178.423 247.84 178.082 246.648 177.697 245.456C177.099 243.456 176.501 241.456 176.117 239.414C175.775 237.839 175.391 236.307 175.049 234.732C174.408 231.498 173.682 228.264 173.468 224.945C173.468 224.477 173.468 223.966 173.468 223.498C172.742 222.264 173.596 220.859 172.956 219.625C172.956 219.327 172.956 218.987 172.956 218.689C172.486 213.497 172.486 208.348 172.956 203.156C172.956 202.646 172.956 202.177 172.956 201.667C173.554 200.603 172.785 199.369 173.468 198.347C173.468 197.879 173.468 197.369 173.511 196.901C173.81 194.688 174.024 192.475 174.579 190.304C175.134 188.049 175.69 185.794 176.245 183.538C176.501 182.389 176.715 181.24 177.227 180.176C178.509 176.814 179.748 173.452 181.029 170.09C181.456 169.197 181.627 168.218 182.097 167.324C183.549 164.516 184.959 161.75 186.411 158.941C186.839 157.962 187.394 157.026 187.906 156.09C191.836 150.685 195.809 145.323 199.739 139.919C200.551 138.812 201.704 137.961 202.473 136.812C207.129 132.854 211.742 128.897 216.398 124.896C216.954 124.343 217.338 123.662 218.192 123.492C224.258 120.471 230.324 117.449 236.432 114.428C236.902 114.215 237.415 114.002 237.885 113.832C239.166 113.364 240.49 113.109 241.815 112.768C243.011 112.598 244.249 112.385 245.446 112.215C246.129 111.96 246.941 111.449 247.111 112.768C246.556 113.109 246.001 113.449 245.446 113.747C244.591 114.258 243.566 114.428 242.669 114.811C240.362 116.002 238.013 117.194 235.706 118.343C235.279 119.237 234.297 119.194 233.57 119.62C233.058 120.003 232.545 120.386 231.99 120.769C231.136 121.322 230.324 122.045 229.299 122.301C228.402 123.024 227.547 123.747 226.65 124.428C225.839 124.896 225.283 125.662 224.386 126.003C224.215 126.131 224.087 126.258 223.916 126.343C223.318 127.109 222.592 127.663 221.738 128.131C221.054 128.769 220.328 129.45 219.645 130.088C218.876 130.982 217.979 131.79 216.954 132.429C215.886 133.493 214.818 134.557 213.75 135.62C213.237 136.386 212.725 137.195 211.956 137.748C210.589 139.323 209.222 140.94 207.855 142.514C207.471 143.366 206.787 144.004 206.189 144.727C205.762 145.536 205.164 146.259 204.438 146.855C202.515 149.834 200.593 152.855 198.671 155.834C197.902 157.111 197.56 158.6 196.407 159.707C195.382 161.835 194.314 163.92 193.289 166.048C192.819 166.941 192.947 168.09 192.007 168.814C191.537 170.048 191.067 171.239 190.598 172.474C189.957 173.92 189.829 175.538 188.889 176.857L187.906 180.517C187.437 181.793 187.522 183.198 186.71 184.347C186.411 185.921 186.07 187.496 185.771 189.07C185.301 192.347 184.703 195.581 184.147 198.816C183.464 200.731 184.361 202.773 183.635 204.731C183.635 205.241 183.635 205.71 183.635 206.22C183.25 209.88 183.25 213.497 183.635 217.157C183.635 217.455 183.635 217.795 183.635 218.093C184.404 220.008 183.464 222.093 184.147 224.008C184.703 227.583 185.173 231.2 185.771 234.775C186.07 236.52 186.411 238.307 186.71 240.052C187.65 241.967 187.949 244.01 188.419 246.052C188.761 247.457 189.06 248.818 189.402 250.223C190.256 251.159 190.213 252.393 190.598 253.542C191.153 255.117 191.708 256.649 192.264 258.223C192.691 259.117 192.947 260.096 193.289 260.989C193.588 261.84 193.929 262.734 194.228 263.585C195.04 264.734 195.467 266.096 195.98 267.415C196.108 267.756 196.236 268.096 196.364 268.394C197.219 269.117 197.133 270.224 197.603 271.118C197.902 271.798 198.201 272.522 198.5 273.203C199.269 273.713 199.184 274.735 199.739 275.373C200.337 276.139 200.422 277.16 200.85 278.054C202.943 282.139 205.036 286.225 207.172 290.353C207.983 290.863 207.983 291.8 208.368 292.523C212.084 299.289 215.843 306.056 219.559 312.822C220.499 313.716 220.755 314.95 221.268 316.056C222.122 317.673 222.977 319.248 223.831 320.865C224.899 321.971 225.326 323.461 226.052 324.738C227.291 327.206 228.487 329.631 229.726 332.1C230.58 332.61 230.58 333.547 230.922 334.313C232.033 336.611 233.143 338.909 234.211 341.164C235.023 342.568 235.834 343.973 236.261 345.59C236.561 346.271 236.86 346.952 237.159 347.633C238.056 348.313 237.97 349.462 238.397 350.399C238.91 351.633 239.38 352.824 239.892 354.058C240.704 354.782 240.619 355.888 241.131 356.739L242.584 360.484C243.395 361.25 243.352 362.357 243.78 363.25C243.908 363.761 244.079 364.272 244.207 364.74C244.933 365.548 244.976 366.612 245.36 367.506H245.275Z" fill="#B19A83"/>
<path d="M195.895 207.921C195.895 206.73 195.895 205.496 195.895 204.304C196.579 202.347 195.639 200.261 196.408 198.304C196.792 195.836 196.792 193.24 197.476 190.814C197.86 189.069 198.202 187.367 198.586 185.622C198.885 184.303 199.184 182.984 199.611 181.707C200.167 180.133 200.679 178.558 201.235 176.941C201.576 175.835 201.705 174.686 202.303 173.664C206.745 160.855 213.708 149.493 222.678 139.322C223.404 138.13 224.686 137.364 225.412 136.173C232.161 129.066 239.978 123.363 248.479 118.512C249.248 118.214 250.017 117.874 250.828 117.491C252.025 116.938 253.221 116.384 254.417 115.831C255.314 115.363 256.296 115.15 257.236 114.81C260.611 113.874 263.985 112.98 267.317 112.044C268.342 111.959 269.581 111.022 270.307 112.554C269.837 112.767 269.367 112.98 268.898 113.193C267.573 113.576 266.377 114.342 265.01 114.725C260.397 117.363 255.741 120.002 251.127 122.64C250.487 123.321 249.803 124.002 248.863 124.342C246.941 125.917 244.976 127.449 243.054 129.023C241.815 130.172 240.747 131.534 239.295 132.385C239.124 132.555 238.953 132.726 238.782 132.853C238.441 133.619 237.885 134.173 237.116 134.513L236.134 135.577C235.792 136.3 235.194 136.811 234.511 137.237C232.546 139.705 230.538 142.13 228.573 144.599C228.189 145.492 227.548 146.173 226.865 146.854C225.668 148.641 224.472 150.429 223.234 152.216C222.806 152.94 222.849 153.918 221.952 154.344C220.756 156.514 219.603 158.642 218.407 160.812C217.809 161.621 218.022 162.812 217.125 163.451C216.655 164.472 216.185 165.536 215.673 166.557C215.374 167.749 214.818 168.855 214.178 169.919C213.964 170.43 213.751 170.983 213.58 171.494C213.11 172.558 213.281 173.834 212.341 174.686C211.871 176.303 211.401 177.877 210.889 179.494C210.376 180.899 210.632 182.516 209.607 183.792C209.137 186.09 208.667 188.388 208.155 190.686C207.813 193.027 207.642 195.41 207.087 197.751C206.403 199.453 207.343 201.368 206.531 203.113C206.446 203.24 206.446 203.368 206.531 203.538C206.147 208.092 206.147 212.603 206.531 217.156C206.531 217.837 206.531 218.518 206.531 219.156C207.044 224.22 207.685 229.284 208.625 234.263C208.924 236.008 209.223 237.753 209.522 239.54C210.632 240.987 210.291 242.774 210.803 244.392C211.102 245.626 211.444 246.86 211.743 248.094C212.64 249.03 212.554 250.307 212.939 251.413C213.409 252.988 213.921 254.562 214.391 256.137C215.032 257.031 215.587 257.924 215.288 259.073C213.836 259.584 213.665 258.307 213.409 257.541C211.273 251.584 209.18 245.626 208.027 239.37C207.813 238.264 207.3 237.157 207.343 236.008C207.514 237.455 207.386 238.859 207.087 240.306C206.916 241.2 206.745 242.221 207.386 242.902C209.18 244.775 208.496 247.2 209.094 249.285C210.12 252.988 211.059 256.477 210.675 260.35C210.547 261.754 211.316 263.499 212.341 264.776C214.861 267.967 214.007 271.627 214.05 275.202C214.05 275.713 213.964 276.308 213.238 276.393L212.426 274.904C211.871 274.308 211.786 273.457 211.358 272.819C211.017 272.095 210.675 271.372 210.333 270.648C209.735 269.414 209.265 268.138 208.667 266.946L204.908 257.286C204.353 256.265 204.182 255.116 203.84 254.009C203.456 252.945 203.071 251.924 202.73 250.86C202.089 249.243 201.534 247.626 201.192 245.924C200.85 244.732 200.466 243.498 200.124 242.306C199.355 240.008 198.842 237.625 198.501 235.242C198.33 234.391 198.116 233.54 197.945 232.646C197.305 231.838 198.031 230.774 197.433 229.923C196.579 227.327 196.749 224.561 196.365 221.88C195.553 219.965 196.536 217.879 195.81 215.922C195.81 214.901 195.81 213.879 195.81 212.858C195.382 211.241 195.382 209.624 195.81 208.049L195.895 207.921Z" fill="#B29B84"/>
<path d="M79.3641 191.836C79.3641 191.836 79.4495 191.538 79.4922 191.367C81.2436 192.261 80.5601 193.793 80.3466 195.07C79.2359 201.496 78.2535 208.007 78.6379 214.433C78.9369 219.369 78.8942 224.476 80.3466 229.327C81.0727 231.795 81.4999 234.391 81.329 236.987C81.2436 238.476 81.6708 239.2 83.3794 239.37C85.9851 239.625 86.5405 241.115 84.8318 243.115C83.593 244.562 83.8066 246.051 83.9347 247.626C83.9775 248.179 84.3619 248.86 84.9172 248.69C86.7968 248.137 87.6084 248.86 88.121 250.69C88.3773 251.626 89.4025 251.967 90.1286 250.775C90.5558 250.094 90.8548 249.286 91.8373 249.371C92.5635 249.754 92.4353 250.35 92.2217 250.945C92.6062 250.179 92.2645 249.626 91.7091 249.115C90.2995 246.179 89.018 243.2 90.5558 239.881C92.1363 245.626 93.6314 251.371 95.2973 257.073C98.2448 267.329 102.645 276.947 107.642 286.352C114.434 299.118 121.397 311.757 128.104 324.567C135.75 339.206 142.414 354.27 148.138 369.761C148.821 371.548 148.479 372.144 146.557 372.186C138.655 372.484 138.612 372.527 135.835 365.335C128.061 345.461 118.193 326.609 107.899 307.97C100.765 295.033 94.0158 281.841 87.8647 268.393C83.0377 257.924 80.5174 246.69 78.8088 235.285C78.1253 230.816 77.6981 226.306 77.1428 221.795C76.7584 217.326 76.7584 212.901 77.1428 208.432C77.1428 207.751 77.1428 207.028 77.1855 206.347C77.8263 205.326 77.1001 204.134 77.6554 203.113V201.028C78.3816 199.836 77.4846 198.432 78.2535 197.24C78.6379 195.453 78.7661 193.623 79.3214 191.878L79.3641 191.836Z" fill="#D6BDA2"/>
<path d="M120.714 172.048C118.919 178.176 116.741 184.219 115.374 190.432C114.135 196.135 113.623 202.007 113.153 207.838C111.829 223.753 114.861 239.159 119.304 254.308C123.063 267.118 129.001 278.991 135.194 290.778C140.79 301.417 146.941 311.758 152.324 322.525C158.389 334.696 163.857 347.165 169.538 359.548C171.076 362.953 172.315 366.485 173.81 369.932C174.536 371.634 174.066 372.272 172.315 372.23C171.076 372.23 169.795 372.23 168.556 372.23C164.37 372.23 164.199 371.889 162.661 367.974C159.927 360.825 157.45 353.548 153.947 346.739C143.097 325.589 131.564 304.779 120.756 283.544C112.512 267.33 105.72 250.436 103.542 232.179C102.602 224.179 101.833 216.051 102.046 208.008C102.26 201.156 103.969 194.39 105.037 187.581C105.592 188.007 105.72 188.56 105.805 189.198C105.934 191.369 105.677 193.411 105.079 195.539C103.371 201.497 102.559 207.752 103.328 213.795C104.31 221.285 104.866 228.86 106.19 236.307C106.703 239.244 107.002 242.478 108.796 245.201C109.351 246.053 109.266 247.074 109.351 248.053C109.436 249.117 109.479 250.266 110.248 251.074C111.23 252.138 111.999 253.883 113.879 253.032C115.63 252.223 116.271 250.649 115.887 248.776C115.331 245.797 114.306 242.946 113.793 239.967C111.871 228.86 110.504 217.71 111.359 206.476C112.042 197.667 113.494 188.943 116.356 180.559C117.125 178.389 117.382 176.006 118.62 174.006C119.09 173.197 119.304 172.091 120.628 172.176L120.714 172.048Z" fill="#E1C5A7"/>
<path d="M264.113 326.779L263.558 325.63C262.746 324.439 262.319 323.035 261.422 321.886L260.867 320.822C260.141 319.885 259.799 318.736 259.243 317.715C258.176 315.885 257.108 314.055 256.04 312.225C255.185 310.991 254.587 309.63 253.947 308.268C253.733 307.97 253.519 307.672 253.306 307.374C252.708 306.523 252.409 305.502 251.725 304.693C249.931 301.501 248.137 298.267 246.343 295.076C245.702 294.224 245.403 293.203 244.763 292.395C244.378 291.671 244.036 290.948 243.652 290.267C243.054 289.416 242.712 288.394 242.071 287.586C240.79 285.075 239.551 282.607 238.27 280.096C237.586 279.117 237.202 278.011 236.689 276.947C236.305 276.223 235.963 275.457 235.579 274.734C234.895 273.755 234.511 272.649 233.998 271.585C233.827 271.202 233.656 270.861 233.528 270.478C232.93 269.244 232.46 267.968 231.862 266.734C231.35 265.499 230.837 264.223 230.282 262.989C229.641 262.052 229.641 260.903 229.171 259.925C227.761 255.967 226.352 251.967 224.942 248.009C224.43 246.732 224.173 245.371 223.874 244.051C223.533 242.86 223.148 241.711 222.806 240.519C221.995 238.008 221.525 235.455 221.183 232.859C221.098 232.136 220.97 231.455 220.884 230.731C220.756 228.689 219.859 226.476 222.123 224.859C222.593 224.518 222.849 223.412 221.781 223.242C221.055 223.157 220.371 223.412 220.201 222.391C220.072 221.539 220.329 220.816 220.841 220.135C221.269 219.539 221.824 219.071 222.55 218.944C223.746 218.731 224.43 218.135 224.643 216.901C224.857 215.667 225.497 214.731 226.993 214.816C228.573 214.943 228.787 216.092 228.829 217.284C228.872 218.092 228.958 218.901 229.214 219.667C230.495 227.923 231.478 236.264 233.742 244.349C236.262 253.286 239.423 261.967 243.353 270.393C247.795 279.926 252.58 289.288 257.919 298.352C258.517 299.161 258.261 300.182 258.688 301.076C261.337 305.885 263.942 310.693 266.591 315.46C267.872 316.609 268.171 318.268 268.897 319.715C269.196 320.268 269.495 320.822 269.752 321.332C270.649 321.8 270.649 322.779 270.991 323.545C272.187 325.843 273.383 328.141 274.579 330.439C275.689 331.29 275.946 332.567 276.33 333.759C276.8 334.78 277.27 335.801 277.782 336.865C278.679 337.929 278.979 339.333 279.662 340.525C280.345 341.589 280.901 342.695 281.2 343.929C281.499 344.61 281.798 345.291 282.097 345.972C283.079 347.079 283.378 348.483 283.891 349.802L284.532 351.249C285.002 351.93 285.258 352.738 285.514 353.504C285.984 354.739 286.454 355.973 286.924 357.207C287.821 357.888 287.693 359.037 288.205 359.888C288.761 360.696 288.974 361.718 289.316 362.696C289.444 363.207 289.572 363.675 289.7 364.186C290.512 364.952 290.555 366.058 290.896 366.995C291.238 368.016 291.537 369.037 291.879 370.059C292.861 371.718 292.391 372.612 290.469 372.399C288.462 372.186 286.155 373.293 284.532 371.25L282.951 367.335C282.524 366.399 282.225 365.463 281.926 364.484C281.371 363.292 280.858 362.143 280.303 360.952C279.747 360.101 279.577 359.122 279.235 358.186C278.637 356.994 277.996 355.802 277.526 354.526C276.843 352.909 276.116 351.334 275.433 349.717C274.92 348.908 274.878 347.93 274.322 347.121C273.81 346.015 273.297 344.908 272.785 343.844C272.229 343.078 272.229 342.057 271.631 341.333C271.418 340.908 271.247 340.482 271.033 340.099C270.264 338.78 269.666 337.333 268.94 336.014C267.872 334.014 266.804 331.971 265.779 329.971C264.967 329.035 264.668 327.843 264.113 326.822V326.779Z" fill="#957A63"/>
<path d="M90.6409 239.966C91.1535 243.2 91.7088 246.434 92.2214 249.669C91.4525 250.732 90.7263 251.796 89.872 252.945C88.8468 252.009 85.7712 252.307 87.0954 249.328C85.9848 249.456 84.746 249.924 84.1053 249.541C83.4645 249.158 83.1655 247.796 83.1655 246.902C83.1655 245.243 82.183 243.03 84.9169 242.306C85.1305 242.264 85.3441 241.115 85.1305 240.902C84.746 240.477 83.9344 240.008 83.4218 240.094C80.0472 240.774 80.6452 238.562 80.5171 236.561C80.3462 233.966 79.8336 231.37 79.4919 228.774C79.2356 226.901 78.9793 225.071 78.7657 223.199C78.424 220.135 77.6551 217.071 77.826 214.05C78.2104 207.624 79.1075 201.198 79.7055 194.772C79.7909 193.665 79.5773 192.516 79.4919 191.41C80.7307 187.154 81.9267 182.856 83.1655 178.601C83.55 177.707 83.7635 176.728 84.1907 175.835C84.2761 175.707 84.3189 175.537 84.3616 175.409C85.8994 174.898 86.3265 173.451 86.9673 172.217C91.2816 163.749 95.895 155.45 101.704 147.918C107.557 140.386 113.921 133.364 121.525 127.534C121.824 127.321 121.995 127.023 121.909 126.64C125.797 124.13 129.726 121.576 133.614 119.065C134.254 118.597 135.066 118.427 135.792 118.087C136.86 117.533 137.928 117.023 138.953 116.47C139.85 116.001 140.833 115.789 141.73 115.406C146.813 114.001 151.896 112.597 157.022 111.193C157.15 111.491 157.279 111.746 157.364 112.044C156.766 112.427 156.211 112.81 155.613 113.193C154.246 113.916 152.665 114.129 151.298 114.81C144.976 118.555 138.184 121.746 132.375 126.172C118.407 136.769 107.685 150.259 99.9104 165.962C93.8446 178.26 89.9574 191.197 88.8895 204.943C88.0779 215.837 88.5478 226.561 90.47 237.285C90.6409 238.136 90.5982 239.072 90.6409 239.923V239.966Z" fill="#D6BC9F"/>
<path d="M221.098 366.4C221.439 367.464 221.781 368.485 222.123 369.549C223.148 372.145 223.02 372.486 220.414 372.443C218.535 372.443 216.57 372.783 214.69 372.188C211.914 365.549 209.436 358.783 206.275 352.314C200.038 339.42 193.545 326.611 186.924 313.887C181.329 303.162 175.519 292.566 169.582 281.97C163.388 270.863 158.945 259.032 155.143 246.989C150.786 233.116 149.035 218.86 149.718 204.348C149.761 203.199 150.06 202.05 150.231 200.944C150.487 200.774 150.744 200.816 150.957 201.029C151.598 202.093 151.726 203.284 151.47 204.391C150.146 209.668 151.342 214.774 152.11 219.966C152.281 221.2 152.495 222.434 152.281 223.669C152.11 224.562 152.025 225.541 152.452 226.307C153.734 228.477 153.734 230.903 153.905 233.286C154.075 235.414 154.93 237.031 157.066 237.797C159.415 238.648 160.098 240.648 160.483 242.819C160.654 243.925 160.568 245.159 161.85 246.138C162.661 244.095 162.149 242.18 161.594 240.478C160.91 238.435 160.654 236.308 160.312 234.222C160.184 233.329 160.867 232.052 158.902 231.967C158.134 231.967 158.304 230.563 158.689 229.839C159.714 227.711 159.073 226.052 157.407 224.605C156.083 223.456 155.912 222.137 157.066 220.86C158.176 219.668 158.134 218.264 158.176 216.86C158.304 210.647 158.518 204.433 159.201 198.22C159.33 196.901 159.543 195.582 159.928 194.305C160.098 193.795 160.312 192.943 161.166 193.667C161.166 194.646 161.423 195.667 160.953 196.646C160.782 198.391 160.568 200.178 160.397 201.923C159.97 208.732 159.97 215.54 160.397 222.349C160.568 224.137 160.782 225.881 160.953 227.669C161.594 228.648 160.782 229.882 161.465 230.86C161.978 233.542 162.448 236.265 163.046 238.946C163.388 240.563 163.687 242.138 164.028 243.755C164.669 244.946 164.712 246.308 165.182 247.542L166.677 252.862C167.318 253.883 167.275 255.117 167.83 256.139C169.069 259.33 170.265 262.522 171.504 265.714C172.23 266.48 172.23 267.543 172.7 268.437C173.939 271.118 175.135 273.757 176.373 276.438C177.1 277.629 177.57 278.906 178.082 280.182C181.115 285.885 184.105 291.587 187.138 297.29C187.864 297.8 187.864 298.737 188.291 299.418C192.734 307.631 197.176 315.844 201.662 324.015C202.388 324.568 202.388 325.462 202.815 326.185C203.157 326.909 203.498 327.589 203.84 328.313C204.609 329.121 204.908 330.143 205.506 331.079C208.454 337.633 211.401 344.186 214.348 350.74C216.271 355.038 218.107 359.336 219.987 363.634C220.585 364.443 220.67 365.464 221.098 366.358V366.4Z" fill="#E1C5A7"/>
<path d="M120.714 172.047C119.091 176.133 116.998 180.09 115.973 184.303C114.435 190.644 113.111 197.155 112.684 203.623C112.171 211.198 112.513 218.858 112.94 226.476C113.239 231.923 114.264 237.327 115.118 242.689C115.46 244.817 116.357 246.86 116.912 248.945C117.382 250.903 115.93 253.413 114.179 253.924C112.086 254.52 109.352 252.435 108.882 250.052C108.198 246.519 107.899 242.86 106.575 239.583C103.969 233.072 104.866 226.135 103.542 219.497C102.987 216.603 102.432 213.624 102.517 210.688C102.645 204.943 102.859 199.198 104.909 193.665C105.422 192.304 105.08 190.687 105.165 189.155C106.661 183.622 108.625 178.26 110.847 172.941C114.392 164.515 119.219 156.855 124.431 149.408C127.463 145.024 131.18 141.152 134.811 137.237C139.51 132.173 145.148 128.257 150.317 123.832C151.47 122.853 153.136 122.598 153.948 121.151C160.013 116.938 166.805 114.427 173.896 112.682C175.989 112.171 178.168 111.831 180.859 111.32C180.261 112.086 180.133 112.384 179.919 112.427C163.004 118.47 149.804 129.406 138.57 143.024C131.479 151.62 125.712 160.94 121.312 171.154C121.184 171.451 120.885 171.707 120.672 172.005L120.714 172.047Z" fill="#E2C5A4"/>
<path d="M213.323 276.309C213.238 274.692 213.153 273.075 213.024 271.5C213.024 271.415 212.896 271.33 212.939 271.245C214.904 266.734 210.162 264.223 209.778 260.436C209.65 259.372 210.162 258.223 210.077 257.116C209.949 255.499 209.607 253.925 209.308 252.35C209.308 252.18 209.052 252.052 209.052 251.882C208.881 249.669 209.436 246.946 208.368 245.371C206.959 243.371 205.848 241.881 206.574 239.285C207.044 237.583 206.873 235.753 207.044 233.285C209.18 240.817 211.059 247.626 213.11 254.435C213.622 256.095 214.562 257.584 215.288 259.202C215.374 259.287 215.459 259.372 215.545 259.457C215.886 260.223 215.758 261.159 216.271 261.925C216.527 262.819 217.125 263.585 217.595 264.351C217.723 264.564 217.809 264.776 217.851 265.032C218.065 267.67 220.115 269.585 220.585 272.096C221.055 272.819 221.568 273.543 222.038 274.266C222.892 274.777 222.892 275.713 223.234 276.479C224.472 278.947 225.711 281.416 226.95 283.884C227.89 284.735 228.146 286.012 228.659 287.075C231.478 292.267 234.297 297.416 237.116 302.608C237.971 303.374 238.27 304.438 238.825 305.374C238.953 305.715 239.124 306.013 239.252 306.353C240.107 307.119 240.448 308.183 240.961 309.162C241.303 309.843 241.644 310.481 241.943 311.162C242.798 311.928 243.139 312.992 243.652 313.971L244.635 316.013C245.489 316.481 245.489 317.46 245.873 318.184C246.215 318.864 246.557 319.588 246.899 320.269C247.667 321.077 248.052 322.099 248.564 323.077C249.077 324.099 249.59 325.12 250.06 326.184C250.871 326.652 250.871 327.631 251.256 328.354C251.426 328.695 251.555 329.035 251.725 329.376C252.751 330.525 253.221 331.972 253.904 333.291C254.032 333.589 254.16 333.929 254.288 334.227C255.186 335.333 255.527 336.738 256.083 338.015C256.552 339.078 257.022 340.142 257.492 341.164C258.389 341.844 258.218 342.994 258.774 343.845C260.141 346.866 261.508 349.93 262.874 352.952C263.729 353.675 263.643 354.781 264.113 355.675C264.412 356.569 264.711 357.42 265.053 358.314C265.865 359.08 265.865 360.186 266.249 361.08C266.762 362.484 267.232 363.846 267.744 365.25C268.684 366.144 268.513 367.42 268.983 368.484C269.282 369.378 269.581 370.272 269.88 371.165C270.179 372.187 269.496 372.442 268.769 372.442C266.505 372.399 264.241 372.782 262.02 372.187C261.508 371.123 260.952 370.059 260.44 368.995C259.97 368.101 259.713 367.123 259.372 366.186C258.987 365.335 258.603 364.484 258.218 363.633C257.791 362.314 257.022 361.122 256.681 359.76L255.057 356.143C254.545 355.335 254.502 354.313 253.947 353.547C253.776 353.164 253.605 352.781 253.434 352.398C252.879 351.122 252.281 349.888 251.811 348.568C251.256 347.547 250.743 346.483 250.188 345.462C249.675 344.653 249.632 343.674 249.077 342.866C247.796 340.313 246.557 337.802 245.275 335.248C244.763 334.61 244.592 333.801 244.25 333.078C243.097 331.461 242.413 329.588 241.559 327.844C240.662 326.184 239.765 324.567 238.868 322.907C238.056 321.673 237.458 320.311 236.775 318.992C236.561 318.694 236.39 318.396 236.177 318.098C235.536 317.29 235.237 316.226 234.553 315.417C233.272 313.077 231.99 310.779 230.752 308.438C230.196 307.587 229.855 306.566 229.214 305.757C226.352 300.566 223.447 295.416 220.585 290.225C219.987 289.373 219.645 288.352 219.005 287.544C217.723 285.033 216.484 282.565 215.203 280.054C214.69 279.458 214.605 278.649 214.178 278.011C213.879 277.415 213.622 276.82 213.323 276.224V276.309Z" fill="#B09A83"/>
<path d="M228.573 219.668C228.445 218.732 228.359 217.753 228.103 216.859C227.932 216.306 227.419 215.54 226.992 215.497C226.522 215.455 225.839 216.008 225.54 216.519C225.198 217.072 225.241 217.881 224.942 218.519C224.771 218.859 224.301 219.242 223.917 219.285C221.866 219.54 220.67 220.476 220.67 222.562C221.482 222.391 222.208 222.264 222.977 222.094C223.062 223.2 223.404 225.243 223.105 225.328C220.585 226.221 221.354 228.136 221.354 229.839C221.354 230.137 221.055 230.477 220.884 230.775C220.841 230.647 220.756 230.477 220.67 230.349C219.431 225.711 219.346 220.987 219.047 216.263C219.047 215.625 219.047 214.944 219.004 214.306C218.577 211.455 218.62 208.603 219.004 205.752C219.004 204.901 219.047 204.093 219.09 203.241C219.431 198.858 219.474 194.475 220.67 190.219C221.055 188.517 221.396 186.772 221.781 185.07C222.037 183.538 222.208 182.006 222.849 180.559C223.19 179.538 223.532 178.517 223.917 177.495C224.216 176.389 224.387 175.197 224.942 174.176C225.497 172.814 226.052 171.452 226.608 170.091C226.907 169.112 227.12 168.091 227.676 167.197L229.214 163.878C229.812 163.112 229.812 162.09 230.367 161.324L231.392 159.622C231.947 158.601 232.289 157.494 232.973 156.515C233.314 155.962 233.699 155.366 234.04 154.813C234.425 153.877 235.066 153.068 235.621 152.26C237.586 149.409 239.594 146.515 241.559 143.664C242.071 142.94 242.669 142.302 243.182 141.578L244.25 140.429C244.848 139.749 245.36 139.068 245.916 138.344C246.428 137.791 246.941 137.28 247.496 136.727C247.923 136.089 248.436 135.578 249.077 135.152C249.29 134.94 249.461 134.727 249.675 134.557C250.102 133.961 250.614 133.45 251.212 133.025C251.426 132.812 251.597 132.642 251.811 132.429C252.409 131.62 253.092 130.897 253.946 130.344L254.502 129.833C255.228 129.322 255.911 128.769 256.552 128.216C258.901 126.429 261.294 124.641 263.643 122.854C264.754 122.13 265.779 121.237 267.06 120.811C269.495 119.535 271.973 118.215 274.408 116.939C275.518 116.343 276.586 115.705 277.825 115.492C278.466 115.236 279.106 115.024 279.79 114.768C281.712 114.002 283.549 113.066 285.685 113.024C286.582 113.194 287.735 112.555 288.29 113.79C286.881 114.513 285.471 115.279 284.061 116.002C283.079 116.471 282.225 117.109 281.157 117.449C280.858 117.662 280.601 117.875 280.302 118.045C279.405 118.641 278.423 119.109 277.483 119.62L268.983 125.365C268.385 126.088 267.616 126.641 266.804 127.109C266.291 127.578 265.736 128.046 265.223 128.514C263.13 130.599 261.165 132.812 258.859 134.642C257.919 135.876 257.107 137.238 256.168 138.514C241.986 154.09 233.998 172.559 230.709 193.156C229.555 200.433 228.786 207.752 229.47 215.157C229.598 216.689 230.068 218.391 228.701 219.71L228.573 219.668Z" fill="#987A63"/>
<path d="M161.038 193.454C160.482 196.731 159.671 199.965 159.414 203.242C159.03 208.519 158.987 213.838 158.816 219.158C158.816 219.583 158.944 220.349 158.731 220.434C155.1 222.434 157.834 223.669 159.158 225.286C160.397 226.818 160.568 228.648 159.158 230.35C158.987 230.563 159.286 231.201 159.372 231.627C159.628 231.244 159.927 230.818 160.44 230.095C161.465 236.01 162.447 241.67 163.515 247.883C160.568 246.691 159.842 245.287 159.799 242.989C159.756 240.819 159.073 238.776 156.168 238.138C153.434 237.584 153.434 234.861 153.007 232.605C152.665 230.733 152.153 228.903 151.896 227.031C151.683 225.754 151.854 224.435 151.683 223.158C151.341 220.562 150.657 217.966 150.487 215.328C150.273 211.966 150.401 208.604 150.444 205.199C150.444 203.753 150.7 202.306 150.828 200.859C150.273 197.795 151.469 194.944 151.896 192.007C153.178 183.581 156.766 175.921 160.183 168.261C162.02 164.133 164.369 160.261 166.719 156.346C171.589 148.303 177.355 140.983 184.318 134.642C187.821 131.451 191.281 128.259 195.211 125.62C198.115 123.663 201.49 122.939 204.95 122.514C205.634 123.705 204.48 123.833 203.882 124.259C191.153 133.451 181.371 145.196 173.767 158.814C173.554 159.197 173.468 159.622 173.34 160.048C172.785 160.942 172.443 162.006 171.717 162.814C171.375 163.538 171.033 164.218 170.692 164.942C170.179 165.793 170.222 166.857 169.495 167.623C168.983 168.687 168.513 169.751 168 170.857C167.573 171.921 167.616 173.155 166.804 174.049C166.463 174.942 166.164 175.836 165.822 176.73C165.309 178.517 164.839 180.347 164.113 182.092C163.771 183.496 163.43 184.9 163.131 186.305C162.319 188.603 162.618 191.241 161.08 193.369L161.038 193.454Z" fill="#E2C5A4"/>
<path d="M277.098 264.649C276.5 265.713 275.945 266.734 275.347 267.798C275.048 268.649 275.732 269.287 275.902 270.011C276.5 271.841 276.372 273.628 275.262 275.288C274.236 276.352 273.169 277.415 272.143 278.522C270.52 279.458 268.94 279.288 267.402 278.352C266.548 277.841 265.693 277.373 264.753 277.16C260.567 275.415 257.876 271.841 254.843 268.734C253.946 267.84 254.288 266.777 255.399 266.351C259.585 264.691 263.002 261.67 267.017 259.755C268.683 259.414 270.05 258.351 271.631 257.882C273.211 257.372 273.468 256.478 272.912 255.074C272.87 254.818 272.827 254.521 272.827 254.265C272.998 253.329 273.083 252.35 273.937 251.754C274.877 252.052 274.621 252.776 274.578 253.329C274.45 255.116 274.963 256.606 276.287 257.84C277.739 259.159 278.423 260.819 278.038 262.819C277.782 263.457 277.526 264.096 277.141 264.691L277.098 264.649Z" fill="#D81159"/>
<path d="M205.079 122.853C199.526 124.045 194.485 126.3 190.299 130.258C186.113 134.258 181.67 138.003 177.826 142.344C174.665 145.919 172.187 150.089 169.453 154.004C167.617 156.685 165.609 159.324 164.157 162.26C161.465 167.707 159.159 173.367 156.638 178.942C156.339 179.665 155.912 180.304 155.571 181.027C152.623 187.325 151.897 194.219 150.744 200.943C150.573 200.943 150.402 200.943 150.231 200.943C150.829 191.921 152.965 183.24 156.169 174.814C161.978 159.622 170.564 146.216 182.097 134.726C189.744 127.152 198.33 120.896 208.197 116.385C209.052 115.917 210.034 115.747 210.931 115.321C212.341 114.768 213.75 114.257 215.16 113.704C216.399 113.278 217.723 113.023 219.004 112.64C220.969 112.257 222.892 111.917 224.857 111.534C225.241 111.193 225.711 111.193 225.925 111.619C226.138 112.044 225.754 112.385 225.369 112.598C224.472 112.938 223.618 113.321 222.721 113.661C221.866 114.13 220.884 114.3 219.987 114.725C215.331 117.364 210.675 120.002 206.019 122.641C205.762 123.109 205.421 123.066 205.036 122.768L205.079 122.853Z" fill="#DAC0A3"/>
<path d="M277.525 262.989C276.842 261.159 276.159 259.372 275.518 257.542C274.92 255.882 274.407 254.18 273.895 252.648C273.724 253.244 273.467 254.138 273.211 255.031C271.759 254.691 272.143 253.542 272.314 252.691C272.955 249.712 274.663 247.542 277.44 246.265C278.252 245.882 279.149 245.712 279.96 245.329C282.822 243.924 284.104 240.945 283.079 237.967C282.224 235.498 280.772 233.328 279.191 231.285C275.262 226.179 271.631 220.902 268.726 215.157C266.206 210.178 265.907 205.114 267.53 199.837C268.042 198.22 268.598 196.603 269.238 195.028C272.143 187.538 271.716 179.793 270.819 172.048C269.794 162.941 267.658 154.132 262.916 146.174C261.678 144.089 260.097 142.259 258.474 140.514C257.961 139.918 257.321 139.408 257.064 138.684C256.68 137.663 256.68 136.812 258.175 136.897C258.559 137.195 258.901 137.535 259.286 137.833C259.969 138.216 260.567 138.727 260.909 139.493C268 147.578 270.947 157.366 272.741 167.665C272.827 168.09 272.998 168.473 273.126 168.899C274.151 170.048 273.083 171.537 273.809 172.729C273.809 173.239 273.809 173.75 273.852 174.218C274.535 175.41 273.724 176.814 274.364 178.048C274.194 181.027 273.852 183.963 273.98 186.9C274.023 188.049 275.219 189.155 275.902 190.304C276.757 191.241 275.774 191.751 275.432 192.39C268.171 196.986 267.53 210.135 272.015 216.519C276.458 222.902 280.815 229.328 285.214 235.754C285.898 236.52 285.855 237.541 286.197 238.435C286.923 240.307 286.325 242.009 285.556 243.712C283.677 245.286 282.053 247.329 279.875 248.265C274.279 250.733 273.425 253.414 277.269 258.18C277.525 258.521 277.782 258.904 278.038 259.244C278.508 260.521 279.106 261.84 277.611 262.904L277.525 262.989Z" fill="#22223B"/>
<path d="M153.947 121.151C152.666 122.385 151.427 123.662 150.06 124.811C145.148 129.152 140.064 133.365 135.237 137.79C127.762 144.684 122.209 153.11 117.083 161.749C114.007 166.941 111.829 172.643 109.394 178.176C107.813 181.75 106.489 185.495 105.08 189.155C105.08 188.602 105.08 188.049 105.08 187.538C106.746 182.304 107.984 176.899 110.12 171.877C116.528 156.77 125.712 143.493 138.099 132.684C142.969 128.386 148.65 124.981 153.947 121.151Z" fill="#D9BFA2"/>
<path d="M121.91 126.556C121.91 126.982 122.038 127.62 121.825 127.833C117.681 131.876 113.025 135.493 109.352 139.919C103.799 146.6 98.6299 153.664 93.7602 160.856C90.77 165.282 88.6769 170.303 86.1994 175.07C85.6868 176.091 85.1742 176.559 84.4053 175.325C84.7043 174.601 85.0033 173.878 85.3023 173.155C85.8149 171.878 86.3702 170.644 86.9255 169.367C89.0614 165.58 91.1972 161.835 93.333 158.047C93.8029 157.409 93.8456 156.558 94.4009 156.005C100.894 145.876 108.583 136.812 118.066 129.322C118.792 128.769 119.433 128.088 120.287 127.663L121.953 126.556H121.91Z" fill="#CFB99F"/>
<path d="M262.063 297.8C262.063 297.8 261.636 298.226 261.422 298.439C260.91 299.034 260.482 299.63 259.713 299.928H259.5H259.286C258.517 299.673 258.218 299.119 258.347 298.353C261.849 294.821 263.473 290.396 264.241 285.629C264.455 284.821 264.37 283.927 264.882 283.204C265.224 282.778 265.608 282.438 265.907 283.246C265.694 285.97 266.377 288.693 265.523 291.374L263.473 296.141C263.216 296.907 262.576 297.332 261.977 297.843L262.063 297.8Z" fill="#22223B"/>
<path d="M265.693 282.82C265.309 283.884 264.924 284.99 264.583 286.054C262.831 284.479 262.575 282.692 264.155 280.224C265.01 278.905 265.138 277.756 264.668 276.394C267.188 277.117 269.666 277.798 272.186 278.522C272.015 278.692 271.844 278.862 271.716 279.075C270.435 279.5 269.153 279.756 267.872 280.139C267.359 280.649 266.847 281.203 266.334 281.713C265.992 282.011 266.206 282.607 265.779 282.82H265.693Z" fill="#22223B"/>
<path d="M160.44 222.391C160.269 221.2 159.927 220.008 159.927 218.817C159.884 214.05 159.927 209.284 159.927 204.475C159.927 203.624 160.226 202.773 160.397 201.965C160.397 208.773 160.397 215.582 160.397 222.391H160.44Z" fill="#E2C5A4"/>
<path d="M208.753 234.264C208.07 229.243 207.344 224.179 206.66 219.157C207.215 222.434 207.771 225.711 208.283 228.987C208.54 230.732 208.625 232.519 208.796 234.264H208.753Z" fill="#E2C5A4"/>
<path d="M172.828 203.071C172.828 208.262 172.828 213.412 172.828 218.603C172.657 217.327 172.272 216.05 172.272 214.816C172.358 210.901 172.614 206.986 172.785 203.071H172.828Z" fill="#B19A83"/>
<path d="M288.206 113.704C287.309 113.534 286.454 113.364 285.557 113.151C285.386 112.895 285.472 112.768 285.728 112.683C287.65 112.342 289.573 111.959 291.495 111.619C291.751 111.576 292.007 111.449 292.178 111.789C292.392 112.172 292.264 112.427 291.879 112.598L288.206 113.704Z" fill="#987A63"/>
<path d="M236.774 369.336C237.586 371.932 239.508 372.357 241.9 372.102C243.352 371.974 244.847 372.017 246.342 372.017C243.609 372.187 240.875 372.527 238.141 372.4C237.628 372.4 237.201 370.4 236.774 369.336Z" fill="#B19A83"/>
<path d="M161.038 193.454C161.721 191.113 162.405 188.773 163.088 186.389C162.405 189.794 161.678 193.198 160.995 196.645C160.995 195.581 160.995 194.518 161.038 193.454Z" fill="#E2C5A4"/>
<path d="M214.689 372.188C216.441 372.188 218.192 372.06 219.944 372.188C222.079 372.358 222.934 371.677 222.122 369.549C222.421 370.358 222.72 371.209 223.019 372.017C222.293 372.273 221.567 372.698 220.883 372.698C218.833 372.656 216.74 372.4 214.689 372.188Z" fill="#E2C5A4"/>
<path d="M220.585 272.138C219.517 269.628 218.492 267.117 217.424 264.606C218.364 264.478 217.979 265.457 218.406 265.798C218.791 266.691 219.175 267.542 219.56 268.436C220.072 269.117 220.329 269.926 220.542 270.734C220.542 271.202 220.542 271.713 220.585 272.181V272.138Z" fill="#B29B84"/>
<path d="M284.531 371.293C286.71 371.548 288.888 371.846 291.067 371.974C291.323 371.974 291.622 370.74 291.878 370.102C293.245 371.719 292.946 372.655 290.725 372.74C289.315 372.74 287.82 372.91 286.453 372.697C285.77 372.57 285.172 371.804 284.531 371.336V371.293Z" fill="#957A63"/>
<path d="M258.175 136.854C255.74 138.386 258.773 138.854 258.773 139.918C256.723 140.599 256.381 139.067 255.911 137.705C256.851 136.684 257.833 135.62 258.773 134.599C258.56 135.365 258.389 136.088 258.175 136.854Z" fill="#E2C5A4"/>
<path d="M261.935 372.186C263.857 372.186 265.779 372.186 267.701 372.059C268.427 372.016 269.111 371.463 269.837 371.165C269.752 371.633 269.624 372.569 269.538 372.569C267.018 372.484 264.498 372.357 261.977 372.186H261.935Z" fill="#B09A83"/>
<path d="M265.693 282.82C265.864 282.437 266.078 282.054 266.249 281.713C266.249 284.139 266.334 286.607 266.249 289.033C266.249 289.841 265.821 290.607 265.608 291.373C265.608 288.522 265.651 285.671 265.693 282.82Z" fill="#22223B"/>
<path d="M221.183 232.902C221.738 235.455 222.293 238.008 222.806 240.562C222.251 238.008 221.695 235.455 221.183 232.902Z" fill="#E2C5A4"/>
<path d="M207.128 197.709C207.47 195.368 207.855 193.028 208.196 190.645C207.855 192.985 207.47 195.326 207.128 197.709Z" fill="#E2C5A4"/>
<path d="M176.074 239.37C176.587 241.37 177.142 243.371 177.655 245.413C177.142 243.413 176.587 241.413 176.074 239.37Z" fill="#E2C5A4"/>
<path d="M277.526 262.989C277.654 261.755 277.782 260.521 277.953 259.329C279.021 261.329 279.363 263.202 277.099 264.649C277.227 264.095 277.398 263.542 277.526 262.989Z" fill="#D81159"/>
<path d="M285.727 112.683C285.727 112.683 285.599 112.981 285.556 113.151C283.591 113.661 281.669 114.172 279.704 114.683C281.712 114.002 283.719 113.364 285.727 112.683Z" fill="#987A63"/>
<path d="M174.451 190.219C174.109 192.432 173.767 194.602 173.383 196.815C173.725 194.602 174.066 192.432 174.451 190.219Z" fill="#E2C5A4"/>
<path d="M285.429 243.712C285.642 241.924 285.856 240.179 286.069 238.392C287.137 240.307 286.796 242.052 285.429 243.712Z" fill="#22223B"/>
<path d="M270.35 112.598C269.367 112.428 268.342 112.257 267.359 112.087C268.342 111.789 269.324 111.449 270.35 111.279C270.649 111.236 270.99 111.662 271.332 111.874C271.033 112.13 270.691 112.385 270.392 112.64L270.35 112.598Z" fill="#B29B84"/>
<path d="M268.939 335.972C269.623 337.334 270.306 338.696 271.033 340.058C270.349 338.696 269.666 337.334 268.939 335.972Z" fill="#E2C5A4"/>
<path d="M195.938 215.795C196.109 217.795 196.28 219.795 196.493 221.795C196.322 219.795 196.152 217.795 195.938 215.795Z" fill="#E2C5A4"/>
<path d="M275.262 275.288C275.475 273.5 275.689 271.756 275.902 269.968C276.8 271.883 277.056 273.713 275.262 275.288Z" fill="#D81159"/>
<path d="M79.3645 191.836C79.0228 193.623 78.6811 195.411 78.2966 197.198C78.6384 195.411 78.9801 193.623 79.3645 191.836Z" fill="#E2C5A4"/>
<path d="M202.388 136.726C201.491 137.748 200.594 138.812 199.654 139.833C200.551 138.812 201.448 137.748 202.388 136.726Z" fill="#E2C5A4"/>
<path d="M236.774 319.078C237.457 320.397 238.141 321.674 238.867 322.993C238.184 321.674 237.5 320.397 236.774 319.078Z" fill="#E2C5A4"/>
<path d="M151.298 114.768C152.75 114.215 154.16 113.662 155.612 113.151C154.16 113.704 152.75 114.257 151.298 114.768Z" fill="#E2C5A4"/>
<path d="M215.289 259.202C215.032 258.18 214.733 257.116 214.477 256.095C215.075 257.542 215.63 258.989 216.228 260.436C215.289 260.521 215.63 259.542 215.246 259.202H215.289Z" fill="#B29B84"/>
<path d="M265.053 114.725C266.334 114.214 267.616 113.704 268.94 113.193C267.658 113.704 266.377 114.214 265.053 114.725Z" fill="#E2C5A4"/>
<path d="M246.983 112.683C246.428 112.513 245.873 112.3 245.317 112.13C245.958 111.96 246.599 111.704 247.24 111.619C247.581 111.619 247.923 111.917 248.265 112.087L246.983 112.683Z" fill="#B19A83"/>
<path d="M86.8825 169.367C86.3272 170.644 85.8146 171.92 85.2593 173.154C85.8146 171.878 86.3272 170.601 86.8825 169.367Z" fill="#E2C5A4"/>
<path d="M184.104 264.095C184.66 265.329 185.215 266.606 185.728 267.84C185.172 266.606 184.617 265.329 184.104 264.095Z" fill="#E2C5A4"/>
<path d="M226.522 345.547C227.077 346.781 227.633 347.972 228.145 349.206C227.59 347.972 227.035 346.781 226.522 345.547Z" fill="#E2C5A4"/>
<path d="M222.848 180.602C222.506 182.091 222.122 183.581 221.78 185.113C222.122 183.623 222.506 182.134 222.848 180.602Z" fill="#E2C5A4"/>
<path d="M234.041 271.628C234.553 272.692 235.108 273.756 235.621 274.777C235.108 273.713 234.553 272.65 234.041 271.628Z" fill="#E2C5A4"/>
<path d="M264.112 326.78C264.668 327.843 265.223 328.907 265.778 329.929C265.223 328.865 264.668 327.801 264.112 326.78Z" fill="#E2C5A4"/>
<path d="M214.22 169.878C214.732 168.771 215.202 167.665 215.715 166.516C215.202 167.622 214.732 168.729 214.22 169.878Z" fill="#E2C5A4"/>
<path d="M219.047 112.683C217.766 113.023 216.484 113.364 215.203 113.747C216.484 113.406 217.766 113.066 219.047 112.683Z" fill="#E2C5A4"/>
<path d="M258.688 298.353C258.902 298.863 259.115 299.374 259.329 299.927C259.115 300.353 258.902 300.736 258.688 301.161C258.304 300.438 257.962 299.672 257.578 298.949C257.791 298.438 258.133 298.183 258.688 298.395V298.353Z" fill="#E2C5A4"/>
<path d="M241.687 112.683C240.363 113.023 239.081 113.364 237.757 113.747C239.081 113.406 240.363 113.066 241.687 112.683Z" fill="#E2C5A4"/>
<path d="M267.786 280.096C269.068 279.756 270.349 279.415 271.631 279.032C270.349 279.373 269.068 279.713 267.786 280.096Z" fill="#E2C5A4"/>
<path d="M216.825 132.429C217.722 131.663 218.619 130.854 219.474 130.088C218.577 130.854 217.68 131.663 216.825 132.429Z" fill="#E2C5A4"/>
<path d="M221.141 316.056C220.585 314.992 219.987 313.928 219.432 312.822C219.987 313.885 220.585 314.949 221.141 316.056Z" fill="#E2C5A4"/>
<path d="M232.93 156.515C232.418 157.536 231.862 158.558 231.35 159.621C231.862 158.6 232.418 157.579 232.93 156.515Z" fill="#E2C5A4"/>
<path d="M268.939 368.484C268.512 367.42 268.128 366.356 267.701 365.25C268.128 366.314 268.512 367.378 268.939 368.484Z" fill="#E2C5A4"/>
<path d="M171.675 162.941C172.23 162.005 172.785 161.111 173.298 160.175C172.742 161.111 172.187 162.005 171.675 162.941Z" fill="#E2C5A4"/>
<path d="M187.821 156.005C187.309 156.941 186.796 157.877 186.326 158.856C186.839 157.92 187.352 156.984 187.821 156.005Z" fill="#E2C5A4"/>
<path d="M212.341 174.686C212.768 173.622 213.195 172.559 213.58 171.495C213.152 172.559 212.725 173.622 212.341 174.686Z" fill="#E2C5A4"/>
<path d="M211.53 316.396C212.042 317.332 212.555 318.268 213.025 319.247C212.512 318.311 212 317.375 211.53 316.396Z" fill="#E2C5A4"/>
<path d="M172.828 219.583C172.999 220.859 173.169 222.136 173.34 223.455C173.169 222.178 172.999 220.902 172.828 219.583Z" fill="#E2C5A4"/>
<path d="M190.47 253.541C190.086 252.435 189.701 251.328 189.274 250.222C189.658 251.328 190.043 252.435 190.47 253.541Z" fill="#E2C5A4"/>
<path d="M243.651 314.013C243.096 313.077 242.54 312.14 241.942 311.204C242.498 312.14 243.053 313.077 243.651 314.013Z" fill="#E2C5A4"/>
<path d="M238.824 305.46C238.269 304.524 237.714 303.587 237.116 302.694C237.671 303.63 238.226 304.566 238.824 305.46Z" fill="#E2C5A4"/>
<path d="M177.099 180.091C176.757 181.197 176.416 182.346 176.117 183.453C176.458 182.346 176.8 181.197 177.099 180.091Z" fill="#E2C5A4"/>
<path d="M229.213 259.967C229.597 260.989 229.982 262.01 230.324 263.031C229.939 262.01 229.555 260.989 229.213 259.967Z" fill="#E2C5A4"/>
<path d="M277.397 119.535C278.337 119.024 279.277 118.513 280.217 117.96C279.277 118.471 278.337 118.982 277.397 119.535Z" fill="#E2C5A4"/>
<path d="M235.579 152.259C235.066 153.11 234.553 153.961 233.998 154.812C234.511 153.961 235.023 153.11 235.579 152.259Z" fill="#E2C5A4"/>
<path d="M203.968 253.882C204.31 254.988 204.652 256.052 205.036 257.158C204.694 256.052 204.353 254.988 203.968 253.882Z" fill="#E2C5A4"/>
<path d="M266.206 361.122C265.821 360.186 265.394 359.25 265.01 358.356C265.394 359.292 265.821 360.229 266.206 361.122Z" fill="#E2C5A4"/>
<path d="M205.079 122.853C205.421 122.81 205.72 122.768 206.062 122.725C205.335 123.279 204.567 123.832 203.84 124.385C204.267 123.874 204.652 123.364 205.079 122.853Z" fill="#E2C5A4"/>
<path d="M200.722 278.097C200.338 277.203 199.954 276.267 199.612 275.373C199.996 276.267 200.381 277.203 200.722 278.097Z" fill="#E2C5A4"/>
<path d="M172.785 268.436C172.401 267.543 172.016 266.649 171.589 265.713C171.974 266.606 172.358 267.5 172.785 268.436Z" fill="#E2C5A4"/>
<path d="M221.098 366.4C220.713 365.506 220.329 364.57 219.987 363.676C220.372 364.57 220.756 365.506 221.098 366.4Z" fill="#E2C5A4"/>
<path d="M218.45 265.755C218.108 265.372 217.809 264.947 217.467 264.564C216.997 264.096 217.083 263.585 217.211 263.032L218.45 265.713V265.755Z" fill="#E2C5A4"/>
<path d="M217.211 263.074C217.296 263.585 217.381 264.096 217.467 264.606C217.082 263.713 216.698 262.819 216.313 261.968C216.612 262.351 216.912 262.734 217.211 263.074Z" fill="#B29B84"/>
<path d="M229.256 351.25C229.598 352.186 229.94 353.122 230.324 354.016C229.983 353.079 229.641 352.143 229.256 351.25Z" fill="#E2C5A4"/>
<path d="M120.243 127.662C119.517 128.216 118.748 128.769 118.022 129.279C118.748 128.726 119.517 128.173 120.243 127.662Z" fill="#E2C5A4"/>
<path d="M225.412 112.64C225.241 112.3 225.07 111.959 224.899 111.576C225.369 111.576 225.881 111.534 226.351 111.491C226.01 111.874 225.711 112.215 225.369 112.598L225.412 112.64Z" fill="#E2C5A4"/>
<path d="M238.27 350.399C237.842 349.463 237.415 348.569 237.031 347.633C237.458 348.569 237.885 349.463 238.27 350.399Z" fill="#E2C5A4"/>
<path d="M215.289 259.245C215.63 259.67 215.929 260.053 216.271 260.479C216.271 260.989 216.271 261.458 216.314 261.968C215.972 261.075 215.63 260.138 215.289 259.245Z" fill="#B29B84"/>
<path d="M289.273 362.739C288.931 361.803 288.546 360.867 288.205 359.888C288.546 360.824 288.931 361.76 289.273 362.739Z" fill="#E2C5A4"/>
<path d="M274.322 347.164C274.707 348.015 275.091 348.909 275.433 349.76C275.048 348.909 274.664 348.015 274.322 347.164Z" fill="#E2C5A4"/>
<path d="M141.731 115.364C140.791 115.704 139.894 116.045 138.954 116.428C139.894 116.087 140.791 115.747 141.731 115.364Z" fill="#E2C5A4"/>
<path d="M256.509 128.173C255.826 128.727 255.142 129.28 254.459 129.79C255.142 129.237 255.826 128.684 256.509 128.173Z" fill="#E2C5A4"/>
<path d="M202.858 112.64C202.687 112.3 202.517 111.959 202.346 111.619C202.816 111.619 203.328 111.534 203.798 111.534C203.499 111.917 203.157 112.3 202.858 112.683V112.64Z" fill="#E2C5A4"/>
<path d="M271.63 341.334C272.015 342.185 272.399 343.036 272.784 343.845C272.399 342.994 272.015 342.143 271.63 341.334Z" fill="#E2C5A4"/>
<path d="M217.168 163.451C217.596 162.558 218.023 161.664 218.45 160.813C218.023 161.707 217.596 162.6 217.168 163.451Z" fill="#E2C5A4"/>
<path d="M245.916 138.344C245.361 139.024 244.805 139.705 244.25 140.429C244.805 139.748 245.361 139.067 245.916 138.344Z" fill="#E2C5A4"/>
<path d="M259.329 366.187C259.67 367.123 260.012 368.059 260.397 368.996C260.055 368.059 259.713 367.123 259.329 366.187Z" fill="#E2C5A4"/>
<path d="M271.032 323.63C270.605 322.907 270.221 322.183 269.793 321.417C270.221 322.141 270.605 322.864 271.032 323.63Z" fill="#E2C5A4"/>
<path d="M291.879 112.597C291.75 112.257 291.622 111.959 291.494 111.618C291.921 111.618 292.306 111.618 292.733 111.576C292.434 111.916 292.135 112.257 291.836 112.597H291.879Z" fill="#987A63"/>
<path d="M191.624 280.224C191.965 280.905 192.307 281.586 192.691 282.267C192.35 281.586 192.008 280.905 191.624 280.224Z" fill="#E2C5A4"/>
<path d="M199.611 275.415C199.184 274.692 198.757 273.968 198.372 273.245C198.799 273.968 199.226 274.692 199.611 275.415Z" fill="#E2C5A4"/>
<path d="M211.486 272.692C211.828 273.373 212.17 274.097 212.554 274.778C212.213 274.097 211.871 273.373 211.486 272.692Z" fill="#E2C5A4"/>
<path d="M250.871 117.534C250.102 117.875 249.333 118.215 248.521 118.556C249.29 118.215 250.059 117.875 250.871 117.534Z" fill="#E2C5A4"/>
<path d="M233.442 119.577C234.169 119.151 234.895 118.726 235.578 118.3C234.852 118.726 234.126 119.151 233.442 119.577Z" fill="#E2C5A4"/>
<path d="M249.034 135.109C248.522 135.62 248.009 136.173 247.454 136.684C247.966 136.173 248.479 135.62 249.034 135.109Z" fill="#E2C5A4"/>
<path d="M197.518 229.796C197.689 230.69 197.86 231.583 198.031 232.52C197.86 231.626 197.689 230.732 197.518 229.796Z" fill="#E2C5A4"/>
<path d="M92.7349 249.839C92.6922 250.861 92.6068 251.925 92.5641 252.946C92.3078 252.946 92.0515 252.946 91.7524 252.903C91.8806 251.84 91.966 250.733 92.0942 249.669C92.3078 249.754 92.5213 249.797 92.6922 249.882L92.7349 249.839Z" fill="#D6BC9F"/>
<path d="M258.688 298.352C258.304 298.522 257.962 298.735 257.578 298.905C253.947 292.352 250.145 285.926 246.77 279.287C239.38 264.776 233.4 249.754 230.581 233.668C229.769 229.029 229.214 224.348 228.53 219.667C228.018 208.9 228.488 198.176 230.709 187.58C234.553 169.323 242.285 152.897 254.673 138.768C255.015 138.385 255.442 138.045 255.826 137.705C256.766 138.428 257.749 139.194 258.688 139.917C263.686 144.216 266.206 150.003 268.214 156.046C271.033 164.557 272.528 173.324 272.059 182.26C271.802 187.069 271.076 192.091 269.325 196.516C266.121 204.559 266.847 211.794 271.546 218.816C275.22 224.263 279.107 229.582 282.61 235.157C286.027 240.562 284.404 244.519 278.295 246.647C274.536 247.966 272.272 251.669 273.169 255.03C273.895 256.648 273.511 257.541 271.674 258.137C270.094 258.605 268.641 259.541 267.189 260.35C263.216 262.52 259.244 264.691 255.314 266.946C255.057 267.074 254.929 268.095 255.143 268.308C258.218 271.074 261.379 273.755 264.54 276.478C265.138 276.989 265.694 277.542 266.42 278.181C264.412 280.436 262.575 282.862 264.498 286.139C264.241 290.224 263.259 294.054 260.226 297.033C259.713 297.543 259.158 297.969 258.646 298.395L258.688 298.352Z" fill="#FFBC42"/>
<path d="M157.962 235.286C157.535 235.669 157.279 235.924 156.98 236.179C156.724 235.796 156.339 235.413 156.296 235.03C156.296 234.86 156.852 234.307 157.108 234.349C157.407 234.392 157.621 234.86 157.962 235.286Z" fill="#E1C5A7"/>
<path d="M162.063 241.839C161.764 242.009 161.508 242.137 161.209 242.264C161.166 242.009 160.996 241.711 161.081 241.541C161.209 241.286 161.551 241.158 161.764 240.988C161.85 241.243 161.893 241.456 162.021 241.839H162.063Z" fill="#E1C5A7"/>
<path d="M267.231 260.308C268.598 259.5 269.879 258.436 271.332 257.925C272.912 257.372 273.51 256.564 273.211 254.989C274.621 256.649 274.45 257.67 272.143 258.308C270.435 258.776 268.854 259.628 267.231 260.308Z" fill="#D4B799"/>
<path d="M232.375 192.858C236.988 188.092 242.755 185.539 249.077 185.581C254.587 185.581 260.14 187.028 265.651 188.049C267.915 188.475 268.983 190.007 268.043 192.433C266.804 195.709 264.711 197.284 262.404 196.305C260.098 195.326 257.919 194.135 255.655 193.028C248.735 189.709 241.644 190.007 234.511 192.22C233.784 192.433 233.058 192.603 232.332 192.816L232.375 192.858Z" fill="#22223B"/>
<path d="M241.132 211.582C243.438 212.221 245.702 213.114 248.094 213.455C249.718 213.668 251.426 213.157 253.135 213.029C253.605 213.029 254.203 212.944 254.545 213.199C256.381 214.646 258.175 216.221 260.183 217.923C259.286 217.923 258.517 218.008 257.791 218.008C255.997 218.008 254.203 218.008 252.366 218.051C251.213 217.115 249.76 218.306 248.607 217.54V217.625C248.094 217.327 247.539 217.157 247.026 216.859C244.848 216.561 242.712 216.221 241.174 214.434C240.576 213.582 239.85 212.731 240.448 211.54C240.704 211.37 240.961 211.37 241.174 211.54L241.132 211.582Z" fill="#22223B"/>
<path d="M270.136 245.925C270.947 244.988 271.588 243.499 272.613 243.158C273.98 242.733 275.646 243.158 277.184 243.371C277.526 243.414 277.697 244.35 277.953 244.861C277.398 245.116 276.842 245.584 276.244 245.627C274.45 245.797 272.613 245.797 270.136 245.882V245.925Z" fill="#22223B"/>
<path d="M241.132 211.582C240.919 211.582 240.662 211.625 240.449 211.667C240.022 212.901 240.491 213.71 241.559 214.306C243.524 215.029 245.489 215.753 247.454 216.476C247.369 217.114 247.283 217.795 246.344 217.582C241.26 216.646 238.27 213.369 236.647 208.518C238.142 209.539 239.637 210.561 241.132 211.582Z" fill="#22223B"/>
<path d="M263.685 241.626C263.386 246.179 264.369 247.158 269.537 247.754C267.957 249.371 265.223 249.286 263.343 247.541C261.507 245.881 261.592 243.839 263.685 241.626Z" fill="#22223B"/>
<path d="M246.342 217.583C246.727 217.2 247.068 216.859 247.453 216.476C247.795 216.859 248.136 217.242 248.478 217.625C247.752 217.625 247.068 217.625 246.342 217.625V217.583Z" fill="#22223B"/>
<path d="M241.559 214.305C239.85 213.88 239.722 213.539 240.448 211.667C240.833 212.561 241.217 213.412 241.559 214.305Z" fill="#22223B"/>
<path d="M356.732 241.237L357.306 252.206C356.371 253.779 355.116 255.204 353.543 256.479C351.97 257.755 350.015 258.796 347.676 259.604C345.338 260.369 342.574 260.752 339.386 260.752C334.199 260.709 329.65 259.774 325.738 257.946C321.869 256.075 318.872 253.418 316.746 249.974C314.621 246.531 313.558 242.364 313.558 237.475C313.558 232.713 314.599 228.61 316.683 225.167C318.766 221.68 321.742 219.002 325.611 217.131C329.522 215.261 334.178 214.325 339.577 214.325C342.978 214.325 346.018 214.665 348.697 215.346C351.418 216.026 353.692 216.855 355.52 217.833L355.584 228.738H355.01C353.862 224.529 351.991 221.532 349.398 219.746C346.805 217.918 343.765 217.004 340.279 217.004C336.877 217.004 333.965 217.833 331.542 219.491C329.118 221.149 327.248 223.487 325.93 226.506C324.612 229.525 323.953 233.138 323.953 237.347C323.953 241.556 324.569 245.191 325.802 248.252C327.078 251.314 328.863 253.694 331.159 255.395C333.497 257.096 336.24 257.988 339.386 258.073C342.659 258.073 345.423 257.542 347.676 256.479C349.93 255.416 351.736 253.652 353.097 251.186C354.5 248.72 355.542 245.404 356.222 241.237H356.732ZM401.964 221.595V259.859H392.845V221.595H401.964ZM376.009 221.595V259.859H366.825V221.595H376.009ZM393.355 239.516V242.067H375.435V239.516H393.355ZM367.017 255.841V259.859H362.616V259.221C362.616 259.221 362.723 259.221 362.935 259.221C363.19 259.221 363.339 259.221 363.382 259.221C364.317 259.221 365.125 258.903 365.805 258.265C366.485 257.585 366.825 256.777 366.825 255.841H367.017ZM375.881 255.841H376.009C376.051 256.777 376.413 257.585 377.093 258.265C377.773 258.903 378.581 259.221 379.516 259.221C379.516 259.221 379.623 259.221 379.835 259.221C380.09 259.221 380.218 259.221 380.218 259.221V259.859H375.881V255.841ZM375.881 225.613V221.595H380.218V222.233C380.218 222.233 380.09 222.233 379.835 222.233C379.623 222.233 379.516 222.233 379.516 222.233C378.581 222.233 377.773 222.552 377.093 223.19C376.413 223.828 376.051 224.635 376.009 225.613H375.881ZM367.017 225.613H366.825C366.825 224.635 366.485 223.828 365.805 223.19C365.125 222.552 364.317 222.233 363.382 222.233C363.339 222.233 363.19 222.233 362.935 222.233C362.723 222.233 362.616 222.233 362.616 222.233V221.595H367.017V225.613ZM392.972 255.841V259.859H388.636V259.221C388.636 259.221 388.742 259.221 388.955 259.221C389.21 259.221 389.337 259.221 389.337 259.221C390.273 259.221 391.08 258.903 391.761 258.265C392.441 257.585 392.781 256.777 392.781 255.841H392.972ZM401.773 255.841H401.964C402.007 256.777 402.347 257.585 402.985 258.265C403.665 258.903 404.494 259.221 405.472 259.221C405.472 259.221 405.578 259.221 405.791 259.221C406.046 259.221 406.173 259.221 406.173 259.221V259.859H401.773V255.841ZM401.837 225.613V221.595H406.237V222.233C406.237 222.233 406.109 222.233 405.854 222.233C405.599 222.233 405.472 222.233 405.472 222.233C404.494 222.233 403.665 222.552 402.985 223.19C402.347 223.828 402.028 224.635 402.028 225.613H401.837ZM392.972 225.613H392.781C392.781 224.635 392.441 223.828 391.761 223.19C391.08 222.552 390.273 222.233 389.337 222.233C389.337 222.233 389.21 222.233 388.955 222.233C388.742 222.233 388.636 222.233 388.636 222.233V221.595H392.972V225.613ZM423.782 221.595V259.859H414.599V221.595H423.782ZM414.79 255.841V259.859H410.135V259.221C410.135 259.221 410.262 259.221 410.517 259.221C410.772 259.221 410.921 259.221 410.964 259.221C411.942 259.221 412.792 258.903 413.515 258.265C414.237 257.585 414.599 256.777 414.599 255.841H414.79ZM423.654 255.841H423.782C423.825 256.777 424.186 257.585 424.866 258.265C425.589 258.903 426.46 259.221 427.481 259.221C427.481 259.221 427.587 259.221 427.8 259.221C428.055 259.221 428.204 259.221 428.246 259.221V259.859H423.654V255.841ZM423.654 225.613V221.595H428.246L428.182 222.233C428.182 222.233 428.076 222.233 427.863 222.233C427.651 222.233 427.523 222.233 427.481 222.233C426.46 222.233 425.589 222.552 424.866 223.19C424.186 223.828 423.825 224.635 423.782 225.613H423.654ZM414.79 225.613H414.599C414.599 224.635 414.237 223.828 413.515 223.19C412.792 222.552 411.92 222.233 410.9 222.233C410.9 222.233 410.772 222.233 410.517 222.233C410.262 222.233 410.135 222.233 410.135 222.233V221.595H414.79V225.613ZM470.258 243.852L470.959 253.482C470.152 254.842 469.025 256.075 467.579 257.181C466.134 258.244 464.37 259.094 462.286 259.732C460.203 260.369 457.78 260.688 455.016 260.688C450.255 260.646 446.152 259.838 442.708 258.265C439.264 256.692 436.607 254.438 434.736 251.505C432.908 248.529 431.994 244.915 431.994 240.664C431.994 236.497 432.908 232.947 434.736 230.013C436.565 227.037 439.201 224.763 442.644 223.19C446.088 221.574 450.212 220.766 455.016 220.766C457.907 220.766 460.586 221.043 463.052 221.595C465.56 222.148 467.643 222.85 469.301 223.7L469.365 233.84H468.855C467.792 229.928 466.113 227.186 463.817 225.613C461.521 224.04 458.8 223.254 455.654 223.254C452.55 223.254 449.957 223.976 447.874 225.422C445.833 226.867 444.281 228.887 443.218 231.48C442.198 234.074 441.688 237.114 441.688 240.6C441.688 244.129 442.198 247.19 443.218 249.783C444.281 252.376 445.812 254.396 447.81 255.841C449.808 257.287 452.21 258.052 455.016 258.137C458.035 258.137 460.522 257.67 462.478 256.734C464.476 255.799 466.049 254.29 467.197 252.206C468.387 250.123 469.238 247.338 469.748 243.852H470.258Z" fill="#FFBC42"/>
<path d="M536.685 215.218V259.859H527.119V215.218H536.685ZM506.456 215.218V259.859H496.891V215.218H506.456ZM527.693 236.263V239.005H505.819V236.263H527.693ZM497.082 255.204V259.859H491.98V259.221C491.98 259.221 492.108 259.221 492.363 259.221C492.66 259.221 492.809 259.221 492.809 259.221C493.914 259.221 494.85 258.839 495.615 258.073C496.423 257.266 496.848 256.309 496.891 255.204H497.082ZM497.082 219.874H496.891C496.848 218.768 496.423 217.833 495.615 217.068C494.85 216.26 493.914 215.856 492.809 215.856C492.809 215.856 492.66 215.856 492.363 215.856C492.108 215.856 491.98 215.856 491.98 215.856V215.218H497.082V219.874ZM506.265 255.204H506.456C506.499 256.309 506.903 257.266 507.668 258.073C508.476 258.839 509.433 259.221 510.538 259.221C510.538 259.221 510.665 259.221 510.921 259.221C511.176 259.221 511.324 259.221 511.367 259.221V259.859H506.265V255.204ZM506.265 219.874V215.218H511.367V215.856C511.324 215.856 511.176 215.856 510.921 215.856C510.665 215.856 510.538 215.856 510.538 215.856C509.433 215.856 508.476 216.26 507.668 217.068C506.903 217.833 506.499 218.768 506.456 219.874H506.265ZM527.31 255.204V259.859H522.208V259.221C522.251 259.221 522.4 259.221 522.655 259.221C522.91 259.221 523.037 259.221 523.037 259.221C524.143 259.221 525.099 258.839 525.907 258.073C526.715 257.266 527.119 256.309 527.119 255.204H527.31ZM527.31 219.874H527.119C527.119 218.768 526.715 217.833 525.907 217.068C525.099 216.26 524.143 215.856 523.037 215.856C523.037 215.856 522.91 215.856 522.655 215.856C522.4 215.856 522.251 215.856 522.208 215.856V215.218H527.31V219.874ZM536.493 255.204H536.685C536.727 256.309 537.131 257.266 537.896 258.073C538.704 258.839 539.661 259.221 540.766 259.221C540.766 259.221 540.894 259.221 541.149 259.221C541.446 259.221 541.595 259.221 541.595 259.221V259.859H536.493V255.204ZM536.493 219.874V215.218H541.595V215.856C541.595 215.856 541.446 215.856 541.149 215.856C540.894 215.856 540.766 215.856 540.766 215.856C539.661 215.856 538.704 216.26 537.896 217.068C537.131 217.833 536.727 218.768 536.685 219.874H536.493ZM563.889 219.874L582.766 259.54H571.988L560.127 231.544L563.889 219.874ZM551.9 255.65C551.432 256.798 551.496 257.691 552.091 258.329C552.687 258.924 553.346 259.221 554.068 259.221H554.578V259.859H541.824V259.221C541.824 259.221 541.909 259.221 542.079 259.221C542.249 259.221 542.334 259.221 542.334 259.221C543.184 259.221 544.077 258.966 545.013 258.456C545.948 257.903 546.713 256.968 547.308 255.65H551.9ZM563.889 219.874L564.017 227.526L550.178 259.668H545.459L560.382 227.59C560.467 227.335 560.658 226.889 560.956 226.251C561.253 225.571 561.572 224.827 561.912 224.019C562.252 223.169 562.571 222.382 562.869 221.659C563.167 220.894 563.337 220.299 563.379 219.874H563.889ZM569.438 247.36V249.847H553.175V247.36H569.438ZM570.394 255.65H580.917C581.554 256.968 582.341 257.903 583.276 258.456C584.212 258.966 585.104 259.221 585.955 259.221C585.955 259.221 586.04 259.221 586.21 259.221C586.38 259.221 586.465 259.221 586.465 259.221V259.859H567.716V259.221H568.226C568.949 259.221 569.608 258.924 570.203 258.329C570.798 257.691 570.862 256.798 570.394 255.65ZM598.956 260.688L580.207 221.914H591.049L602.655 248.954L598.956 260.688ZM598.956 260.688L598.701 253.227L612.54 221.787H617.195L602.464 252.908C602.379 253.12 602.188 253.567 601.89 254.247C601.592 254.885 601.273 255.629 600.933 256.479C600.593 257.287 600.274 258.073 599.977 258.839C599.722 259.604 599.573 260.221 599.53 260.688H598.956ZM610.754 225.804C611.222 224.657 611.158 223.764 610.563 223.126C610.01 222.488 609.351 222.169 608.586 222.169H608.14V221.595H620.83V222.233C620.83 222.233 620.745 222.233 620.575 222.233C620.405 222.233 620.32 222.233 620.32 222.233C619.47 222.233 618.577 222.51 617.642 223.062C616.706 223.572 615.92 224.486 615.282 225.804H610.754ZM592.707 225.804H582.12C581.483 224.486 580.696 223.572 579.761 223.062C578.868 222.51 577.996 222.233 577.146 222.233C577.146 222.233 577.082 222.233 576.955 222.233C576.785 222.233 576.7 222.233 576.7 222.233V221.595H595.385V222.169H594.875C594.195 222.169 593.557 222.488 592.962 223.126C592.367 223.764 592.281 224.657 592.707 225.804ZM635.025 221.595V259.859H625.842V221.595H635.025ZM649.948 257.308L651.414 259.859H634.897V257.308H649.948ZM647.779 239.643V242.194H634.897V239.643H647.779ZM650.649 221.595V224.146H634.897V221.595H650.649ZM654.029 248.125L651.606 259.859H640.573L642.55 257.308C644.378 257.308 645.994 256.947 647.397 256.224C648.842 255.459 650.075 254.396 651.096 253.035C652.116 251.632 652.902 249.996 653.455 248.125H654.029ZM647.779 242.067V247.679H647.142V247.168C647.142 245.765 646.695 244.596 645.802 243.661C644.952 242.726 643.783 242.237 642.295 242.194V242.067H647.779ZM647.779 234.159V239.771H642.295V239.643C643.783 239.601 644.952 239.112 645.802 238.176C646.695 237.199 647.142 236.008 647.142 234.605V234.159H647.779ZM650.649 224.019V230.779H650.011V230.205C650.011 228.334 649.501 226.867 648.481 225.804C647.503 224.742 646.079 224.189 644.208 224.146V224.019H650.649ZM650.649 220.639V222.169L643.953 221.595C645.186 221.595 646.483 221.489 647.843 221.277C649.204 221.022 650.139 220.809 650.649 220.639ZM625.969 255.841L626.288 259.859H621.569V259.221C621.569 259.221 621.696 259.221 621.951 259.221C622.207 259.221 622.355 259.221 622.398 259.221C623.333 259.221 624.12 258.903 624.757 258.265C625.438 257.585 625.799 256.777 625.842 255.841H625.969ZM625.969 225.613H625.842C625.799 224.635 625.438 223.828 624.757 223.19C624.12 222.552 623.333 222.233 622.398 222.233C622.355 222.233 622.207 222.233 621.951 222.233C621.696 222.233 621.569 222.233 621.569 222.233V221.595H626.288L625.969 225.613ZM661.201 220.703L698.635 253.609L699.273 260.688L661.902 227.781L661.201 220.703ZM661.456 255.969V259.859H656.737V259.221C656.737 259.221 656.907 259.221 657.247 259.221C657.587 259.221 657.757 259.221 657.757 259.221C658.735 259.221 659.564 258.924 660.244 258.329C660.924 257.691 661.264 256.904 661.264 255.969H661.456ZM670.001 255.969C670.044 256.904 670.405 257.691 671.085 258.329C671.766 258.924 672.573 259.221 673.509 259.221C673.509 259.221 673.679 259.221 674.019 259.221C674.402 259.221 674.593 259.221 674.593 259.221V259.859H669.874V255.969H670.001ZM661.201 220.703L670.001 230.269V259.859H661.264V227.973C661.264 225.804 661.158 224.061 660.946 222.743C660.733 221.383 660.627 220.703 660.627 220.703H661.201ZM699.209 221.595V253.227C699.209 254.715 699.252 256.033 699.337 257.181C699.464 258.286 699.571 259.158 699.656 259.795C699.783 260.391 699.847 260.688 699.847 260.688H699.273L690.472 250.548V221.595H699.209ZM699.018 225.486V221.595H703.801V222.233C703.801 222.233 703.609 222.233 703.227 222.233C702.887 222.233 702.717 222.233 702.717 222.233C701.781 222.233 700.952 222.552 700.23 223.19C699.549 223.785 699.209 224.55 699.209 225.486H699.018ZM690.472 225.486C690.43 224.55 690.068 223.785 689.388 223.19C688.75 222.552 687.943 222.233 686.965 222.233C686.965 222.233 686.773 222.233 686.391 222.233C686.051 222.233 685.881 222.233 685.881 222.233V221.595H690.6V225.486H690.472Z" fill="#22223B"/>
<path d="M496.695 286.7H506.978C509.829 286.7 512.04 287.38 513.61 288.741C515.18 290.075 515.965 291.893 515.965 294.196C515.965 295.87 515.533 297.283 514.67 298.434C513.806 299.585 512.59 300.318 511.02 300.632C512.956 300.893 514.473 301.652 515.572 302.908C516.671 304.138 517.22 305.668 517.22 307.5C517.22 312.732 514.264 315.349 508.351 315.349H496.695V313.308L499.168 313.033V289.055L496.695 288.741V286.7ZM502.307 288.858V313.19H508.273C512.171 313.19 514.12 311.293 514.12 307.5C514.12 305.694 513.545 304.295 512.393 303.3C511.242 302.306 509.607 301.809 507.488 301.809H504.78V299.651H507.488C511.072 299.651 512.864 297.832 512.864 294.196C512.864 292.574 512.341 291.279 511.294 290.31C510.274 289.342 508.77 288.858 506.781 288.858H502.307ZM524.267 303.928C524.267 300.239 525.091 297.388 526.739 295.373C528.414 293.358 530.769 292.351 533.804 292.351C536.865 292.351 539.298 293.437 541.103 295.609C542.908 297.754 543.811 300.671 543.811 304.36C543.811 308.023 542.974 310.862 541.299 312.876C539.625 314.891 537.257 315.898 534.196 315.898C531.161 315.898 528.741 314.825 526.936 312.68C525.157 310.508 524.267 307.591 524.267 303.928ZM540.711 304.321C540.711 301.364 540.096 299.036 538.866 297.335C537.636 295.609 535.975 294.745 533.882 294.745C531.789 294.745 530.167 295.543 529.016 297.139C527.891 298.735 527.328 300.998 527.328 303.928C527.328 306.859 527.943 309.187 529.173 310.914C530.428 312.641 532.09 313.504 534.157 313.504C536.224 313.504 537.833 312.706 538.984 311.11C540.135 309.514 540.711 307.251 540.711 304.321ZM571.09 294.117V311.11C571.09 312.549 571.665 313.269 572.817 313.269C573.471 313.269 574.007 313.19 574.426 313.033L574.818 315.388C573.745 315.728 572.738 315.898 571.796 315.898C569.677 315.898 568.447 314.891 568.107 312.876C565.386 314.891 562.783 315.898 560.297 315.898C557.838 315.898 556.098 315.336 555.078 314.211C554.058 313.059 553.547 311.28 553.547 308.873V295.255L550.8 294.941V292.901H555.313C556.203 292.901 556.648 293.306 556.648 294.117V308.873C556.648 310.522 556.935 311.712 557.511 312.445C558.113 313.177 559.133 313.543 560.572 313.543C563.058 313.543 565.543 312.523 568.029 310.482V295.255L565.674 294.941V292.901H569.912C570.697 292.901 571.09 293.306 571.09 294.117ZM580.751 295.059V292.901H584.165V287.799L587.265 287.092V292.901H591.543V295.059H587.265V311.11C587.265 312.523 587.841 313.229 588.992 313.229C589.751 313.229 590.483 313.086 591.19 312.798L591.543 315.192C590.313 315.663 589.071 315.898 587.815 315.898C586.585 315.898 585.669 315.545 585.068 314.838C584.466 314.106 584.165 312.955 584.165 311.385V295.059H580.751ZM603.652 294.117V311.11C603.652 312.549 604.227 313.269 605.378 313.269C605.823 313.269 606.359 313.19 606.987 313.033L607.38 315.388C606.307 315.728 605.208 315.898 604.083 315.898C601.755 315.898 600.59 314.42 600.59 311.463V295.255L598.236 294.941V292.901H602.474C603.259 292.901 603.652 293.306 603.652 294.117ZM602.16 289.251C601.637 289.251 601.166 289.055 600.747 288.662C600.355 288.27 600.159 287.812 600.159 287.289C600.159 286.739 600.355 286.268 600.747 285.876C601.166 285.457 601.637 285.248 602.16 285.248C602.71 285.248 603.181 285.457 603.573 285.876C603.966 286.268 604.162 286.739 604.162 287.289C604.162 287.812 603.966 288.27 603.573 288.662C603.181 289.055 602.71 289.251 602.16 289.251ZM622.329 315.898C620.89 315.898 619.621 315.545 618.522 314.838C617.449 314.132 616.612 313.203 616.01 312.052C614.807 309.697 614.205 307.055 614.205 304.125C614.205 301.377 614.898 298.813 616.285 296.433C616.991 295.203 617.986 294.222 619.268 293.489C620.576 292.731 622.093 292.351 623.82 292.351C627.09 292.351 629.367 293.803 630.649 296.707V294.078C630.649 293.293 631.054 292.901 631.865 292.901H635.201V294.941L632.454 295.255V324.493L629.354 324.257V312.327C627.417 314.708 625.076 315.898 622.329 315.898ZM629.354 302.202C629.354 299.559 628.83 297.662 627.784 296.511C626.763 295.334 625.429 294.745 623.781 294.745C621.688 294.745 620.079 295.595 618.954 297.296C617.829 298.97 617.266 301.247 617.266 304.125C617.266 306.584 617.685 308.716 618.522 310.522C618.941 311.463 619.568 312.209 620.406 312.758C621.243 313.282 622.237 313.543 623.388 313.543C625.586 313.543 627.574 312.353 629.354 309.972V302.202ZM662.331 294.117V311.11C662.331 312.549 662.906 313.269 664.058 313.269C664.712 313.269 665.248 313.19 665.667 313.033L666.059 315.388C664.986 315.728 663.979 315.898 663.037 315.898C660.918 315.898 659.688 314.891 659.348 312.876C656.627 314.891 654.024 315.898 651.538 315.898C649.079 315.898 647.339 315.336 646.319 314.211C645.299 313.059 644.788 311.28 644.788 308.873V295.255L642.041 294.941V292.901H646.554C647.444 292.901 647.889 293.306 647.889 294.117V308.873C647.889 310.522 648.176 311.712 648.752 312.445C649.354 313.177 650.374 313.543 651.813 313.543C654.299 313.543 656.784 312.523 659.27 310.482V295.255L656.915 294.941V292.901H661.153C661.938 292.901 662.331 293.306 662.331 294.117ZM691.418 304.792H675.955C675.955 307.696 676.688 309.959 678.153 311.581C679.304 312.863 680.874 313.504 682.863 313.504C684.877 313.504 687.036 312.915 689.338 311.738L690.319 314.014C687.677 315.27 685.322 315.898 683.255 315.898C681.214 315.898 679.527 315.571 678.192 314.917C676.884 314.237 675.851 313.334 675.092 312.209C673.627 309.933 672.894 307.356 672.894 304.478C672.894 301.129 673.601 298.316 675.014 296.04C675.746 294.889 676.74 293.986 677.996 293.332C679.278 292.678 680.769 292.351 682.47 292.351C685.27 292.351 687.454 293.306 689.024 295.216C690.62 297.126 691.418 299.677 691.418 302.869V304.792ZM688.318 302.594C688.318 300.213 687.794 298.316 686.748 296.904C685.701 295.465 684.197 294.745 682.235 294.745C680.272 294.745 678.794 295.491 677.8 296.982C676.806 298.473 676.217 300.344 676.034 302.594H688.318Z" fill="#FFBC42"/>
</svg>
