<svg width="271" height="244" viewBox="0 0 271 244" fill="none" xmlns="http://www.w3.org/2000/svg">
<path d="M212.428 0.898793C216.475 1.81054 220.589 2.54439 224.525 3.94538C232.219 6.68063 239.158 10.6834 245.34 16.065C258.171 27.2284 265.131 41.683 268.934 57.9166C269.534 60.4517 269.868 63.0536 270.335 65.6332C270.557 68.613 270.557 71.5929 270.335 74.5728C268.823 88.8272 263.686 101.859 256.881 114.334C250.921 125.275 243.894 135.482 236.333 145.334C231.13 152.094 225.593 158.565 219.966 164.992C211.16 175.021 201.865 184.539 192.302 193.834C181.228 204.597 169.798 214.96 157.967 224.901C150.896 230.838 143.802 236.731 136.53 242.424C135.551 243.18 134.973 243.402 133.839 242.535C127.924 238.088 122.231 233.373 116.605 228.592C112.157 224.812 107.643 221.12 103.24 217.273C99.7263 214.204 96.3017 211.002 92.8548 207.844C88.8298 204.153 84.7825 200.483 80.8687 196.681C74.9534 190.899 68.9936 185.139 63.3452 179.113C56.4293 171.73 49.6245 164.258 43.1088 156.475C37.2158 149.403 31.6118 142.131 26.2303 134.682C22.1385 129.011 18.4915 123.051 15.0669 116.936C11.8202 111.132 8.84029 105.194 6.37189 99.0344C3.68111 92.2741 1.5018 85.3359 0.834664 78.0196C0.501096 77.308 0.901378 76.4852 0.523334 75.7958C0.478859 74.8174 0.456621 73.8612 0.412145 72.8827C0.189767 70.9035 0.189767 68.9244 0.412145 66.9229C0.701237 58.4503 3.08069 50.4447 6.2607 42.7059C9.57413 34.6336 14.1774 27.3174 20.2038 20.8684C28.2984 12.2179 37.8607 6.14692 49.2464 2.9002C53.4939 1.69936 57.8302 1.05446 62.1666 0.454036C65.569 0.231658 68.9936 0.231658 72.396 0.454036C86.9618 1.94397 99.9042 7.1921 111.157 16.7321C121.964 25.8941 129.125 37.4578 134.084 50.5337C134.217 50.8672 134.373 51.1786 134.44 51.5344C134.551 52.0458 134.684 52.6018 135.24 52.6463C136.018 52.7352 135.796 51.9346 135.93 51.5566C138.932 43.2174 142.89 35.3897 148.272 28.2958C154.587 19.9789 162.237 13.263 171.488 8.30399C179.894 3.81195 188.878 1.38803 198.307 0.431798C201.709 0.20942 205.134 0.20942 208.536 0.431798C209.092 0.454036 209.648 0.498512 210.204 0.52075C210.871 0.965507 211.694 0.498512 212.383 0.876555L212.428 0.898793Z" fill="#22223B"/>
<path d="M208.559 0.450316C205.156 0.450316 201.731 0.450316 198.329 0.450316C201.731 -0.150105 205.156 -0.150105 208.559 0.450316Z" fill="#22223B"/>
<path d="M72.4194 0.450316C69.017 0.450316 65.5923 0.450316 62.1899 0.450316C65.5923 -0.150105 69.017 -0.150105 72.4194 0.450316Z" fill="#22223B"/>
<path d="M0.433638 66.9211C0.433638 68.9002 0.433638 70.8794 0.433638 72.8808C-0.144546 70.9017 -0.144546 68.9225 0.433638 66.9211Z" fill="#22223B"/>
<path d="M212.428 0.895759C211.672 0.895759 210.916 1.05142 210.249 0.539954C210.983 0.606667 211.783 0.250862 212.428 0.895759Z" fill="#22223B"/>
<path d="M0.544423 75.7694C1.03366 76.4588 0.900229 77.2371 0.855753 77.9932C0.233093 77.3261 0.566661 76.5255 0.544423 75.7694Z" fill="#22223B"/>
</svg>
