<svg width="49" height="45" viewBox="0 0 49 45" fill="none" xmlns="http://www.w3.org/2000/svg">
<path d="M38.4802 0.163146C39.2133 0.328305 39.9586 0.461238 40.6716 0.715019C42.0654 1.2105 43.3222 1.93559 44.442 2.91043C46.7664 4.93262 48.0272 7.551 48.716 10.4916C48.8248 10.9509 48.8852 11.4222 48.9698 11.8894C49.0101 12.4292 49.0101 12.969 48.9698 13.5088C48.6959 16.0909 47.7654 18.4515 46.5327 20.7114C45.4531 22.6933 44.1802 24.5423 42.8106 26.3268C41.868 27.5514 40.8649 28.7236 39.8458 29.8878C38.2506 31.7045 36.5668 33.4286 34.8346 35.1124C32.8285 37.0621 30.758 38.9393 28.615 40.7399C27.334 41.8155 26.049 42.883 24.7317 43.9142C24.5545 44.0512 24.4497 44.0915 24.2443 43.9344C23.1728 43.1287 22.1415 42.2747 21.1224 41.4086C20.3167 40.7238 19.499 40.0551 18.7014 39.3582C18.0649 38.8023 17.4446 38.2223 16.8202 37.6503C16.0911 36.9816 15.3579 36.3169 14.6489 35.6281C13.5774 34.5807 12.4978 33.5374 11.4747 32.4457C10.2219 31.1083 8.98921 29.7548 7.80893 28.3449C6.74144 27.064 5.72631 25.7467 4.75147 24.3972C4.01027 23.37 3.34963 22.2905 2.72928 21.1827C2.14115 20.1313 1.60136 19.0557 1.15422 17.9399C0.666802 16.7153 0.272031 15.4585 0.151183 14.1332C0.0907587 14.0043 0.163268 13.8552 0.094787 13.7304C0.0867305 13.5531 0.0827022 13.3799 0.0746456 13.2027C0.0343629 12.8441 0.0343629 12.4856 0.0746456 12.1231C0.127013 10.5883 0.558038 9.13814 1.13408 7.7363C1.73429 6.27404 2.56815 4.94873 3.65981 3.78054C5.1261 2.21354 6.85826 1.11382 8.92073 0.52569C9.69013 0.308163 10.4756 0.191344 11.2612 0.0825802C11.8775 0.0422974 12.4978 0.0422974 13.1142 0.0825802C15.7527 0.352474 18.0971 1.30315 20.1354 3.03128C22.0932 4.69092 23.3903 6.78563 24.2886 9.15425C24.3128 9.21467 24.341 9.27107 24.353 9.33552C24.3732 9.42817 24.3974 9.52888 24.4981 9.53694C24.6391 9.55305 24.5988 9.40803 24.6229 9.33955C25.1668 7.82895 25.8838 6.411 26.8586 5.12598C28.0027 3.6194 29.3884 2.40287 31.0641 1.50456C32.5868 0.690849 34.2143 0.251768 35.9222 0.0785519C36.5386 0.0382692 37.1589 0.0382692 37.7752 0.0785519C37.876 0.0825802 37.9767 0.0906367 38.0774 0.094665C38.1982 0.17523 38.3473 0.0906367 38.4721 0.159117L38.4802 0.163146Z" fill="#CAADA7"/>
<path d="M37.7793 0.0815725C37.1629 0.0815725 36.5426 0.0815725 35.9263 0.0815725C36.5426 -0.0271908 37.1629 -0.0271908 37.7793 0.0815725Z" fill="#F9F5E3"/>
<path d="M13.1184 0.0815725C12.5021 0.0815725 11.8817 0.0815725 11.2654 0.0815725C11.8817 -0.0271908 12.5021 -0.0271908 13.1184 0.0815725Z" fill="#F9F5E3"/>
<path d="M0.0785513 12.1226C0.0785513 12.4811 0.0785513 12.8396 0.0785513 13.2021C-0.0261838 12.8436 -0.0261838 12.4851 0.0785513 12.1226Z" fill="#F9F5E3"/>
<path d="M38.4802 0.162322C38.3433 0.162322 38.2063 0.19052 38.0854 0.0978698C38.2184 0.109955 38.3634 0.0455023 38.4802 0.162322Z" fill="#F9F5E3"/>
<path d="M0.0985397 13.7251C0.187162 13.85 0.162992 13.991 0.154935 14.1279C0.0421438 14.0071 0.102568 13.8621 0.0985397 13.7251Z" fill="#F9F5E3"/>
</svg>
