<svg width="271" height="244" viewBox="0 0 271 244" fill="none" xmlns="http://www.w3.org/2000/svg">
<path d="M212.871 0.898824C216.918 1.81058 221.032 2.54442 224.968 3.94541C232.662 6.68066 239.601 10.6835 245.783 16.065C258.614 27.2284 265.574 41.683 269.377 57.9167C269.978 60.4518 270.311 63.0536 270.778 65.6332C271.001 68.6131 271.001 71.5929 270.778 74.5728C269.266 88.8272 264.129 101.859 257.324 114.334C251.365 125.275 244.337 135.482 236.776 145.334C231.573 152.094 226.036 158.565 220.409 164.992C211.603 175.021 202.308 184.539 192.746 193.834C181.671 204.597 170.241 214.96 158.41 224.901C151.339 230.838 144.245 236.731 136.973 242.424C135.995 243.18 135.416 243.402 134.282 242.535C128.367 238.088 122.674 233.373 117.048 228.592C112.6 224.812 108.086 221.12 103.683 217.273C100.169 214.204 96.7448 211.002 93.298 207.844C89.2729 204.153 85.2256 200.483 81.3118 196.681C75.3965 190.899 69.4368 185.139 63.7883 179.113C56.8724 171.73 50.0676 164.258 43.5519 156.475C37.6589 149.403 32.055 142.131 26.6734 134.682C22.5816 129.011 18.9346 123.051 15.51 116.936C12.2633 111.132 9.2834 105.194 6.815 99.0344C4.12422 92.2741 1.94491 85.3359 1.27778 78.0197C0.944212 77.3081 1.34449 76.4853 0.96645 75.7959C0.921974 74.8174 0.899736 73.8612 0.85526 72.8827C0.632882 70.9035 0.632882 68.9244 0.85526 66.923C1.14435 58.4504 3.5238 50.4447 6.70381 42.706C10.0173 34.6336 14.6205 27.3174 20.6469 20.8684C28.7415 12.2179 38.3038 6.14695 49.6896 2.90023C53.937 1.69939 58.2734 1.05449 62.6097 0.454067C66.0121 0.231688 69.4368 0.231688 72.8391 0.454067C87.4049 1.944 100.347 7.19213 111.6 16.7322C122.407 25.8942 129.568 37.4578 134.527 50.5337C134.66 50.8673 134.816 51.1786 134.883 51.5344C134.994 52.0459 135.127 52.6018 135.683 52.6463C136.462 52.7352 136.239 51.9347 136.373 51.5566C139.375 43.2174 143.333 35.3897 148.715 28.2958C155.03 19.9789 162.68 13.2631 171.931 8.30402C180.337 3.81198 189.321 1.38806 198.75 0.431829C202.152 0.209451 205.577 0.209451 208.979 0.431829C209.535 0.454067 210.091 0.498543 210.647 0.52078C211.314 0.965537 212.137 0.498542 212.826 0.876586L212.871 0.898824Z" fill="#4A4E69"/>
<path d="M209.002 0.450316C205.599 0.450316 202.175 0.450316 198.772 0.450316C202.175 -0.150105 205.599 -0.150105 209.002 0.450316Z" fill="#4A4E69"/>
<path d="M72.8625 0.450316C69.4601 0.450316 66.0354 0.450316 62.6331 0.450316C66.0354 -0.150105 69.4601 -0.150105 72.8625 0.450316Z" fill="#4A4E69"/>
<path d="M0.876753 66.9211C0.876753 68.9003 0.876753 70.8794 0.876753 72.8809C0.298569 70.9017 0.298569 68.9225 0.876753 66.9211Z" fill="#4A4E69"/>
<path d="M212.871 0.89579C212.115 0.89579 211.359 1.05145 210.692 0.539984C211.426 0.606698 212.226 0.250892 212.871 0.89579Z" fill="#4A4E69"/>
<path d="M0.987538 75.7694C1.47677 76.4588 1.34334 77.2371 1.29887 77.9932C0.676208 77.3261 1.00978 76.5255 0.987538 75.7694Z" fill="#4A4E69"/>
</svg>
