<svg width="271" height="244" viewBox="0 0 271 244" fill="none" xmlns="http://www.w3.org/2000/svg">
<path d="M212.427 0.898824C216.475 1.81058 220.589 2.54442 224.525 3.94541C232.219 6.68066 239.157 10.6835 245.339 16.065C258.171 27.2284 265.131 41.683 268.934 57.9167C269.534 60.4518 269.868 63.0536 270.335 65.6332C270.557 68.6131 270.557 71.5929 270.335 74.5728C268.823 88.8272 263.686 101.859 256.881 114.334C250.921 125.275 243.894 135.482 236.333 145.334C231.129 152.094 225.592 158.565 219.966 164.992C211.16 175.021 201.864 184.539 192.302 193.834C181.228 204.597 169.798 214.96 157.967 224.901C150.895 230.838 143.801 236.731 136.53 242.424C135.551 243.18 134.973 243.402 133.839 242.535C127.924 238.088 122.231 233.373 116.605 228.592C112.157 224.812 107.643 221.12 103.24 217.273C99.7261 214.204 96.3015 211.002 92.8546 207.844C88.8296 204.153 84.7823 200.483 80.8684 196.681C74.9531 190.899 68.9934 185.139 63.345 179.113C56.429 171.73 49.6242 164.258 43.1086 156.475C37.2155 149.403 31.6116 142.131 26.23 134.682C22.1383 129.011 18.4913 123.051 15.0666 116.936C11.8199 111.132 8.84004 105.194 6.37164 99.0344C3.68086 92.2741 1.50156 85.3359 0.83442 78.0197C0.500852 77.308 0.901133 76.4852 0.52309 75.7959C0.478615 74.8174 0.456377 73.8612 0.411901 72.8827C0.189523 70.9035 0.189523 68.9244 0.411901 66.923C0.700993 58.4504 3.08044 50.4447 6.26045 42.706C9.57389 34.6336 14.1771 27.3174 20.2036 20.8684C28.2982 12.2179 37.8604 6.14695 49.2462 2.90023C53.4936 1.69939 57.83 1.05449 62.1664 0.454067C65.5688 0.231688 68.9934 0.231688 72.3958 0.454067C86.9616 1.944 99.904 7.19213 111.156 16.7322C121.964 25.8942 129.125 37.4578 134.084 50.5337C134.217 50.8673 134.373 51.1786 134.439 51.5344C134.551 52.0459 134.684 52.6018 135.24 52.6463C136.018 52.7352 135.796 51.9347 135.929 51.5566C138.931 43.2174 142.89 35.3897 148.271 28.2958C154.587 19.9789 162.237 13.2631 171.488 8.30403C179.893 3.81198 188.878 1.38806 198.306 0.431829C201.709 0.209451 205.133 0.209451 208.536 0.431829C209.092 0.454067 209.648 0.498543 210.204 0.52078C210.871 0.965537 211.694 0.498542 212.383 0.876586L212.427 0.898824Z" fill="#D81159"/>
<path d="M208.559 0.450316C205.156 0.450316 201.731 0.450316 198.329 0.450316C201.731 -0.150105 205.156 -0.150105 208.559 0.450316Z" fill="#D81159"/>
<path d="M72.4194 0.450316C69.017 0.450316 65.5923 0.450316 62.1899 0.450316C65.5923 -0.150105 69.017 -0.150105 72.4194 0.450316Z" fill="#D81159"/>
<path d="M0.433638 66.9211C0.433638 68.9003 0.433638 70.8794 0.433638 72.8809C-0.144546 70.9017 -0.144546 68.9225 0.433638 66.9211Z" fill="#D81159"/>
<path d="M212.428 0.895782C211.672 0.895782 210.916 1.05145 210.249 0.539977C210.982 0.60669 211.783 0.250885 212.428 0.895782Z" fill="#D81159"/>
<path d="M0.544179 75.7694C1.03341 76.4588 0.899984 77.2371 0.855509 77.9932C0.232849 77.3261 0.566417 76.5255 0.544179 75.7694Z" fill="#D81159"/>
</svg>
