<svg width="473" height="464" viewBox="0 0 473 464" fill="none" xmlns="http://www.w3.org/2000/svg">
<path d="M301.053 166.587C305.117 186.839 305.209 207.013 300.358 227.139C299.218 231.926 298.011 236.729 296.052 241.289C295.284 243.116 295.553 244.172 297.509 245.306C313.118 254.208 328.617 263.246 344.116 272.285C345.944 273.343 346.873 273.288 348.22 271.458C352.721 265.345 359.586 264.107 366.301 267.983C388.856 280.955 411.301 294.065 433.958 306.867C441.288 311.021 448.644 315.133 455.864 319.425C462.571 323.411 464.347 330.393 460.489 337.176C454.32 347.992 448.023 358.732 441.897 369.574C438.174 376.178 430.875 379.413 422.723 374.452C409.23 366.172 395.306 358.618 381.602 350.791C371.461 344.995 361.667 338.566 351.289 333.265C345.421 330.298 339.808 326.903 334.143 323.594C327.59 319.786 325.209 312.849 328.368 306.026C329.255 304.096 329.047 303.278 327.253 302.357C314.552 295.906 302.444 288.362 290.141 281.194C286.911 279.332 283.419 277.864 280.282 275.797C278.846 274.857 278.354 275.345 277.49 276.507C267.685 290.134 255.654 301.571 241.56 310.596C232.805 316.232 223.611 321 213.644 324.443C204.878 327.471 195.964 329.92 186.919 331.568C179.399 332.937 171.601 333.072 163.878 332.933C153.794 332.779 143.893 331.346 134.141 328.931C122.955 326.156 112.352 321.964 102.068 316.603C91.2453 310.98 81.695 303.8 72.8651 295.603C61.7251 285.311 52.8535 273.245 45.6471 259.884C38.9137 247.528 34.5971 234.267 31.7871 220.513C28.5687 204.869 28.9044 189.228 31.2768 173.467C33.1106 161.433 36.5573 149.895 41.5749 138.973C46.694 127.88 53.197 117.523 61.033 107.987C70.5312 96.4326 81.6143 86.8321 94.3498 79.0231C103.234 73.6081 112.592 69.1969 122.422 65.7895C123.569 65.0262 125.096 65.1818 126.208 64.2822C130.704 63.1385 135.2 61.9948 139.695 60.8511C141.358 61.117 142.794 60.0627 144.423 60.1923C174.006 55.7484 202.235 59.8079 229.054 73.4363C256.924 87.6314 277.222 109.12 290.873 136.977C294.397 144.13 297.053 151.722 299.267 159.427C300.206 161.69 300.812 164.074 301.069 166.51L301.053 166.587Z" fill="#F9F5E3"/>
<path d="M139.84 89.3516C195.717 74.6646 257.243 106.696 273.526 169.275C288.561 226.949 252.221 287.359 193.949 302.039C134.723 316.962 73.6164 281.306 59.5495 218.744C47.0544 163.215 81.1412 104.067 139.84 89.3516Z" fill="#22223B"/>
<path d="M124.026 206.077C118.021 182.475 132.438 158.755 156.355 152.706C179.838 146.805 203.985 161.331 209.989 184.932C215.889 208.125 200.983 232.913 177.67 238.627C153.812 244.479 130.1 230.096 124.017 206.043L124.026 206.077Z" fill="#F9F5E3"/>
<path d="M220.843 215.06C228.098 190.841 222.728 170.16 204.473 152.14C212.789 153.615 219.833 156.5 226.648 159.771C233.925 163.286 240.693 167.656 246.962 172.77C248.339 173.906 249.025 174.892 248.274 176.787C242.428 191.293 233.752 203.798 222.272 214.406C222.043 214.646 221.626 214.715 220.843 215.06Z" fill="#F9F5E3"/>
<path d="M128.277 238.464C115.396 235.867 103.638 230.699 93.1821 222.952C82.6833 215.18 83.4309 218.689 88.939 206.844C94.4471 194.999 102.426 184.883 112.642 176.011C105.778 199.913 110.978 220.637 128.311 238.456L128.277 238.464Z" fill="#F9F5E3"/>
<path d="M154.708 121.288C155.488 124.353 156.336 127.401 157.047 130.484C157.846 134.051 156.07 137.332 152.895 138.393C149.593 139.524 145.666 137.912 144.62 134.37C142.606 127.594 140.864 120.749 139.395 113.834C138.682 110.462 141.43 107.152 144.649 106.55C148.005 105.914 151.03 107.828 152.178 111.343C152.239 111.582 152.299 111.82 152.36 112.059C153.14 115.124 153.92 118.189 154.699 121.254L154.708 121.288Z" fill="#F9F5E3"/>
<path d="M127.627 146.816C128.134 149.951 127.369 152.647 124.785 154.32C122.329 155.924 119.482 155.996 117.351 153.891C112.199 148.892 107.158 143.756 102.329 138.458C100.12 136.046 100.523 132.499 102.712 130.129C104.748 127.87 108.785 127.061 111.044 129.097C116.613 134.171 121.903 139.57 126.811 145.32C127.179 145.77 127.437 146.357 127.661 146.808L127.627 146.816Z" fill="#F9F5E3"/>
<path d="M178.067 132.569C180.006 125.512 181.223 116.899 185.3 109.262C186.653 106.742 189.78 106.49 192.529 107.604C195.518 108.802 197.037 111.498 196.35 114.356C194.709 121.445 192.693 128.485 190.471 135.433C189.588 138.232 186.985 139.547 184.026 139.175C181.033 138.813 178.861 137.117 177.99 132.552L178.067 132.569Z" fill="#F9F5E3"/>
<path d="M191.843 267.256C192.623 270.321 193.471 273.369 194.183 276.452C195.008 280.122 193.282 283.172 189.953 284.2C186.352 285.297 182.801 283.88 181.738 280.271C179.758 273.631 178.077 266.879 176.566 260.083C175.827 256.754 178.293 253.334 181.469 252.562C184.909 251.687 188.233 253.634 189.322 257.346C190.299 260.614 191.003 263.953 191.843 267.256Z" fill="#F9F5E3"/>
<path d="M155.723 257.263C155.624 258.158 155.689 259.411 155.395 260.537C153.708 266.732 151.952 272.944 150.188 279.122C149.423 281.819 147.59 283.591 144.813 283.935C141.933 284.305 139.601 283.121 138.048 280.579C137.061 278.981 137.208 277.275 137.627 275.646C139.357 269.331 141.078 262.983 142.97 256.736C143.894 253.672 146.077 251.848 149.496 252.03C152.727 252.187 154.55 254.08 155.723 257.263Z" fill="#F9F5E3"/>
<path d="M206.226 243.836C205.667 240.642 206.766 238.404 209.256 236.791C211.747 235.179 214.45 235.398 216.367 237.231C221.629 242.238 226.731 247.467 231.611 252.825C233.786 255.245 233.179 258.844 230.896 261.129C228.612 263.415 224.992 264.009 222.648 261.777C217.266 256.728 212.189 251.311 207.061 245.98C206.522 245.428 206.416 244.44 206.192 243.844L206.226 243.836Z" fill="#F9F5E3"/>
<path d="M171.449 214.029C161.028 216.68 150.902 210.517 148.216 199.959C145.738 190.219 152.121 179.675 162.074 177.034C172.154 174.324 182.698 180.707 185.383 191.12C187.991 201.371 181.905 211.369 171.449 214.029Z" fill="#22223B"/>
</svg>
