<svg width="394" height="334" viewBox="0 0 394 334" fill="none" xmlns="http://www.w3.org/2000/svg">
<path d="M350.466 20.5207C351.46 20.4566 352.421 20.3926 353.415 20.3285C354.44 19.7837 355.626 20.3285 356.651 19.8798C357.452 19.8157 358.222 19.7837 359.023 19.7196C360.016 19.1427 361.202 19.7196 362.195 19.2709C363.157 19.2068 364.15 19.1427 365.112 19.0786C366.137 18.5338 367.323 19.0786 368.38 18.63C369.15 18.5659 369.951 18.5338 370.72 18.4697C371.713 17.8929 372.899 18.4697 373.925 18.0211C376.777 17.7647 379.597 17.5083 382.449 17.2199C383.475 16.6431 384.628 17.2199 385.654 16.7712C389.884 16.3226 392.223 13.855 393.185 9.8491C393.473 8.8236 393.473 7.83014 393.185 6.80464C392.672 2.67058 390.236 0.299105 386.07 0.0427293C384.148 -0.0534116 382.193 0.0427293 380.27 0.0427293C379.276 0.619575 378.091 0.0427293 377.065 0.491387C376.264 0.555481 375.463 0.587528 374.694 0.651622C373.7 1.26051 372.547 0.651622 371.521 1.10028C368.701 1.58098 365.881 2.09374 363.029 1.90145C362.003 2.4783 360.849 1.90145 359.824 2.35011C359.023 2.41421 358.254 2.44625 357.452 2.51035C356.459 3.08719 355.273 2.51035 354.28 2.959C351.46 3.43971 348.672 3.92041 345.787 3.76018C344.762 4.30498 343.576 3.76018 342.551 4.20884C341.781 4.27293 340.98 4.30498 340.211 4.36907C339.218 4.94592 338.032 4.36907 337.006 4.81773C336.205 4.88182 335.404 4.91387 334.635 4.97796C333.642 5.58685 332.488 4.97796 331.462 5.42662C330.501 5.49071 329.507 5.55481 328.546 5.6189C327.521 6.1637 326.335 5.6189 325.277 6.06756C324.508 6.13165 323.739 6.1637 322.938 6.22779C321.912 6.80464 320.759 6.22779 319.733 6.67645C318.932 6.74055 318.163 6.77259 317.362 6.83669C316.368 7.41353 315.182 6.83669 314.189 7.28534C309.542 7.83014 305.056 8.75951 302.268 13.0858C299.992 16.611 299.672 20.7451 298.774 24.6868C296.788 33.2754 294.961 41.8961 293.038 50.4847C292.974 50.7731 292.686 50.9654 292.493 51.2217C291.34 51.8306 290.058 51.5102 288.872 51.5102C197.762 51.5102 106.653 51.5102 15.5434 51.5102C14.3256 51.5102 13.0758 51.3179 11.858 51.7024C5.67293 53.3368 1.76319 57.1184 0.609504 63.5598C0.321081 64.7776 0.321081 65.9954 0.609504 67.2132C4.96789 86.7298 9.32628 106.246 13.6847 125.763C19.2288 150.535 24.7409 175.308 30.3491 200.08C32.1758 208.124 37.6878 212.29 46.3405 212.29C115.113 212.29 183.886 212.29 252.659 212.29H256.729C255.094 219.276 253.684 226.07 251.89 232.8C250.704 237.19 247.371 239.37 242.788 239.498C241.603 240.01 240.353 239.754 239.135 239.754C172.638 239.754 106.108 239.754 39.6107 239.754C38.3929 239.754 37.143 239.562 35.9252 239.946C30.3491 243.151 28.7467 246.324 30.3811 250.938C31.631 254.432 35.1561 256.739 38.9056 256.515C39.9311 256.451 40.9566 256.515 41.9821 256.515C112.517 256.515 183.021 256.515 253.556 256.515C262.305 256.515 264.58 254.656 266.503 245.907C270.189 229.339 273.874 212.771 277.591 196.202C281.052 180.724 284.578 165.277 288.103 149.798C291.404 135.313 294.769 120.86 298.005 106.375C301.53 90.6075 304.927 74.8083 308.453 59.0092C310.888 48.017 313.516 37.057 315.823 26.0008C316.208 24.11 316.849 23.8536 318.387 24.0459C319.381 23.4691 320.566 24.0459 321.592 23.5973C322.553 23.5332 323.515 23.4691 324.508 23.405C325.534 22.8602 326.719 23.405 327.777 22.9563C328.546 22.8922 329.347 22.8602 330.116 22.7961C331.11 22.2192 332.296 22.7961 333.321 22.3474L341.814 21.5462C342.839 20.9694 343.993 21.5462 345.05 21.0976C345.851 21.0335 346.653 21.0014 347.422 20.9374C348.415 20.3285 349.569 20.9374 350.594 20.4887L350.466 20.5207Z" fill="#22223B"/>
<path d="M229.552 333.364C242.467 332.402 254.165 319.872 256.087 308.367C257.626 299.041 256.312 290.356 250.703 282.697C236.795 263.79 207.44 265.744 196.352 286.767C186.065 306.252 197.922 329.71 219.746 333.331C223.015 333.62 226.284 333.652 229.552 333.331V333.364Z" fill="#FFBC42"/>
<path d="M74.0605 333.363C87.3279 331.088 95.9486 323.076 99.4737 310.481C104.441 292.791 95.1474 276.351 78.9316 271.32C59.8957 265.391 41.2444 276.383 37.2385 295.483C33.489 313.43 46.1476 330.543 63.5811 333.395C67.0742 333.683 70.5353 333.715 74.0284 333.395L74.0605 333.363Z" fill="#FFBC42"/>
<path d="M11.7934 51.7667C58.0372 51.7667 104.281 51.7667 150.525 51.7988C196.672 51.7988 242.82 51.7988 288.968 51.7988C290.121 51.7988 291.403 52.3436 292.429 51.286C200.069 51.286 107.71 51.286 15.3507 51.286C14.1649 51.286 12.883 50.8694 11.7934 51.7988V51.7667Z" fill="#FFBC42"/>
<path d="M35.8617 239.978C50.8596 239.978 65.8897 239.882 80.8877 239.882C133.509 239.882 186.162 239.882 238.783 239.882C240.097 239.882 241.443 240.203 242.725 239.53C241.507 239.53 240.257 239.466 239.039 239.466C172.606 239.466 106.173 239.466 39.7714 239.466C38.4895 239.466 37.0795 239.017 35.8937 239.978H35.8617Z" fill="#FFBC42"/>
<path d="M74.061 333.363C70.5679 333.363 67.1068 333.363 63.6137 333.363C67.1068 334.196 70.5679 334.228 74.061 333.363Z" fill="#FFBC42"/>
<path d="M229.552 333.363C226.283 333.363 223.014 333.363 219.746 333.363C223.014 334.164 226.283 334.164 229.552 333.363Z" fill="#FFBC42"/>
<path d="M0.576904 67.2773C0.576904 66.0595 0.576904 64.8417 0.576904 63.624C-0.192223 64.8417 -0.192223 66.0595 0.576904 67.2773Z" fill="#FFBC42"/>
<path d="M319.669 6.70848C320.758 6.77257 321.88 6.86872 322.874 6.25982C321.784 6.32392 320.63 5.84321 319.669 6.70848Z" fill="#FFBC42"/>
<path d="M325.245 6.09963C326.367 6.16373 327.488 6.29192 328.514 5.65098C327.424 5.68302 326.239 5.20232 325.245 6.09963Z" fill="#FFBC42"/>
<path d="M321.495 23.5975C320.406 23.5334 319.316 23.4373 318.291 24.0462C319.38 23.9821 320.534 24.4628 321.495 23.5975Z" fill="#FFBC42"/>
<path d="M327.649 22.9561C326.527 22.892 325.405 22.7638 324.38 23.4048C325.469 23.3727 326.655 23.8534 327.649 22.9561Z" fill="#FFBC42"/>
<path d="M314.124 7.31773C315.214 7.38183 316.304 7.47797 317.297 6.86908C316.208 6.93317 315.086 6.45247 314.124 7.31773Z" fill="#FFBC42"/>
<path d="M288.647 68.5271H285.154C200.742 68.5271 116.331 68.5912 31.919 68.3989C23.4906 68.3989 19.1963 74.5519 20.8948 81.9548C28.6181 115.444 35.8928 149.029 43.3597 182.582C45.2825 191.139 50.8587 195.593 59.6076 195.593C125.528 195.593 191.417 195.593 257.337 195.625C259.324 195.625 260.446 195.337 260.959 193.094C270.092 152.042 279.289 110.989 288.455 69.9692C288.551 69.5847 288.551 69.2001 288.647 68.5592V68.5271Z" fill="#22223B"/>
<path d="M224.104 283.915C214.49 284.107 206.67 292.247 206.798 301.925C206.927 311.636 215.387 319.872 224.905 319.583C234.583 319.295 242.531 311.123 242.435 301.605C242.306 291.67 234.102 283.723 224.136 283.915H224.104Z" fill="#FFBC42"/>
<path d="M68.7087 283.914C58.9023 283.882 50.8585 291.862 50.7624 301.668C50.6983 311.283 58.9344 319.583 68.6446 319.583C78.1626 319.583 86.2704 311.475 86.3666 301.861C86.4627 292.054 78.483 283.914 68.6766 283.882L68.7087 283.914Z" fill="#FFBC42"/>
</svg>
