<svg width="394" height="334" viewBox="0 0 394 334" fill="none" xmlns="http://www.w3.org/2000/svg">
<path d="M350.466 20.5207C351.459 20.4566 352.421 20.3926 353.414 20.3285C354.44 19.7837 355.626 20.3285 356.651 19.8798C357.452 19.8157 358.221 19.7837 359.022 19.7196C360.016 19.1427 361.202 19.7196 362.195 19.2709C363.157 19.2068 364.15 19.1427 365.111 19.0786C366.137 18.5338 367.323 19.0786 368.38 18.63C369.149 18.5659 369.951 18.5338 370.72 18.4697C371.713 17.8929 372.899 18.4697 373.924 18.0211C376.777 17.7647 379.597 17.5083 382.449 17.2199C383.474 16.6431 384.628 17.2199 385.654 16.7712C389.884 16.3226 392.223 13.855 393.185 9.8491C393.473 8.8236 393.473 7.83014 393.185 6.80464C392.672 2.67058 390.236 0.299105 386.07 0.0427293C384.147 -0.0534116 382.192 0.0427293 380.27 0.0427293C379.276 0.619575 378.09 0.0427293 377.065 0.491387C376.264 0.555481 375.463 0.587528 374.693 0.651622C373.7 1.26051 372.546 0.651622 371.521 1.10028C368.701 1.58098 365.881 2.09374 363.028 1.90145C362.003 2.4783 360.849 1.90145 359.824 2.35011C359.022 2.41421 358.253 2.44625 357.452 2.51035C356.459 3.08719 355.273 2.51035 354.28 2.959C351.459 3.43971 348.671 3.92041 345.787 3.76018C344.762 4.30498 343.576 3.76018 342.55 4.20884C341.781 4.27293 340.98 4.30498 340.211 4.36907C339.217 4.94592 338.032 4.36907 337.006 4.81773C336.205 4.88182 335.404 4.91387 334.635 4.97796C333.641 5.58685 332.488 4.97796 331.462 5.42662C330.501 5.49071 329.507 5.55481 328.546 5.6189C327.52 6.1637 326.335 5.6189 325.277 6.06756C324.508 6.13165 323.739 6.1637 322.938 6.22779C321.912 6.80464 320.758 6.22779 319.733 6.67645C318.932 6.74055 318.163 6.77259 317.361 6.83669C316.368 7.41353 315.182 6.83669 314.189 7.28534C309.542 7.83014 305.055 8.75951 302.267 13.0858C299.992 16.611 299.672 20.7451 298.774 24.6868C296.787 33.2754 294.961 41.8961 293.038 50.4847C292.974 50.7731 292.685 50.9654 292.493 51.2217C291.339 51.8306 290.057 51.5102 288.872 51.5102C197.762 51.5102 106.653 51.5102 15.5431 51.5102C14.3253 51.5102 13.0755 51.3179 11.8578 51.7024C5.67269 53.3368 1.76295 57.1184 0.60926 63.5598C0.320837 64.7776 0.320837 65.9954 0.60926 67.2132C4.96765 86.7298 9.32604 106.246 13.6844 125.763C19.2286 150.535 24.7406 175.308 30.3488 200.08C32.1755 208.124 37.6876 212.29 46.3403 212.29C115.113 212.29 183.886 212.29 252.659 212.29H256.729C255.094 219.276 253.684 226.07 251.889 232.8C250.704 237.19 247.371 239.37 242.788 239.498C241.602 240.01 240.353 239.754 239.135 239.754C172.637 239.754 106.108 239.754 39.6104 239.754C38.3926 239.754 37.1428 239.562 35.925 239.946C30.3488 243.151 28.7465 246.324 30.3809 250.938C31.6307 254.432 35.1559 256.739 38.9054 256.515C39.9309 256.451 40.9564 256.515 41.9819 256.515C112.517 256.515 183.021 256.515 253.556 256.515C262.305 256.515 264.58 254.656 266.503 245.907C270.188 229.339 273.874 212.771 277.591 196.202C281.052 180.724 284.577 165.277 288.103 149.798C291.403 135.313 294.768 120.86 298.005 106.375C301.53 90.6075 304.927 74.8083 308.452 59.0092C310.888 48.017 313.516 37.057 315.823 26.0008C316.208 24.11 316.849 23.8536 318.387 24.0459C319.38 23.4691 320.566 24.0459 321.592 23.5973C322.553 23.5332 323.514 23.4691 324.508 23.405C325.533 22.8602 326.719 23.405 327.777 22.9563C328.546 22.8922 329.347 22.8602 330.116 22.7961C331.11 22.2192 332.295 22.7961 333.321 22.3474L341.813 21.5462C342.839 20.9694 343.992 21.5462 345.05 21.0976C345.851 21.0335 346.652 21.0014 347.421 20.9374C348.415 20.3285 349.569 20.9374 350.594 20.4887L350.466 20.5207Z" fill="#F9F5E3"/>
<path d="M229.552 333.364C242.467 332.402 254.164 319.872 256.087 308.367C257.625 299.041 256.311 290.357 250.703 282.697C236.795 263.79 207.44 265.744 196.352 286.767C186.064 306.252 197.922 329.71 219.746 333.332C223.015 333.62 226.283 333.652 229.552 333.332V333.364Z" fill="#22223B"/>
<path d="M74.06 333.363C87.3274 331.088 95.9481 323.076 99.4732 310.481C104.441 292.791 95.1469 276.351 78.9311 271.32C59.8952 265.391 41.2439 276.383 37.238 295.483C33.4885 313.43 46.1471 330.543 63.5806 333.395C67.0738 333.683 70.5348 333.715 74.0279 333.395L74.06 333.363Z" fill="#22223B"/>
<path d="M11.793 51.7668C58.0367 51.7668 104.28 51.7668 150.524 51.7988C196.672 51.7988 242.82 51.7988 288.967 51.7988C290.121 51.7988 291.403 52.3436 292.428 51.2861C200.069 51.2861 107.71 51.2861 15.3502 51.2861C14.1644 51.2861 12.8826 50.8695 11.793 51.7988V51.7668Z" fill="#22223B"/>
<path d="M35.8614 239.978C50.8594 239.978 65.8894 239.882 80.8874 239.882C133.509 239.882 186.162 239.882 238.783 239.882C240.097 239.882 241.443 240.203 242.725 239.53C241.507 239.53 240.257 239.466 239.039 239.466C172.606 239.466 106.172 239.466 39.7712 239.466C38.4893 239.466 37.0792 239.017 35.8935 239.978H35.8614Z" fill="#22223B"/>
<path d="M74.0605 333.363C70.5674 333.363 67.1063 333.363 63.6132 333.363C67.1063 334.196 70.5674 334.228 74.0605 333.363Z" fill="#22223B"/>
<path d="M229.552 333.363C226.283 333.363 223.014 333.363 219.745 333.363C223.014 334.164 226.283 334.164 229.552 333.363Z" fill="#22223B"/>
<path d="M0.57666 67.2773C0.57666 66.0595 0.57666 64.8417 0.57666 63.6239C-0.192467 64.8417 -0.192467 66.0595 0.57666 67.2773Z" fill="#22223B"/>
<path d="M319.668 6.70848C320.758 6.77257 321.88 6.86872 322.873 6.25982C321.783 6.32392 320.63 5.84321 319.668 6.70848Z" fill="#22223B"/>
<path d="M325.245 6.09957C326.367 6.16367 327.488 6.29186 328.514 5.65092C327.424 5.68296 326.238 5.20226 325.245 6.09957Z" fill="#22223B"/>
<path d="M321.495 23.5974C320.406 23.5334 319.316 23.4372 318.29 24.0461C319.38 23.982 320.534 24.4627 321.495 23.5974Z" fill="#22223B"/>
<path d="M327.648 22.956C326.527 22.8919 325.405 22.7638 324.38 23.4047C325.469 23.3727 326.655 23.8534 327.648 22.956Z" fill="#22223B"/>
<path d="M314.124 7.31773C315.214 7.38183 316.303 7.47797 317.297 6.86908C316.207 6.93317 315.086 6.45247 314.124 7.31773Z" fill="#22223B"/>
<path d="M288.647 68.5271H285.154C200.742 68.5271 116.33 68.5912 31.9187 68.3989C23.4904 68.3989 19.1961 74.5519 20.8946 81.9548C28.6179 115.444 35.8925 149.029 43.3595 182.582C45.2823 191.139 50.8585 195.593 59.6073 195.593C125.528 195.593 191.416 195.593 257.337 195.625C259.324 195.625 260.446 195.337 260.958 193.094C270.092 152.042 279.289 110.989 288.455 69.9692C288.551 69.5847 288.551 69.2001 288.647 68.5592V68.5271Z" fill="#F9F5E3"/>
<path d="M224.104 283.915C214.49 284.107 206.67 292.247 206.798 301.925C206.927 311.636 215.387 319.872 224.905 319.583C234.583 319.295 242.531 311.123 242.435 301.605C242.306 291.67 234.102 283.723 224.136 283.915H224.104Z" fill="#22223B"/>
<path d="M68.7084 283.914C58.9021 283.882 50.8583 291.862 50.7621 301.668C50.6981 311.283 58.9341 319.583 68.6444 319.583C78.1623 319.583 86.2702 311.475 86.3663 301.861C86.4625 292.054 78.4828 283.914 68.6764 283.882L68.7084 283.914Z" fill="#22223B"/>
</svg>
