<svg width="357" height="300" viewBox="0 0 357 300" fill="none" xmlns="http://www.w3.org/2000/svg">
<path d="M356.999 78.7861C355.05 82.3082 352.178 85.1807 349.682 88.3267C342.808 96.9782 335.833 105.595 328.891 114.179C321.813 122.899 314.666 131.584 307.622 140.304C298.663 151.384 289.806 162.497 280.847 173.577C271.102 185.682 261.322 197.753 251.542 209.824C241.763 221.929 231.949 234.035 222.135 246.14C210.064 261.049 198.028 275.993 185.957 290.902C183.939 293.364 181.922 295.826 179.973 298.357C179.084 299.485 178.571 299.725 177.476 298.391C165.919 283.96 154.292 269.564 142.632 255.168C128.407 237.557 114.113 220.014 99.8884 202.404C87.9202 187.631 76.0547 172.79 64.0523 158.018C57.2475 149.64 50.2376 141.364 43.4328 132.986C37.3803 125.532 31.4304 117.94 25.4121 110.451C20.6933 104.604 15.906 98.8248 11.1871 93.0115C7.45987 88.3951 3.73263 83.7444 0.00539794 79.0938C-0.0287969 79.0254 0.107982 78.8203 0.176372 78.6835C1.57836 77.726 3.15132 77.9312 4.69009 77.9312C36.97 77.9312 69.2841 77.9312 101.564 77.9312C106.214 77.9312 106.18 77.9312 104.436 73.7593C94.6908 50.6772 84.8427 27.6293 75.1314 4.51299C74.6185 3.28194 73.7294 2.08509 74.2081 0.580482H74.1397C75.1314 0.0333511 76.1572 0.306917 77.1831 0.306917C145.47 0.306917 213.757 0.306917 282.044 0.306917C284.54 0.751461 283.002 2.32446 282.66 3.21355C281.018 7.38543 279.24 11.4889 277.496 15.5924C268.913 35.6995 260.467 55.8749 251.884 75.982C251.474 76.9395 251.235 77.9654 250.209 78.5125C250.038 78.7177 249.833 78.8203 249.559 78.8887C248.396 78.5809 247.747 77.6234 247.029 76.8027C241.626 70.6817 235.95 64.8 230.444 58.7474C223.4 50.985 216.219 43.3251 209.141 35.5285C204.73 30.6727 200.319 25.8853 195.805 21.1321C190.539 15.5582 185.546 9.74493 180.178 4.27362C179.015 3.07677 178.4 2.8032 177.169 4.10264C172.074 9.57395 166.979 15.0795 161.918 20.6192C156.925 26.0563 151.899 31.5276 146.906 36.9647C139.315 45.2743 131.621 53.5496 123.996 61.825C119.448 66.7834 114.9 71.7076 110.352 76.6317C109.6 77.4524 108.54 78.0338 108.506 79.299C108.506 80.1881 108.779 81.0088 109.053 81.8295C111.07 87.6086 112.746 93.4902 114.695 99.3035C123.996 127.173 132.989 155.145 142.222 183.049C148.821 203.019 155.352 222.989 161.849 242.994C167.184 259.374 172.587 275.753 177.921 292.133C178.126 292.749 178.16 293.467 178.707 294.048C189.992 259.613 201.242 225.212 212.492 190.811C216.288 179.253 220.049 167.729 223.81 156.171C229.829 137.637 235.881 119.137 242.036 100.637C244.122 94.3451 246.14 88.0189 248.225 81.7269C248.704 80.3249 249.115 78.9228 250.653 78.2731C251.816 77.726 253.013 77.8628 254.21 77.8628C287.037 77.8628 319.864 77.8628 352.691 77.8628C354.161 77.8628 355.631 77.726 356.862 78.7861H356.999Z" fill="#A7A6A7"/>
<path d="M74.209 0.614624C80.3983 15.182 86.5875 29.7152 92.7768 44.2825C97.3589 55.0542 101.873 65.8258 106.489 76.5633C107.241 78.3073 107.036 78.7518 105.121 78.7518C70.1398 78.7176 35.1585 78.7176 0.177246 78.6834C2.05796 76.5633 3.83609 74.3748 5.78519 72.323C13.2397 64.458 20.8309 56.764 28.1828 48.8306C34.0301 42.5386 39.98 36.3491 45.8615 30.0913C54.547 20.8243 63.1641 11.4889 72.0547 2.427C72.7044 1.77728 73.2516 0.922385 74.209 0.614624Z" fill="#D9DADA"/>
<path d="M250.004 78.6835C256.023 64.5264 262.041 50.3694 268.025 36.2124C273.052 24.3465 278.044 12.4464 283.071 0.580455C283.242 0.375281 283.413 0.375281 283.618 0.580455C285.841 3.45289 288.542 5.84659 290.936 8.54806C295.757 13.951 300.989 18.9435 305.913 24.2097C314.804 33.7845 323.831 43.2567 332.824 52.7289C338.569 58.7815 344.279 64.8342 349.956 70.9552C352.315 73.5199 355.017 75.8452 357 78.786C345.442 78.786 333.918 78.7176 322.361 78.7176C298.253 78.7176 274.112 78.7176 250.004 78.6835Z" fill="#D9DADA"/>
<path d="M283.617 0.580483C283.446 0.580483 283.241 0.580483 283.07 0.580483C282.283 0.580483 281.531 0.512091 280.745 0.512091C212.731 0.512091 144.752 0.512091 76.7385 0.512091C75.8836 0.512091 75.0287 0.546287 74.1396 0.580483C74.8919 -0.27441 75.9178 0.0675471 76.8068 0.0675471C144.855 0.0675471 212.868 0.0675471 280.916 0.0675471C281.805 0.0675471 282.831 -0.27441 283.583 0.580483H283.617Z" fill="#FAF9F9"/>
<path d="M249.492 78.6835C249.663 78.6835 249.834 78.6835 250.005 78.6835C244.773 94.6871 239.541 110.725 234.275 126.728C227.607 147.075 220.939 167.421 214.271 187.768C207.671 207.943 201.038 228.119 194.438 248.328C189.514 263.375 184.624 278.386 179.7 293.433C179.461 294.151 179.221 294.903 178.948 295.621C177.819 295.211 177.956 294.185 177.717 293.467C169.373 268.162 161.064 242.823 152.754 217.484C146.292 197.787 139.863 178.09 133.4 158.394C126.561 137.569 119.756 116.709 112.918 95.884C111.379 91.1307 109.84 86.4117 108.301 81.6585C107.993 80.6669 107.583 79.7094 107.754 78.6493C108.985 77.897 110.353 77.8286 111.755 77.8286C156.345 77.8286 200.935 77.8286 245.491 77.8286C246.893 77.8286 248.261 77.8628 249.457 78.6835H249.492Z" fill="#D9DADA"/>
<path d="M249.49 78.6835C243.814 78.6835 238.138 78.7519 232.461 78.7519C192.009 78.7519 151.591 78.7519 111.138 78.7519C110.01 78.7519 108.916 78.6835 107.787 78.6493C111.651 74.3748 115.481 70.0662 119.379 65.8601C131.074 53.2419 142.803 40.6579 154.497 28.0055C162.02 19.8669 169.509 11.6599 176.997 3.48713C178.16 2.1877 178.776 1.57217 180.383 3.41874C187.153 11.0786 194.266 18.4649 201.207 26.0221C214.612 40.5895 227.982 55.1568 241.386 69.7242C244.122 72.6992 247.063 75.4691 249.49 78.7177V78.6835Z" fill="#747374"/>
</svg>
