<svg width="357" height="300" viewBox="0 0 357 300" fill="none" xmlns="http://www.w3.org/2000/svg">
<path d="M356.973 78.6925C352.327 85.2726 346.955 91.2887 341.96 97.6002C334.386 107.135 326.731 116.588 319.05 126.042C311.288 135.63 303.446 145.192 295.684 154.78C286.74 165.845 277.877 176.964 268.934 188.03C261.172 197.645 253.357 207.179 245.595 216.767C238.907 225.039 232.3 233.338 225.613 241.61C218.495 250.42 211.324 259.175 204.207 267.958C198.218 275.343 192.282 282.783 186.32 290.196C184.064 292.989 181.754 295.755 179.579 298.602C178.585 299.891 177.941 299.139 177.35 298.387C174.127 294.412 170.984 290.411 167.762 286.436C162.954 280.473 158.066 274.565 153.258 268.629C148.639 262.935 144.046 257.241 139.454 251.548C134.807 245.773 130.215 239.999 125.568 234.225C121.486 229.122 117.404 223.965 113.294 218.889C108.567 213.061 103.787 207.313 99.0599 201.485C94.3061 195.603 89.6329 189.641 84.8791 183.732C80.1791 177.904 75.3716 172.157 70.6715 166.329C65.2194 159.587 59.8479 152.766 54.3958 145.997C50.3403 140.975 46.1505 136.033 42.0682 131.011C37.4487 125.344 32.856 119.623 28.2634 113.93C23.6171 108.155 19.0244 102.381 14.3781 96.6064C9.73169 90.8321 5.03162 85.1114 0.385266 79.337C0.250979 79.149 0.277836 78.8536 0.224121 78.585C1.13728 77.7524 2.26529 77.7524 3.39331 77.7524C37.1801 77.7524 70.9669 77.7256 104.781 77.7524C105.291 77.7524 105.801 77.7793 106.311 77.8867C106.607 77.9404 106.902 78.0479 107.171 78.1553C108.326 78.8268 108.594 80.0353 108.97 81.1902C121.164 117.904 133.062 154.699 145.147 191.44C148.881 202.801 152.641 214.189 156.32 225.576C163.357 247.304 170.528 268.951 177.618 290.652C177.914 291.512 177.994 292.505 178.854 293.392C180.975 286.892 183.178 280.581 185.165 274.162C185.541 272.926 185.89 271.691 186.293 270.455C195.828 242.04 204.986 213.491 214.386 185.022C221.154 164.583 227.842 144.117 234.503 123.625C239.041 109.713 243.768 95.8276 248.146 81.8617C248.549 80.5725 248.791 79.149 249.999 78.2359C250.268 78.0747 250.563 77.9673 250.886 77.8867C252.255 77.6182 253.625 77.6987 254.995 77.6987C287.331 77.6987 319.668 77.6987 352.004 77.6987C353.696 77.6987 355.469 77.4302 357 78.5313L356.973 78.6925Z" fill="#B19DA0"/>
<path d="M74.2171 0.188003C75.2377 0.188003 76.2851 0.10743 77.3057 0.10743C144.826 0.10743 212.345 0.10743 279.865 0.10743C280.94 0.10743 282.121 -0.322291 283.088 0.537151C283.464 2.01432 282.632 3.19605 282.095 4.4315C272.13 27.905 262.139 51.4054 252.202 74.9057C251.638 76.2486 251.155 77.6452 250 78.6389C248.872 79.4178 247.583 79.4715 246.293 79.4715C201.2 79.4715 156.106 79.4715 111.012 79.4715C109.696 79.4715 108.434 79.4178 107.306 78.6389C105.721 77.2692 105.318 75.228 104.566 73.4286C94.602 49.8745 84.5304 26.3473 74.5931 2.76633C74.244 1.93374 73.4919 1.12802 74.244 0.134288L74.2171 0.188003Z" fill="#B19DA0"/>
<path d="M74.2174 0.188357C77.8701 8.8902 81.5227 17.5652 85.2022 26.267C90.6543 39.1587 96.1064 52.0234 101.558 64.8882C103.492 69.454 105.372 74.0735 107.279 78.6661C71.5854 78.6661 35.8917 78.6661 0.198019 78.6661C-0.392847 77.8336 0.493452 77.6455 0.8426 77.3233C5.00552 73.2409 8.87301 68.8631 12.9016 64.6733C23.7252 53.4737 34.2803 41.9787 44.9427 30.618C46.2319 29.2482 47.5747 27.9054 48.8908 26.5625C49.2399 25.5419 50.0725 24.9779 50.8782 24.3602C56.2497 18.7201 61.6212 13.08 66.9659 7.41304C67.315 6.39245 68.1476 5.82844 68.9534 5.21072C70.5648 3.38441 72.0688 1.47752 74.1906 0.161499L74.2174 0.188357Z" fill="#CAADA7"/>
<path d="M250 78.6657C253.196 71.0918 256.365 63.4912 259.561 55.9173C264.637 43.912 269.74 31.9335 274.816 19.9551C277.555 13.4824 280.322 7.03657 283.088 0.563904C287.949 4.56568 291.682 9.66861 296.221 13.9927C297.161 14.879 298.075 15.7653 299.015 16.6516C299.793 16.9739 300.357 17.4842 300.626 18.2899C300.76 18.6122 300.787 19.015 301.002 19.203C306.427 24.3328 311.02 30.2684 316.606 35.237C317.546 35.7204 318.325 36.3919 318.728 37.4125C318.862 37.7348 318.889 38.1376 319.104 38.3256C324.529 43.4554 329.122 49.3909 334.708 54.3596C335.648 54.843 336.427 55.5145 336.83 56.535C336.83 57.3139 337.448 57.7168 337.904 58.2002C343.088 63.5717 348.271 68.9164 353.401 74.3147C354.69 75.6576 355.791 77.1885 356.973 78.6388C321.306 78.6388 285.666 78.6388 250 78.6388V78.6657Z" fill="#CAADA7"/>
<path d="M69.0075 5.23706C68.6315 6.23079 67.7989 6.82166 66.9932 7.43938C66.9932 6.0965 67.7452 5.42506 69.0075 5.23706Z" fill="white"/>
<path d="M300.626 18.2898C300.088 17.7526 299.551 17.1886 299.014 16.6515C300.142 16.6515 300.679 17.1618 300.626 18.2898Z" fill="white"/>
<path d="M107.278 78.6659C154.843 78.6659 202.435 78.6659 249.999 78.6659C245.326 92.9541 240.653 107.242 235.953 121.531C232.999 130.501 229.964 139.471 227.009 148.442C220.161 169.256 213.366 190.098 206.544 210.912C199.91 231.163 193.249 251.414 186.616 271.664C184.306 278.674 182.05 285.711 179.74 292.747C179.471 293.553 179.176 294.332 178.612 295.917C177.242 291.888 176.087 288.531 174.986 285.174C171.817 275.532 168.675 265.89 165.532 256.248C158.872 235.917 152.211 215.586 145.523 195.255C138.863 174.923 132.175 154.592 125.515 134.261C119.606 116.213 113.724 98.1645 107.815 80.1162C107.654 79.6328 107.439 79.1493 107.251 78.6659H107.278Z" fill="#CAADA7"/>
<path d="M249.436 78.0211H108.809C108.514 77.108 109.159 76.5977 109.669 76.0337C114.96 70.3936 120.278 64.7803 125.542 59.1134C134.082 49.9281 142.65 40.7697 151.056 31.477C156.831 25.1117 162.712 18.8808 168.433 12.4618C171.119 9.45379 174.234 6.8486 176.544 3.49141C177.833 1.61138 178.988 1.42338 180.707 3.33027C189.463 13.1064 198.352 22.7751 207.215 32.4707C209.471 34.9416 211.808 37.3319 214.091 39.8028C223.491 50.0624 233.106 60.134 242.453 70.4473C244.682 72.8913 247.072 75.2011 249.462 78.0211H249.436Z" fill="#9A8C98"/>
</svg>
