<svg width="357" height="300" viewBox="0 0 357 300" fill="none" xmlns="http://www.w3.org/2000/svg">
<g clip-path="url(#clip0_408_919)">
<mask id="mask0_408_919" style="mask-type:luminance" maskUnits="userSpaceOnUse" x="0" y="0" width="357" height="300">
<path d="M357 0H0V300H357V0Z" fill="white"/>
</mask>
<g mask="url(#mask0_408_919)">
<path d="M356.973 78.6924C352.327 85.2725 346.955 91.2886 341.96 97.6001C334.386 107.135 326.731 116.588 319.05 126.042C311.288 135.63 303.446 145.192 295.684 154.78C286.74 165.845 277.877 176.964 268.934 188.03C261.172 197.645 253.357 207.179 245.595 216.767C238.907 225.039 232.3 233.338 225.613 241.61C218.495 250.42 211.324 259.175 204.207 267.958C198.218 275.343 192.282 282.783 186.32 290.196C184.064 292.989 181.754 295.755 179.579 298.602C178.585 299.891 177.941 299.139 177.35 298.387C174.127 294.412 170.984 290.411 167.762 286.436C162.954 280.473 158.066 274.565 153.258 268.629C148.639 262.935 144.046 257.241 139.454 251.548C134.807 245.773 130.215 239.999 125.568 234.224C121.486 229.122 117.404 223.965 113.294 218.889C108.567 213.061 103.787 207.313 99.0599 201.485C94.3061 195.603 89.6329 189.641 84.8791 183.732C80.1791 177.904 75.3716 172.157 70.6715 166.329C65.2194 159.587 59.8479 152.766 54.3958 145.997C50.3403 140.975 46.1505 136.033 42.0682 131.011C37.4487 125.344 32.856 119.623 28.2634 113.93C23.6171 108.155 19.0244 102.381 14.3781 96.6064C9.73169 90.832 5.03162 85.1114 0.385266 79.337C0.250979 79.149 0.277836 78.8535 0.224121 78.585C1.13728 77.7524 2.26529 77.7524 3.39331 77.7524C37.1801 77.7524 70.9669 77.7255 104.781 77.7524C105.291 77.7524 105.801 77.7792 106.311 77.8867C106.607 77.9404 106.902 78.0478 107.171 78.1553C108.326 78.8267 108.594 80.0353 108.97 81.1902C121.164 117.904 133.062 154.699 145.147 191.44C148.881 202.801 152.641 214.189 156.32 225.576C163.357 247.304 170.528 268.951 177.618 290.652C177.914 291.512 177.994 292.505 178.854 293.392C180.975 286.892 183.178 280.581 185.165 274.162C185.541 272.926 185.89 271.691 186.293 270.455C195.828 242.04 204.986 213.49 214.386 185.021C221.154 164.583 227.842 144.117 234.503 123.625C239.041 109.713 243.768 95.8275 248.146 81.8616C248.549 80.5724 248.791 79.149 249.999 78.2358C250.268 78.0747 250.563 77.9672 250.886 77.8867C252.255 77.6181 253.625 77.6987 254.995 77.6987C287.331 77.6987 319.668 77.6987 352.004 77.6987C353.696 77.6987 355.469 77.4301 357 78.5313L356.973 78.6924Z" fill="#B19DA0"/>
<path d="M74.2169 0.188003C75.2374 0.188003 76.2849 0.10743 77.3055 0.10743C144.825 0.10743 212.345 0.10743 279.865 0.10743C280.939 0.10743 282.121 -0.322291 283.088 0.537151C283.464 2.01432 282.631 3.19605 282.094 4.4315C272.13 27.905 262.139 51.4054 252.202 74.9057C251.638 76.2486 251.154 77.6452 250 78.6389C248.872 79.4178 247.582 79.4715 246.293 79.4715C201.199 79.4715 156.106 79.4715 111.012 79.4715C109.696 79.4715 108.433 79.4178 107.305 78.6389C105.721 77.2692 105.318 75.228 104.566 73.4286C94.6017 49.8745 84.5302 26.3473 74.5929 2.76633C74.2437 1.93374 73.4917 1.12802 74.2437 0.134288L74.2169 0.188003Z" fill="#B19DA0"/>
<path d="M74.2174 0.188357C77.8701 8.8902 81.5227 17.5652 85.2022 26.267C90.6543 39.1587 96.1064 52.0234 101.558 64.8882C103.492 69.454 105.372 74.0735 107.279 78.6661C71.5854 78.6661 35.8917 78.6661 0.198019 78.6661C-0.392847 77.8336 0.493452 77.6455 0.8426 77.3233C5.00552 73.2409 8.87301 68.8631 12.9016 64.6733C23.7252 53.4737 34.2803 41.9787 44.9427 30.618C46.2319 29.2482 47.5747 27.9054 48.8908 26.5625C49.2399 25.5419 50.0725 24.9779 50.8782 24.3602C56.2497 18.7201 61.6212 13.08 66.9659 7.41304C67.315 6.39245 68.1476 5.82844 68.9534 5.21072C70.5648 3.38441 72.0688 1.47752 74.1906 0.161499L74.2174 0.188357Z" fill="#CAADA7"/>
<path d="M107.279 78.6659C154.843 78.6659 202.435 78.6659 250 78.6659C245.326 92.9541 240.653 107.242 235.953 121.531C232.999 130.501 229.964 139.471 227.01 148.442C220.161 169.256 213.366 190.098 206.544 210.912C199.91 231.163 193.25 251.414 186.616 271.664C184.306 278.674 182.05 285.711 179.74 292.747C179.472 293.553 179.176 294.332 178.612 295.917C177.242 291.888 176.088 288.531 174.986 285.174C171.817 275.532 168.675 265.89 165.533 256.248C158.872 235.917 152.211 215.586 145.524 195.255C138.863 174.923 132.176 154.592 125.515 134.261C119.606 116.213 113.724 98.1645 107.816 80.1162C107.655 79.6328 107.44 79.1493 107.252 78.6659H107.279Z" fill="#CAADA7"/>
<path d="M249.436 78.0212H108.81C108.514 77.108 109.159 76.5977 109.669 76.0337C114.96 70.3936 120.278 64.7804 125.542 59.1135C134.083 49.9282 142.65 40.7698 151.057 31.477C156.831 25.1118 162.713 18.8809 168.433 12.4619C171.119 9.45385 174.235 6.84867 176.544 3.49147C177.834 1.61144 178.988 1.42344 180.707 3.33033C189.463 13.1065 198.353 22.7752 207.216 32.4708C209.472 34.9417 211.808 37.332 214.091 39.8029C223.491 50.0625 233.106 60.1341 242.453 70.4474C244.682 72.8914 247.072 75.2011 249.463 78.0212H249.436Z" fill="#9A8C98"/>
</g>
</g>
<g clip-path="url(#clip1_408_919)">
<mask id="mask1_408_919" style="mask-type:luminance" maskUnits="userSpaceOnUse" x="0" y="0" width="357" height="300">
<path d="M357 0H0V300H357V0Z" fill="white"/>
</mask>
<g mask="url(#mask1_408_919)">
<path d="M356.999 78.7861C355.05 82.3082 352.178 85.1807 349.682 88.3267C342.808 96.9782 335.833 105.595 328.891 114.179C321.813 122.899 314.666 131.584 307.622 140.304C298.663 151.384 289.806 162.497 280.847 173.577C271.102 185.682 261.322 197.753 251.542 209.824C241.763 221.929 231.949 234.035 222.135 246.14C210.064 261.049 198.028 275.993 185.957 290.902C183.939 293.364 181.922 295.826 179.973 298.357C179.084 299.485 178.571 299.725 177.476 298.391C165.919 283.96 154.292 269.564 142.632 255.168C128.407 237.557 114.113 220.014 99.8885 202.404C87.9203 187.631 76.0551 172.79 64.0521 158.018C57.2471 149.64 50.2381 141.364 43.4331 132.986C37.3801 125.532 31.4301 117.94 25.4121 110.451C20.6931 104.604 15.9061 98.8248 11.1871 93.0115C7.46008 88.3951 3.73309 83.7444 0.00509098 79.0938C-0.028909 79.0254 0.108081 78.8203 0.176081 78.6835C1.57808 77.726 3.15109 77.9312 4.69009 77.9312C36.9701 77.9312 69.2841 77.9312 101.564 77.9312C106.214 77.9312 106.18 77.9312 104.436 73.7593C94.6909 50.6772 84.8428 27.6293 75.1311 4.51299C74.6191 3.28194 73.7291 2.08509 74.2081 0.580482H74.1401C75.1311 0.0333511 76.1571 0.306917 77.1831 0.306917C145.47 0.306917 213.757 0.306917 282.044 0.306917C284.54 0.751461 283.002 2.32446 282.66 3.21355C281.018 7.38543 279.24 11.4889 277.496 15.5924C268.913 35.6995 260.467 55.8749 251.884 75.982C251.474 76.9395 251.235 77.9654 250.209 78.5125C250.038 78.7177 249.833 78.8203 249.559 78.8887C248.396 78.5809 247.747 77.6234 247.029 76.8027C241.626 70.6817 235.95 64.8 230.444 58.7474C223.4 50.985 216.219 43.3251 209.141 35.5285C204.73 30.6727 200.319 25.8853 195.805 21.1321C190.539 15.5582 185.546 9.74493 180.178 4.27362C179.015 3.07677 178.4 2.8032 177.169 4.10264C172.074 9.57395 166.979 15.0795 161.918 20.6192C156.925 26.0563 151.899 31.5276 146.906 36.9647C139.315 45.2743 131.621 53.5496 123.996 61.825C119.448 66.7834 114.9 71.7076 110.352 76.6317C109.6 77.4524 108.54 78.0338 108.506 79.299C108.506 80.1881 108.779 81.0088 109.053 81.8295C111.07 87.6086 112.746 93.4902 114.695 99.3035C123.996 127.173 132.989 155.145 142.222 183.049C148.821 203.019 155.352 222.989 161.849 242.994C167.184 259.374 172.587 275.753 177.921 292.133C178.126 292.749 178.16 293.467 178.707 294.048C189.992 259.613 201.242 225.212 212.492 190.811C216.288 179.253 220.049 167.729 223.81 156.171C229.829 137.637 235.881 119.137 242.036 100.637C244.122 94.3451 246.14 88.0189 248.225 81.7269C248.704 80.3249 249.115 78.9228 250.653 78.2731C251.816 77.726 253.013 77.8628 254.21 77.8628C287.037 77.8628 319.864 77.8628 352.691 77.8628C354.161 77.8628 355.631 77.726 356.862 78.7861H356.999Z" fill="#A7A6A7"/>
<path d="M250.004 78.6834C256.023 64.5264 262.041 50.3693 268.025 36.2123C273.052 24.3464 278.044 12.4463 283.071 0.580394C283.242 0.37522 283.413 0.37522 283.618 0.580394C285.841 3.45283 288.542 5.84653 290.936 8.54799C295.757 13.9509 300.989 18.9435 305.913 24.2096C314.804 33.7844 323.831 43.2566 332.824 52.7288C338.569 58.7815 344.279 64.8341 349.956 70.9552C352.315 73.5198 355.017 75.8451 357 78.786C345.442 78.786 333.918 78.7176 322.361 78.7176C298.253 78.7176 274.112 78.7176 250.004 78.6834Z" fill="#D9DADA"/>
<path d="M249.492 78.6835C249.663 78.6835 249.834 78.6835 250.005 78.6835C244.773 94.6871 239.541 110.725 234.275 126.728C227.607 147.075 220.939 167.421 214.271 187.768C207.671 207.943 201.038 228.119 194.438 248.328C189.514 263.375 184.624 278.386 179.7 293.433C179.461 294.151 179.221 294.903 178.948 295.621C177.819 295.211 177.956 294.185 177.717 293.467C169.373 268.162 161.064 242.823 152.754 217.484C146.292 197.787 139.863 178.09 133.4 158.394C126.561 137.569 119.756 116.709 112.918 95.884C111.379 91.1307 109.84 86.4117 108.301 81.6585C107.993 80.6669 107.583 79.7094 107.754 78.6493C108.985 77.897 110.353 77.8286 111.755 77.8286C156.345 77.8286 200.935 77.8286 245.491 77.8286C246.893 77.8286 248.261 77.8628 249.457 78.6835H249.492Z" fill="#D9DADA"/>
<path d="M249.49 78.6835C243.814 78.6835 238.138 78.7519 232.461 78.7519C192.009 78.7519 151.591 78.7519 111.138 78.7519C110.01 78.7519 108.916 78.6835 107.787 78.6493C111.651 74.3748 115.481 70.0662 119.379 65.8601C131.074 53.2419 142.803 40.6579 154.497 28.0055C162.02 19.8669 169.509 11.6599 176.997 3.48713C178.16 2.1877 178.776 1.57217 180.383 3.41874C187.153 11.0786 194.266 18.4649 201.207 26.0221C214.612 40.5895 227.982 55.1568 241.386 69.7242C244.122 72.6992 247.063 75.4691 249.49 78.7177V78.6835Z" fill="#747374"/>
</g>
</g>
<defs>
<clipPath id="clip0_408_919">
<rect width="179" height="300" fill="white"/>
</clipPath>
<clipPath id="clip1_408_919">
<rect width="178" height="300" fill="white" transform="translate(179)"/>
</clipPath>
</defs>
</svg>
