<svg width="238" height="238" viewBox="0 0 238 238" fill="none" xmlns="http://www.w3.org/2000/svg">
<path d="M69.3973 0C31.1289 0 0 31.1577 0 69.436V168.603C0 206.871 31.1577 238 69.436 238H168.603C206.871 238 238 206.842 238 168.564V69.3973C238 31.1289 206.842 0 168.564 0H69.3973ZM188.417 39.6667C193.891 39.6667 198.333 44.1093 198.333 49.5833C198.333 55.0573 193.891 59.5 188.417 59.5C182.943 59.5 178.5 55.0573 178.5 49.5833C178.5 44.1093 182.943 39.6667 188.417 39.6667ZM119 59.5C151.814 59.5 178.5 86.1857 178.5 119C178.5 151.814 151.814 178.5 119 178.5C86.1857 178.5 59.5 151.814 59.5 119C59.5 86.1857 86.1857 59.5 119 59.5ZM119 79.3333C108.48 79.3333 98.3904 83.5125 90.9514 90.9514C83.5125 98.3904 79.3333 108.48 79.3333 119C79.3333 129.52 83.5125 139.61 90.9514 147.049C98.3904 154.488 108.48 158.667 119 158.667C129.52 158.667 139.61 154.488 147.049 147.049C154.488 139.61 158.667 129.52 158.667 119C158.667 108.48 154.488 98.3904 147.049 90.9514C139.61 83.5125 129.52 79.3333 119 79.3333Z" fill="#22223B"/>
</svg>
